<?xml version="1.0" encoding="UTF-8"?>
<!--Generator: Apple Native CoreSVG 175-->
<!DOCTYPE svg
PUBLIC "-//W3C//DTD SVG 1.1//EN"
       "http://www.w3.org/Graphics/SVG/1.1/DTD/svg11.dtd">
<svg version="1.1" xmlns="http://www.w3.org/2000/svg" xmlns:xlink="http://www.w3.org/1999/xlink" width="3300" height="2200">
 <!--glyph: "uni1003FB.medium", point size: 100.0, font version: "17.0d12e1", template writer version: "65.1"-->
 <g id="Notes">
  <rect height="2200" id="artboard" style="fill:white;opacity:1" width="3300" x="0" y="0"/>
  <line style="fill:none;stroke:black;opacity:1;stroke-width:0.5;" x1="263" x2="3036" y1="292" y2="292"/>
  <text style="stroke:none;fill:black;font-family:sans-serif;font-size:13;font-weight:bold;" transform="matrix(1 0 0 1 263 322)">Weight/Scale Variations</text>
  <text style="stroke:none;fill:black;font-family:sans-serif;font-size:13;text-anchor:middle;" transform="matrix(1 0 0 1 559.711 322)">Ultralight</text>
  <text style="stroke:none;fill:black;font-family:sans-serif;font-size:13;text-anchor:middle;" transform="matrix(1 0 0 1 856.422 322)">Thin</text>
  <text style="stroke:none;fill:black;font-family:sans-serif;font-size:13;text-anchor:middle;" transform="matrix(1 0 0 1 1153.13 322)">Light</text>
  <text style="stroke:none;fill:black;font-family:sans-serif;font-size:13;text-anchor:middle;" transform="matrix(1 0 0 1 1449.84 322)">Regular</text>
  <text style="stroke:none;fill:black;font-family:sans-serif;font-size:13;text-anchor:middle;" transform="matrix(1 0 0 1 1746.56 322)">Medium</text>
  <text style="stroke:none;fill:black;font-family:sans-serif;font-size:13;text-anchor:middle;" transform="matrix(1 0 0 1 2043.27 322)">Semibold</text>
  <text style="stroke:none;fill:black;font-family:sans-serif;font-size:13;text-anchor:middle;" transform="matrix(1 0 0 1 2339.98 322)">Bold</text>
  <text style="stroke:none;fill:black;font-family:sans-serif;font-size:13;text-anchor:middle;" transform="matrix(1 0 0 1 2636.69 322)">Heavy</text>
  <text style="stroke:none;fill:black;font-family:sans-serif;font-size:13;text-anchor:middle;" transform="matrix(1 0 0 1 2933.4 322)">Black</text>
  <line style="fill:none;stroke:black;opacity:1;stroke-width:0.5;" x1="263" x2="3036" y1="1903" y2="1903"/>
  <g transform="matrix(1 0 0 1 263 1933)">
   <path d="M9.24805 0.830078Q10.8691 0.830078 12.2949 0.214844Q13.7207-0.400391 14.8096-1.49414Q15.8984-2.58789 16.5186-4.01367Q17.1387-5.43945 17.1387-7.05078Q17.1387-8.66211 16.5186-10.0879Q15.8984-11.5137 14.8047-12.6074Q13.7109-13.7012 12.2852-14.3164Q10.8594-14.9316 9.23828-14.9316Q7.62695-14.9316 6.20117-14.3164Q4.77539-13.7012 3.69141-12.6074Q2.60742-11.5137 1.9873-10.0879Q1.36719-8.66211 1.36719-7.05078Q1.36719-5.43945 1.9873-4.01367Q2.60742-2.58789 3.69629-1.49414Q4.78516-0.400391 6.21094 0.214844Q7.63672 0.830078 9.24805 0.830078ZM9.24805-0.654297Q7.91992-0.654297 6.7627-1.14746Q5.60547-1.64062 4.73145-2.51953Q3.85742-3.39844 3.36426-4.56055Q2.87109-5.72266 2.87109-7.05078Q2.87109-8.37891 3.35938-9.54102Q3.84766-10.7031 4.72168-11.582Q5.5957-12.4609 6.75293-12.9541Q7.91016-13.4473 9.23828-13.4473Q10.5762-13.4473 11.7334-12.9541Q12.8906-12.4609 13.7695-11.582Q14.6484-10.7031 15.1465-9.54102Q15.6445-8.37891 15.6445-7.05078Q15.6445-5.72266 15.1514-4.56055Q14.6582-3.39844 13.7842-2.51953Q12.9102-1.64062 11.748-1.14746Q10.5859-0.654297 9.24805-0.654297ZM5.6543-7.05078Q5.6543-6.72852 5.85938-6.52832Q6.06445-6.32812 6.40625-6.32812L8.51562-6.32812L8.51562-4.20898Q8.51562-3.88672 8.71094-3.67676Q8.90625-3.4668 9.23828-3.4668Q9.56055-3.4668 9.77051-3.67676Q9.98047-3.88672 9.98047-4.20898L9.98047-6.32812L12.0898-6.32812Q12.4219-6.32812 12.627-6.52832Q12.832-6.72852 12.832-7.05078Q12.832-7.38281 12.627-7.58789Q12.4219-7.79297 12.0898-7.79297L9.98047-7.79297L9.98047-9.90234Q9.98047-10.2344 9.77051-10.4443Q9.56055-10.6543 9.23828-10.6543Q8.90625-10.6543 8.71094-10.4443Q8.51562-10.2344 8.51562-9.90234L8.51562-7.79297L6.40625-7.79297Q6.06445-7.79297 5.85938-7.58789Q5.6543-7.38281 5.6543-7.05078Z"/>
  </g>
  <g transform="matrix(1 0 0 1 281.867 1933)">
   <path d="M11.709 2.91016Q13.75 2.91016 15.5518 2.12891Q17.3535 1.34766 18.7305-0.0292969Q20.1074-1.40625 20.8887-3.20801Q21.6699-5.00977 21.6699-7.05078Q21.6699-9.0918 20.8887-10.8936Q20.1074-12.6953 18.7305-14.0723Q17.3535-15.4492 15.5469-16.2305Q13.7402-17.0117 11.6992-17.0117Q9.6582-17.0117 7.85645-16.2305Q6.05469-15.4492 4.68262-14.0723Q3.31055-12.6953 2.5293-10.8936Q1.74805-9.0918 1.74805-7.05078Q1.74805-5.00977 2.5293-3.20801Q3.31055-1.40625 4.6875-0.0292969Q6.06445 1.34766 7.86621 2.12891Q9.66797 2.91016 11.709 2.91016ZM11.709 1.25Q9.98047 1.25 8.47656 0.605469Q6.97266-0.0390625 5.83496-1.17676Q4.69727-2.31445 4.05762-3.81836Q3.41797-5.32227 3.41797-7.05078Q3.41797-8.7793 4.05762-10.2832Q4.69727-11.7871 5.83008-12.9297Q6.96289-14.0723 8.4668-14.7119Q9.9707-15.3516 11.6992-15.3516Q13.4277-15.3516 14.9316-14.7119Q16.4355-14.0723 17.5781-12.9297Q18.7207-11.7871 19.3652-10.2832Q20.0098-8.7793 20.0098-7.05078Q20.0098-5.32227 19.3701-3.81836Q18.7305-2.31445 17.5928-1.17676Q16.4551-0.0390625 14.9463 0.605469Q13.4375 1.25 11.709 1.25ZM7.17773-7.05078Q7.17773-6.69922 7.41211-6.47461Q7.64648-6.25 8.01758-6.25L10.8887-6.25L10.8887-3.36914Q10.8887-2.99805 11.1133-2.76855Q11.3379-2.53906 11.6895-2.53906Q12.0605-2.53906 12.29-2.76855Q12.5195-2.99805 12.5195-3.36914L12.5195-6.25L15.4004-6.25Q15.7715-6.25 16.001-6.47461Q16.2305-6.69922 16.2305-7.05078Q16.2305-7.42188 16.001-7.65137Q15.7715-7.88086 15.4004-7.88086L12.5195-7.88086L12.5195-10.752Q12.5195-11.1328 12.29-11.3623Q12.0605-11.5918 11.6895-11.5918Q11.3379-11.5918 11.1133-11.3574Q10.8887-11.123 10.8887-10.752L10.8887-7.88086L8.01758-7.88086Q7.63672-7.88086 7.40723-7.65137Q7.17773-7.42188 7.17773-7.05078Z"/>
  </g>
  <g transform="matrix(1 0 0 1 305.646 1933)">
   <path d="M14.9707 5.66406Q17.0605 5.66406 18.96 5.01465Q20.8594 4.36523 22.4512 3.19336Q24.043 2.02148 25.2197 0.429688Q26.3965-1.16211 27.0459-3.06641Q27.6953-4.9707 27.6953-7.05078Q27.6953-9.14062 27.0459-11.04Q26.3965-12.9395 25.2197-14.5312Q24.043-16.123 22.4512-17.2998Q20.8594-18.4766 18.9551-19.126Q17.0508-19.7754 14.9609-19.7754Q12.8711-19.7754 10.9717-19.126Q9.07227-18.4766 7.48535-17.2998Q5.89844-16.123 4.72168-14.5312Q3.54492-12.9395 2.90039-11.04Q2.25586-9.14062 2.25586-7.05078Q2.25586-4.9707 2.90527-3.06641Q3.55469-1.16211 4.72656 0.429688Q5.89844 2.02148 7.49023 3.19336Q9.08203 4.36523 10.9814 5.01465Q12.8809 5.66406 14.9707 5.66406ZM14.9707 3.84766Q13.1641 3.84766 11.5283 3.2959Q9.89258 2.74414 8.53516 1.74805Q7.17773 0.751953 6.17676-0.610352Q5.17578-1.97266 4.62891-3.6084Q4.08203-5.24414 4.08203-7.05078Q4.08203-8.86719 4.62891-10.5029Q5.17578-12.1387 6.17188-13.501Q7.16797-14.8633 8.52539-15.8594Q9.88281-16.8555 11.5186-17.4023Q13.1543-17.9492 14.9609-17.9492Q16.7773-17.9492 18.4131-17.4023Q20.0488-16.8555 21.4111-15.8594Q22.7734-14.8633 23.7695-13.501Q24.7656-12.1387 25.3174-10.5029Q25.8691-8.86719 25.8691-7.05078Q25.8789-5.24414 25.332-3.6084Q24.7852-1.97266 23.7842-0.610352Q22.7832 0.751953 21.4209 1.74805Q20.0586 2.74414 18.4229 3.2959Q16.7871 3.84766 14.9707 3.84766ZM9.19922-7.05078Q9.19922-6.66992 9.45801-6.4209Q9.7168-6.17188 10.1172-6.17188L14.0625-6.17188L14.0625-2.2168Q14.0625-1.81641 14.3115-1.55762Q14.5605-1.29883 14.9512-1.29883Q15.3516-1.29883 15.6104-1.55273Q15.8691-1.80664 15.8691-2.2168L15.8691-6.17188L19.8242-6.17188Q20.2246-6.17188 20.4785-6.4209Q20.7324-6.66992 20.7324-7.05078Q20.7324-7.46094 20.4785-7.71484Q20.2246-7.96875 19.8242-7.96875L15.8691-7.96875L15.8691-11.9141Q15.8691-12.3242 15.6104-12.583Q15.3516-12.8418 14.9512-12.8418Q14.5605-12.8418 14.3115-12.583Q14.0625-12.3242 14.0625-11.9141L14.0625-7.96875L10.1172-7.96875Q9.70703-7.96875 9.45312-7.71484Q9.19922-7.46094 9.19922-7.05078Z"/>
  </g>
  <text style="stroke:none;fill:black;font-family:sans-serif;font-size:13;font-weight:bold;" transform="matrix(1 0 0 1 263 1953)">Design Variations</text>
  <text style="stroke:none;fill:black;font-family:sans-serif;font-size:13;" transform="matrix(1 0 0 1 263 1971)">Symbols are supported in up to nine weights and three scales.</text>
  <text style="stroke:none;fill:black;font-family:sans-serif;font-size:13;" transform="matrix(1 0 0 1 263 1989)">For optimal layout with text and other symbols, vertically align</text>
  <text style="stroke:none;fill:black;font-family:sans-serif;font-size:13;" transform="matrix(1 0 0 1 263 2007)">symbols with the adjacent text.</text>
  <line style="fill:none;stroke:#00AEEF;stroke-width:0.5;opacity:1.0;" x1="776" x2="776" y1="1919" y2="1933"/>
  <g transform="matrix(1 0 0 1 776 1933)">
   <path d="M3.31055 0.15625Q3.70117 0.15625 3.91602-0.00976562Q4.13086-0.175781 4.26758-0.585938L5.52734-4.0332L11.2891-4.0332L12.5488-0.585938Q12.6855-0.175781 12.9004-0.00976562Q13.1152 0.15625 13.4961 0.15625Q13.8867 0.15625 14.1162-0.0585938Q14.3457-0.273438 14.3457-0.644531Q14.3457-0.869141 14.2383-1.17188L9.6582-13.3691Q9.48242-13.8184 9.17969-14.043Q8.87695-14.2676 8.4082-14.2676Q7.5-14.2676 7.17773-13.3789L2.59766-1.16211Q2.49023-0.859375 2.49023-0.634766Q2.49023-0.263672 2.70996-0.0537109Q2.92969 0.15625 3.31055 0.15625ZM6.00586-5.51758L8.37891-12.0898L8.42773-12.0898L10.8008-5.51758Z"/>
  </g>
  <line style="fill:none;stroke:#00AEEF;stroke-width:0.5;opacity:1.0;" x1="793.197" x2="793.197" y1="1919" y2="1933"/>
  <text style="stroke:none;fill:black;font-family:sans-serif;font-size:13;font-weight:bold;" transform="matrix(1 0 0 1 776 1953)">Margins</text>
  <text style="stroke:none;fill:black;font-family:sans-serif;font-size:13;" transform="matrix(1 0 0 1 776 1971)">Leading and trailing margins on the left and right side of each symbol</text>
  <text style="stroke:none;fill:black;font-family:sans-serif;font-size:13;" transform="matrix(1 0 0 1 776 1989)">can be adjusted by modifying the x-location of the margin guidelines.</text>
  <text style="stroke:none;fill:black;font-family:sans-serif;font-size:13;" transform="matrix(1 0 0 1 776 2007)">Modifications are automatically applied proportionally to all</text>
  <text style="stroke:none;fill:black;font-family:sans-serif;font-size:13;" transform="matrix(1 0 0 1 776 2025)">scales and weights.</text>
  <g transform="matrix(1 0 0 1 1289 1933)">
   <path d="M2.8418 1.86523L4.54102 3.57422Q5.18555 4.22852 5.90332 4.17969Q6.62109 4.13086 7.31445 3.35938L18.0078-8.42773L17.041-9.4043L6.42578 2.27539Q6.16211 2.57812 5.89355 2.61719Q5.625 2.65625 5.27344 2.30469L4.10156 1.14258Q3.75 0.791016 3.79395 0.522461Q3.83789 0.253906 4.14062-0.0195312L15.6152-10.8203L14.6387-11.7871L3.04688-0.898438Q2.30469-0.214844 2.25098 0.498047Q2.19727 1.21094 2.8418 1.86523ZM9.25781-16.3281Q8.94531-16.0254 8.90625-15.6348Q8.86719-15.2441 9.04297-14.9512Q9.21875-14.6777 9.55566-14.541Q9.89258-14.4043 10.3809-14.5215Q11.4746-14.7754 12.5977-14.7314Q13.7207-14.6875 14.7949-13.9844L14.209-12.5293Q13.9551-11.9043 14.0674-11.4404Q14.1797-10.9766 14.5801-10.5664L16.875-8.25195Q17.2363-7.88086 17.5781-7.82227Q17.9199-7.76367 18.3398-7.8418L19.4043-8.03711L20.0684-7.36328L20.0293-6.80664Q20-6.43555 20.1221-6.12305Q20.2441-5.81055 20.6055-5.44922L21.3672-4.70703Q21.7285-4.3457 22.1533-4.33105Q22.5781-4.31641 22.9297-4.66797L25.8398-7.58789Q26.1914-7.93945 26.1816-8.35449Q26.1719-8.76953 25.8105-9.13086L25.0391-9.89258Q24.6875-10.2539 24.3799-10.3857Q24.0723-10.5176 23.7109-10.4883L23.1348-10.4395L22.4902-11.0742L22.7344-12.1973Q22.832-12.6172 22.6953-12.9834Q22.5586-13.3496 22.1191-13.7891L19.9219-15.9766Q18.6719-17.2168 17.2607-17.8369Q15.8496-18.457 14.4189-18.4814Q12.9883-18.5059 11.665-17.959Q10.3418-17.4121 9.25781-16.3281ZM10.752-15.957Q11.6602-16.6211 12.7002-16.9043Q13.7402-17.1875 14.8047-17.085Q15.8691-16.9824 16.8701-16.5137Q17.8711-16.0449 18.7012-15.2051L21.1328-12.793Q21.3086-12.6172 21.3525-12.4512Q21.3965-12.2852 21.3379-12.0312L21.0156-10.5469L22.5195-9.0625L23.5059-9.12109Q23.6914-9.13086 23.7891-9.09668Q23.8867-9.0625 24.0332-8.91602L24.6094-8.33984L22.168-5.89844L21.5918-6.47461Q21.4453-6.62109 21.4062-6.71875Q21.3672-6.81641 21.377-7.01172L21.4453-7.98828L19.9512-9.47266L18.4277-9.21875Q18.1836-9.16992 18.042-9.2041Q17.9004-9.23828 17.7148-9.41406L15.7129-11.416Q15.5176-11.5918 15.4932-11.7529Q15.4688-11.9141 15.5859-12.1875L16.4648-14.2773Q15.293-15.3711 13.8281-15.791Q12.3633-16.2109 10.8398-15.7617Q10.7227-15.7324 10.6885-15.8057Q10.6543-15.8789 10.752-15.957Z"/>
  </g>
  <text style="stroke:none;fill:black;font-family:sans-serif;font-size:13;font-weight:bold;" transform="matrix(1 0 0 1 1289 1953)">Exporting</text>
  <text style="stroke:none;fill:black;font-family:sans-serif;font-size:13;" transform="matrix(1 0 0 1 1289 1971)">Symbols should be outlined when exporting to ensure the</text>
  <text style="stroke:none;fill:black;font-family:sans-serif;font-size:13;" transform="matrix(1 0 0 1 1289 1989)">design is preserved when submitting to Xcode.</text>
  <text id="template-version" style="stroke:none;fill:black;font-family:sans-serif;font-size:13;text-anchor:end;" transform="matrix(1 0 0 1 3036 1933)">Template v.2.0</text>
  <text style="stroke:none;fill:black;font-family:sans-serif;font-size:13;text-anchor:end;" transform="matrix(1 0 0 1 3036 1951)">Requires Xcode 13 or greater</text>
  <text id="descriptive-name" style="stroke:none;fill:black;font-family:sans-serif;font-size:13;text-anchor:end;" transform="matrix(1 0 0 1 3036 1969)">Generated from person.crop.rectangle.stack</text>
  <text style="stroke:none;fill:black;font-family:sans-serif;font-size:13;text-anchor:end;" transform="matrix(1 0 0 1 3036 1987)">Typeset at 100 points</text>
  <text style="stroke:none;fill:black;font-family:sans-serif;font-size:13;" transform="matrix(1 0 0 1 263 726)">Small</text>
  <text style="stroke:none;fill:black;font-family:sans-serif;font-size:13;" transform="matrix(1 0 0 1 263 1156)">Medium</text>
  <text style="stroke:none;fill:black;font-family:sans-serif;font-size:13;" transform="matrix(1 0 0 1 263 1586)">Large</text>
 </g>
 <g id="Guides">
  <g id="H-reference" style="fill:#27AAE1;stroke:none;" transform="matrix(1 0 0 1 339 696)">
   <path d="M0.993347 0L3.6377 0L29.3282-67.1326L30.0301-67.1326L30.0301-70.459L28.1227-70.459ZM11.6882-24.4797L46.9818-24.4797L46.2311-26.7288L12.4382-26.7288ZM55.1193 0L57.7637 0L30.6381-70.459L29.4327-70.459L29.4327-67.1326Z"/>
  </g>
  <line id="Baseline-S" style="fill:none;stroke:#27AAE1;opacity:1;stroke-width:0.5;" x1="263" x2="3036" y1="696" y2="696"/>
  <line id="Capline-S" style="fill:none;stroke:#27AAE1;opacity:1;stroke-width:0.5;" x1="263" x2="3036" y1="625.541" y2="625.541"/>
  <g id="H-reference" style="fill:#27AAE1;stroke:none;" transform="matrix(1 0 0 1 339 1126)">
   <path d="M0.993347 0L3.6377 0L29.3282-67.1326L30.0301-67.1326L30.0301-70.459L28.1227-70.459ZM11.6882-24.4797L46.9818-24.4797L46.2311-26.7288L12.4382-26.7288ZM55.1193 0L57.7637 0L30.6381-70.459L29.4327-70.459L29.4327-67.1326Z"/>
  </g>
  <line id="Baseline-M" style="fill:none;stroke:#27AAE1;opacity:1;stroke-width:0.5;" x1="263" x2="3036" y1="1126" y2="1126"/>
  <line id="Capline-M" style="fill:none;stroke:#27AAE1;opacity:1;stroke-width:0.5;" x1="263" x2="3036" y1="1055.54" y2="1055.54"/>
  <g id="H-reference" style="fill:#27AAE1;stroke:none;" transform="matrix(1 0 0 1 339 1556)">
   <path d="M0.993347 0L3.6377 0L29.3282-67.1326L30.0301-67.1326L30.0301-70.459L28.1227-70.459ZM11.6882-24.4797L46.9818-24.4797L46.2311-26.7288L12.4382-26.7288ZM55.1193 0L57.7637 0L30.6381-70.459L29.4327-70.459L29.4327-67.1326Z"/>
  </g>
  <line id="Baseline-L" style="fill:none;stroke:#27AAE1;opacity:1;stroke-width:0.5;" x1="263" x2="3036" y1="1556" y2="1556"/>
  <line id="Capline-L" style="fill:none;stroke:#27AAE1;opacity:1;stroke-width:0.5;" x1="263" x2="3036" y1="1485.54" y2="1485.54"/>
  <line id="left-margin" style="fill:none;stroke:#00AEEF;stroke-width:0.5;opacity:1.0;" x1="1386.25" x2="1386.25" y1="1030.79" y2="1150.12"/>
  <line id="right-margin" style="fill:none;stroke:#00AEEF;stroke-width:0.5;opacity:1.0;" x1="1513.44" x2="1513.44" y1="1030.79" y2="1150.12"/>
 </g>
 <g id="Symbols">
  <g id="Black-L" transform="matrix(1 0 0 1 2848.78 1556)">
   <path d="M39.9902 41.8945L129.297 41.8945Q140.723 41.8945 146.948 35.6689Q153.174 29.4434 153.174 18.0664L153.174-46.9238Q153.174-58.3008 146.948-64.5264Q140.723-70.752 129.297-70.752L39.9902-70.752Q28.5156-70.752 22.29-64.5264Q16.0645-58.3008 16.0645-46.9238L16.0645 18.0664Q16.0645 29.4434 22.29 35.6689Q28.5156 41.8945 39.9902 41.8945ZM42.6758 21.6309Q39.5508 21.6309 37.9395 20.1172Q36.3281 18.6035 36.3281 15.1855L36.3281-44.043Q36.3281-47.4609 37.9395-48.9746Q39.5508-50.4883 42.6758-50.4883L126.562-50.4883Q129.736-50.4883 131.348-48.9746Q132.959-47.4609 132.959-44.043L132.959 15.1855Q132.959 18.6035 131.348 20.1172Q129.736 21.6309 126.562 21.6309ZM31.7871-81.25L137.451-81.25Q136.865-86.5234 133.74-89.5508Q130.615-92.5781 124.414-92.5781L44.873-92.5781Q38.6719-92.5781 35.5469-89.5508Q32.4219-86.5234 31.7871-81.25ZM44.2383-102.1L125.049-102.1Q124.609-107.08 121.484-109.79Q118.359-112.5 113.086-112.5L56.2012-112.5Q50.9277-112.5 47.8027-109.79Q44.6777-107.08 44.2383-102.1ZM51.3184 28.125L120.361 28.125Q118.701 23.2422 115.43 19.2871Q112.158 15.332 107.593 12.4756Q103.027 9.61914 97.4854 8.10547Q91.9434 6.5918 85.791 6.5918Q79.6387 6.5918 74.1211 8.10547Q68.6035 9.61914 64.0381 12.4756Q59.4727 15.332 56.2012 19.2871Q52.9297 23.2422 51.3184 28.125ZM85.791-0.878906Q91.3086-0.830078 95.6299-3.6377Q99.9512-6.44531 102.466-11.1816Q104.98-15.918 104.98-21.7773Q104.98-27.2949 102.441-31.9824Q99.9023-36.6699 95.5566-39.502Q91.2109-42.334 85.791-42.334Q80.4688-42.334 76.0986-39.502Q71.7285-36.6699 69.165-31.9824Q66.6016-27.2949 66.6504-21.7773Q66.6504-15.918 69.165-11.1816Q71.6797-6.44531 76.0254-3.66211Q80.3711-0.878906 85.791-0.878906Z"/>
  </g>
  <g id="Heavy-L" transform="matrix(1 0 0 1 2552.7 1556)">
   <path d="M38.8184 39.8438L129.199 39.8438Q140.137 39.8438 146.021 33.96Q151.904 28.0762 151.904 17.1875L151.904-47.8027Q151.904-58.6914 146.021-64.5752Q140.137-70.459 129.199-70.459L38.8184-70.459Q27.832-70.459 21.9482-64.5996Q16.0645-58.7402 16.0645-47.8027L16.0645 17.1875Q16.0645 28.0762 21.9482 33.96Q27.832 39.8438 38.8184 39.8438ZM40.918 22.3145Q37.3047 22.3145 35.4492 20.5322Q33.5938 18.75 33.5938 14.8926L33.5938-45.5078Q33.5938-49.3652 35.4492-51.1475Q37.3047-52.9297 40.918-52.9297L127.051-52.9297Q130.664-52.9297 132.544-51.1475Q134.424-49.3652 134.424-45.5078L134.424 14.8926Q134.424 18.75 132.544 20.5322Q130.664 22.3145 127.051 22.3145ZM31.25-81.0059L136.768-81.0059Q136.182-85.8887 133.325-88.6719Q130.469-91.4551 124.805-91.4551L43.2129-91.4551Q37.5488-91.4551 34.6924-88.6719Q31.8359-85.8887 31.25-81.0059ZM43.75-100.83L124.268-100.83Q123.877-105.469 121.021-107.959Q118.164-110.449 113.281-110.449L54.7363-110.449Q49.8535-110.449 46.9971-107.959Q44.1406-105.469 43.75-100.83ZM49.2676 28.3203L120.654 28.3203Q119.141 23.1934 115.82 18.9453Q112.5 14.6973 107.764 11.6211Q103.027 8.54492 97.2168 6.86035Q91.4062 5.17578 84.9121 5.17578Q78.418 5.17578 72.6318 6.86035Q66.8457 8.54492 62.1094 11.6211Q57.373 14.6973 54.0527 18.9453Q50.7324 23.1934 49.2676 28.3203ZM84.9121-2.73438Q90.4297-2.68555 94.7754-5.49316Q99.1211-8.30078 101.636-13.0615Q104.15-17.8223 104.15-23.7305Q104.15-29.2969 101.611-34.0088Q99.0723-38.7207 94.7021-41.5527Q90.332-44.3848 84.9121-44.3848Q79.5898-44.3848 75.1953-41.5527Q70.8008-38.7207 68.2373-34.0088Q65.6738-29.2969 65.7227-23.7305Q65.7227-17.8223 68.2617-13.0615Q70.8008-8.30078 75.1465-5.51758Q79.4922-2.73438 84.9121-2.73438Z"/>
  </g>
  <g id="Bold-L" transform="matrix(1 0 0 1 2256.69 1556)">
   <path d="M37.5488 37.5488L129.053 37.5488Q139.502 37.5488 145.02 32.0557Q150.537 26.5625 150.537 16.2109L150.537-48.8281Q150.537-59.1797 145.02-64.6729Q139.502-70.166 129.053-70.166L37.5488-70.166Q27.0508-70.166 21.5576-64.6973Q16.0645-59.2285 16.0645-48.8281L16.0645 16.2109Q16.0645 26.6113 21.5576 32.0801Q27.0508 37.5488 37.5488 37.5488ZM38.9648 23.0957Q34.8633 23.0957 32.6904 20.9961Q30.5176 18.8965 30.5176 14.5508L30.5176-47.168Q30.5176-51.5137 32.6904-53.6133Q34.8633-55.7129 38.9648-55.7129L127.637-55.7129Q131.738-55.7129 133.911-53.6133Q136.084-51.5137 136.084-47.168L136.084 14.5508Q136.084 18.8965 133.911 20.9961Q131.738 23.0957 127.637 23.0957ZM30.6641-80.7129L135.986-80.7129Q135.4-85.1562 132.861-87.6709Q130.322-90.1855 125.244-90.1855L41.4062-90.1855Q36.3281-90.1855 33.7891-87.6709Q31.25-85.1562 30.6641-80.7129ZM43.2129-99.4629L123.438-99.4629Q123.096-103.662 120.557-105.908Q118.018-108.154 113.525-108.154L53.125-108.154Q48.6328-108.154 46.0938-105.908Q43.5547-103.662 43.2129-99.4629ZM46.9238 28.5645L120.947 28.5645Q119.531 23.1445 116.187 18.5791Q112.842 14.0137 107.91 10.6689Q102.979 7.32422 96.8506 5.49316Q90.7227 3.66211 83.8867 3.66211Q77.0508 3.66211 70.9717 5.49316Q64.8926 7.32422 59.9609 10.6689Q55.0293 14.0137 51.6602 18.5791Q48.291 23.1445 46.9238 28.5645ZM83.8867-4.83398Q89.4043-4.78516 93.75-7.59277Q98.0957-10.4004 100.659-15.1611Q103.223-19.9219 103.223-25.8789Q103.223-31.543 100.659-36.2549Q98.0957-40.9668 93.7256-43.7988Q89.3555-46.6309 83.8867-46.6309Q78.5156-46.6309 74.1211-43.7988Q69.7266-40.9668 67.1631-36.2549Q64.5996-31.543 64.6484-25.8789Q64.6484-19.9219 67.1875-15.1611Q69.7266-10.4004 74.0967-7.61719Q78.4668-4.83398 83.8867-4.83398Z"/>
  </g>
  <g id="Semibold-L" transform="matrix(1 0 0 1 1960.46 1556)">
   <path d="M36.6211 35.9863L128.955 35.9863Q139.062 35.9863 144.312 30.7617Q149.561 25.5371 149.561 15.5273L149.561-49.5117Q149.561-59.5215 144.312-64.7217Q139.062-69.9219 128.955-69.9219L36.6211-69.9219Q26.5137-69.9219 21.2891-64.7217Q16.0645-59.5215 16.0645-49.5117L16.0645 15.5273Q16.0645 25.5371 21.2891 30.7617Q26.5137 35.9863 36.6211 35.9863ZM37.5977 23.6328Q33.1055 23.6328 30.7617 21.3135Q28.418 18.9941 28.418 14.3066L28.418-48.291Q28.418-52.9785 30.7617-55.2734Q33.1055-57.5684 37.5977-57.5684L127.979-57.5684Q132.422-57.5684 134.814-55.2734Q137.207-52.9785 137.207-48.291L137.207 14.3066Q137.207 18.9941 134.814 21.3135Q132.422 23.6328 127.979 23.6328ZM30.2246-80.4688L135.4-80.4688Q134.863-84.6191 132.544-86.9629Q130.225-89.3066 125.537-89.3066L40.1367-89.3066Q35.4492-89.3066 33.1299-86.9629Q30.8105-84.6191 30.2246-80.4688ZM42.8223-98.4863L122.803-98.4863Q122.51-102.393 120.19-104.492Q117.871-106.592 113.672-106.592L52.002-106.592Q47.8027-106.592 45.459-104.492Q43.1152-102.393 42.8223-98.4863ZM45.3125 28.6621L121.094 28.6621Q119.824 23.0469 116.431 18.2861Q113.037 13.5254 107.983 9.98535Q102.93 6.44531 96.6064 4.49219Q90.2832 2.53906 83.2031 2.53906Q76.0742 2.53906 69.7754 4.49219Q63.4766 6.44531 58.4229 9.98535Q53.3691 13.5254 49.9512 18.2861Q46.5332 23.0469 45.3125 28.6621ZM83.2031-6.29883Q88.6719-6.25 93.042-9.05762Q97.4121-11.8652 99.9756-16.6504Q102.539-21.4355 102.539-27.4414Q102.539-33.1055 99.9756-37.8174Q97.4121-42.5293 93.0176-45.3613Q88.623-48.1934 83.2031-48.1934Q77.7832-48.1934 73.3887-45.3613Q68.9941-42.5293 66.4062-37.8174Q63.8184-33.1055 63.8672-27.4414Q63.8672-21.4355 66.4307-16.6504Q68.9941-11.8652 73.3887-9.08203Q77.7832-6.29883 83.2031-6.29883Z"/>
  </g>
  <g id="Medium-L" transform="matrix(1 0 0 1 1664.12 1556)">
   <path d="M35.9375 34.7656L128.906 34.7656Q138.721 34.7656 143.774 29.7363Q148.828 24.707 148.828 15.0391L148.828-50.0488Q148.828-59.7656 143.774-64.7461Q138.721-69.7266 128.906-69.7266L35.9375-69.7266Q26.123-69.7266 21.0938-64.7461Q16.0645-59.7656 16.0645-50.0488L16.0645 15.0391Q16.0645 24.7559 21.0938 29.7607Q26.123 34.7656 35.9375 34.7656ZM36.5723 24.0234Q31.8359 24.0234 29.3213 21.5576Q26.8066 19.0918 26.8066 14.1602L26.8066-49.1699Q26.8066-54.0527 29.3213-56.543Q31.8359-59.0332 36.5723-59.0332L128.271-59.0332Q132.959-59.0332 135.522-56.543Q138.086-54.0527 138.086-49.1699L138.086 14.1602Q138.086 19.0918 135.522 21.5576Q132.959 24.0234 128.271 24.0234ZM29.8828-80.3223L135.01-80.3223Q134.473-84.2285 132.3-86.4502Q130.127-88.6719 125.732-88.6719L39.209-88.6719Q34.7656-88.6719 32.6172-86.4502Q30.4688-84.2285 29.8828-80.3223ZM42.5781-97.7539L122.363-97.7539Q122.07-101.416 119.922-103.394Q117.773-105.371 113.77-105.371L51.1719-105.371Q47.168-105.371 44.9707-103.394Q42.7734-101.416 42.5781-97.7539ZM44.0918 28.7598L121.24 28.7598Q120.02 22.998 116.626 18.0908Q113.232 13.1836 108.057 9.49707Q102.881 5.81055 96.4111 3.78418Q89.9414 1.75781 82.666 1.75781Q75.3906 1.75781 68.9209 3.78418Q62.4512 5.81055 57.2998 9.49707Q52.1484 13.1836 48.7061 18.0908Q45.2637 22.998 44.0918 28.7598ZM82.666-7.37305Q88.1348-7.32422 92.5049-10.1318Q96.875-12.9395 99.4629-17.7246Q102.051-22.5098 102.051-28.5645Q102.051-34.2773 99.4629-38.9893Q96.875-43.7012 92.4805-46.5332Q88.0859-49.3652 82.666-49.3652Q77.2461-49.3652 72.8271-46.5332Q68.4082-43.7012 65.8447-38.9893Q63.2812-34.2773 63.3301-28.5645Q63.3301-22.5098 65.8936-17.749Q68.457-12.9883 72.8516-10.2051Q77.2461-7.42188 82.666-7.37305Z"/>
  </g>
  <g id="Regular-L" transform="matrix(1 0 0 1 1367.89 1556)">
   <path d="M35.0586 33.2031L128.809 33.2031Q138.281 33.2031 143.066 28.4424Q147.852 23.6816 147.852 14.3555L147.852-50.7324Q147.852-60.0586 143.066-64.7949Q138.281-69.5312 128.809-69.5312L35.0586-69.5312Q25.5859-69.5312 20.8252-64.8193Q16.0645-60.1074 16.0645-50.7324L16.0645 14.3555Q16.0645 23.7305 20.8252 28.4668Q25.5859 33.2031 35.0586 33.2031ZM35.2539 24.5605Q30.127 24.5605 27.417 21.875Q24.707 19.1895 24.707 13.916L24.707-50.293Q24.707-55.5176 27.417-58.2031Q30.127-60.8887 35.2539-60.8887L128.662-60.8887Q133.691-60.8887 136.45-58.2031Q139.209-55.5176 139.209-50.293L139.209 13.916Q139.209 19.1895 136.45 21.875Q133.691 24.5605 128.662 24.5605ZM29.4922-80.127L134.473-80.127Q133.936-83.7402 131.982-85.7666Q130.029-87.793 126.025-87.793L37.9395-87.793Q33.9355-87.793 31.9824-85.7666Q30.0293-83.7402 29.4922-80.127ZM42.1875-96.7773L121.777-96.7773Q121.533-100.195 119.58-102.002Q117.627-103.809 113.916-103.809L50.0488-103.809Q46.3379-103.809 44.3604-102.002Q42.3828-100.195 42.1875-96.7773ZM42.5293 28.9062L121.484 28.9062Q120.361 22.9492 116.919 17.8223Q113.477 12.6953 108.179 8.83789Q102.881 4.98047 96.1914 2.83203Q89.502 0.683594 81.9824 0.683594Q74.4629 0.683594 67.7979 2.83203Q61.1328 4.98047 55.835 8.83789Q50.5371 12.6953 47.0703 17.8223Q43.6035 22.9492 42.5293 28.9062ZM81.9824-8.78906Q87.4512-8.74023 91.8457-11.5479Q96.2402-14.3555 98.8281-19.165Q101.416-23.9746 101.416-30.0293Q101.416-35.791 98.8281-40.5273Q96.2402-45.2637 91.8457-48.0957Q87.4512-50.9277 81.9824-50.9277Q76.5625-50.9277 72.1436-48.0957Q67.7246-45.2637 65.1367-40.5273Q62.5488-35.791 62.5977-30.0293Q62.5977-23.9746 65.1855-19.1895Q67.7734-14.4043 72.168-11.6211Q76.5625-8.83789 81.9824-8.78906Z"/>
  </g>
  <g id="Light-L" transform="matrix(1 0 0 1 1071.3 1556)">
   <path d="M34.0332 31.543L129.59 31.543Q138.477 31.543 143.042 26.9775Q147.607 22.4121 147.607 13.6719L147.607-52.002Q147.607-60.7422 143.042-65.2832Q138.477-69.8242 129.59-69.8242L34.0332-69.8242Q25.0977-69.8242 20.5811-65.332Q16.0645-60.8398 16.0645-52.002L16.0645 13.6719Q16.0645 22.5098 20.5811 27.0264Q25.0977 31.543 34.0332 31.543ZM34.2285 24.9023Q28.5645 24.9023 25.6104 21.9971Q22.6562 19.0918 22.6562 13.3301L22.6562-51.6602Q22.6562-57.373 25.6104-60.3027Q28.5645-63.2324 34.2285-63.2324L129.443-63.2324Q134.912-63.2324 137.939-60.3027Q140.967-57.373 140.967-51.6602L140.967 13.3301Q140.967 19.0918 137.939 21.9971Q134.912 24.9023 129.443 24.9023ZM29.6875-80.957L133.984-80.957Q133.691-83.6914 132.153-85.3271Q130.615-86.9629 127.637-86.9629L36.084-86.9629Q33.0566-86.9629 31.543-85.3271Q30.0293-83.6914 29.6875-80.957ZM41.9922-96.5332L121.68-96.5332Q121.533-99.1211 120.02-100.61Q118.506-102.1 115.674-102.1L47.998-102.1Q45.2148-102.1 43.6523-100.61Q42.0898-99.1211 41.9922-96.5332ZM42.1875 28.418L121.484 28.418Q120.605 22.5098 117.188 17.2852Q113.77 12.0605 108.423 8.03223Q103.076 4.00391 96.2646 1.7334Q89.4531-0.537109 81.8359-0.537109Q74.2188-0.537109 67.4316 1.7334Q60.6445 4.00391 55.2734 8.03223Q49.9023 12.0605 46.4844 17.2852Q43.0664 22.5098 42.1875 28.418ZM81.8359-9.91211Q87.2559-9.91211 91.6016-12.6953Q95.9473-15.4785 98.5107-20.2393Q101.074-25 101.074-31.0059Q101.074-36.6699 98.5107-41.3818Q95.9473-46.0938 91.6016-48.9014Q87.2559-51.709 81.8359-51.709Q76.4648-51.709 72.0947-48.9014Q67.7246-46.0938 65.1367-41.3818Q62.5488-36.6699 62.5977-31.0059Q62.5977-25 65.1611-20.2393Q67.7246-15.4785 72.0947-12.7197Q76.4648-9.96094 81.8359-9.91211Z"/>
  </g>
  <g id="Thin-L" transform="matrix(1 0 0 1 774.763 1556)">
   <path d="M32.666 29.3457L130.615 29.3457Q138.77 29.3457 143.018 25.0488Q147.266 20.752 147.266 12.7441L147.266-53.6621Q147.266-61.6699 143.018-65.9424Q138.77-70.2148 130.615-70.2148L32.666-70.2148Q24.5117-70.2148 20.2881-66.0156Q16.0645-61.8164 16.0645-53.6621L16.0645 12.7441Q16.0645 20.8984 20.2881 25.1221Q24.5117 29.3457 32.666 29.3457ZM32.8125 25.3906Q26.5137 25.3906 23.2666 22.1436Q20.0195 18.8965 20.0195 12.5488L20.0195-53.4668Q20.0195-59.8145 23.2666-63.0615Q26.5137-66.3086 32.8125-66.3086L130.469-66.3086Q136.572-66.3086 139.941-63.0615Q143.311-59.8145 143.311-53.4668L143.311 12.5488Q143.311 18.8965 139.941 22.1436Q136.572 25.3906 130.469 25.3906ZM29.9316-82.0801L133.398-82.0801Q133.35-83.6914 132.373-84.79Q131.396-85.8887 129.736-85.8887L33.5938-85.8887Q31.9336-85.8887 30.957-84.79Q29.9805-83.6914 29.9316-82.0801ZM41.6992-96.1914L121.582-96.1914Q121.582-97.7051 120.605-98.7793Q119.629-99.8535 118.018-99.8535L45.3613-99.8535Q43.7012-99.8535 42.7246-98.7793Q41.748-97.7051 41.6992-96.1914ZM41.7969 27.6855L121.582 27.6855Q120.996 21.9238 117.627 16.5527Q114.258 11.1816 108.789 6.95801Q103.32 2.73438 96.3867 0.268555Q89.4531-2.19727 81.6895-2.19727Q73.9258-2.19727 67.0166 0.268555Q60.1074 2.73438 54.6387 6.95801Q49.1699 11.1816 45.8008 16.5527Q42.4316 21.9238 41.7969 27.6855ZM81.6895-11.4746Q87.0117-11.4746 91.333-14.209Q95.6543-16.9434 98.1934-21.6553Q100.732-26.3672 100.732-32.2754Q100.732-37.8906 98.1934-42.5537Q95.6543-47.2168 91.333-50Q87.0117-52.7832 81.6895-52.7832Q76.3672-52.7832 72.0459-50Q67.7246-47.2168 65.1855-42.5537Q62.6465-37.8906 62.6953-32.2754Q62.6953-26.3672 65.21-21.6553Q67.7246-16.9434 72.0459-14.209Q76.3672-11.4746 81.6895-11.4746Z"/>
  </g>
  <g id="Ultralight-L" transform="matrix(1 0 0 1 478.139 1556)">
   <path d="M31.9824 28.2227L131.152 28.2227Q138.916 28.2227 142.993 24.0723Q147.07 19.9219 147.07 12.2559L147.07-54.4922Q147.07-62.1582 142.993-66.3086Q138.916-70.459 131.152-70.459L31.9824-70.459Q24.1699-70.459 20.1172-66.3818Q16.0645-62.3047 16.0645-54.4922L16.0645 12.2559Q16.0645 20.0684 20.1172 24.1455Q24.1699 28.2227 31.9824 28.2227ZM32.1289 25.6348Q25.4395 25.6348 22.0215 22.2412Q18.6035 18.8477 18.6035 12.1582L18.6035-54.3945Q18.6035-61.0352 22.0215-64.4531Q25.4395-67.8711 32.1289-67.8711L130.957-67.8711Q137.402-67.8711 140.967-64.4531Q144.531-61.0352 144.531-54.3945L144.531 12.1582Q144.531 18.8477 140.967 22.2412Q137.402 25.6348 130.957 25.6348ZM30.0293-82.666L133.057-82.666Q133.154-83.6426 132.471-84.4971Q131.787-85.3516 130.811-85.3516L32.373-85.3516Q31.3477-85.3516 30.6641-84.4971Q29.9805-83.6426 30.0293-82.666ZM41.5527-95.9961L121.533-95.9961Q121.582-96.9727 120.898-97.8516Q120.215-98.7305 119.189-98.7305L43.9453-98.7305Q42.9199-98.7305 42.2363-97.8516Q41.5527-96.9727 41.5527-95.9961ZM41.5527 27.3926L121.582 27.3926Q121.143 21.6309 117.798 16.1865Q114.453 10.7422 108.96 6.4209Q103.467 2.09961 96.4355-0.463867Q89.4043-3.02734 81.5918-3.02734Q73.7793-3.02734 66.7725-0.463867Q59.7656 2.09961 54.248 6.4209Q48.7305 10.7422 45.3857 16.1865Q42.041 21.6309 41.5527 27.3926ZM81.5918-12.207Q86.8652-12.2559 91.1621-14.9658Q95.459-17.6758 97.9736-22.3633Q100.488-27.0508 100.488-32.9102Q100.488-38.4766 97.9736-43.1152Q95.459-47.7539 91.1621-50.5371Q86.8652-53.3203 81.5918-53.3203Q76.2695-53.3203 71.9971-50.5371Q67.7246-47.7539 65.1855-43.1152Q62.6465-38.4766 62.6465-32.9102Q62.6465-27.0508 65.1855-22.3633Q67.7246-17.6758 71.9971-14.9414Q76.2695-12.207 81.5918-12.207Z"/>
  </g>
  <g id="Black-M" transform="matrix(1 0 0 1 2867.31 1126)">
   <path d="M31.5918 25.7324L100.537 25.7324Q109.619 25.7324 114.673 20.6787Q119.727 15.625 119.727 6.5918L119.727-43.9453Q119.727-53.0273 114.673-58.0566Q109.619-63.0859 100.537-63.0859L31.5918-63.0859Q22.5586-63.0859 17.5049-58.0566Q12.4512-53.0273 12.4512-43.9453L12.4512 6.5918Q12.4512 15.625 17.5049 20.6787Q22.5586 25.7324 31.5918 25.7324ZM34.2285 8.39844Q31.9824 8.39844 30.8838 7.37305Q29.7852 6.34766 29.7852 3.90625L29.7852-41.3086Q29.7852-43.7012 30.8838-44.7266Q31.9824-45.752 34.2285-45.752L97.9004-45.752Q100.146-45.752 101.245-44.7266Q102.344-43.7012 102.344-41.3086L102.344 3.90625Q102.344 6.34766 101.245 7.37305Q100.146 8.39844 97.9004 8.39844ZM25.1953-71.4355L106.982-71.4355Q106.592-75.5371 104.053-77.9541Q101.514-80.3711 96.6309-80.3711L35.5469-80.3711Q30.6152-80.3711 28.1006-77.9541Q25.5859-75.5371 25.1953-71.4355ZM34.6191-88.0371L97.5586-88.0371Q97.168-91.9434 94.6533-94.1162Q92.1387-96.2891 88.0371-96.2891L44.0918-96.2891Q39.9902-96.2891 37.4756-94.1162Q34.9609-91.9434 34.6191-88.0371ZM41.4551 13.4766L93.0664 13.4766Q91.748 9.96094 89.2578 7.10449Q86.7676 4.24805 83.374 2.19727Q79.9805 0.146484 75.8789-0.976562Q71.7773-2.09961 67.2363-2.09961Q62.6953-2.09961 58.6182-0.976562Q54.541 0.146484 51.123 2.19727Q47.7051 4.24805 45.2148 7.10449Q42.7246 9.96094 41.4551 13.4766ZM67.2363-7.37305Q71.4844-7.37305 74.8291-9.5459Q78.1738-11.7188 80.0781-15.3564Q81.9824-18.9941 81.9824-23.4863Q81.9824-27.6855 80.0293-31.2988Q78.0762-34.9121 74.7314-37.1094Q71.3867-39.3066 67.2363-39.3066Q63.1348-39.3066 59.79-37.1094Q56.4453-34.9121 54.4678-31.2988Q52.4902-27.6855 52.4902-23.4863Q52.4902-18.9941 54.4189-15.3564Q56.3477-11.7188 59.6924-9.5459Q63.0371-7.37305 67.2363-7.37305Z"/>
  </g>
  <g id="Heavy-M" transform="matrix(1 0 0 1 2571.19 1126)">
   <path d="M30.7129 24.0723L100.293 24.0723Q108.984 24.0723 113.77 19.3115Q118.555 14.5508 118.555 5.9082L118.555-44.5801Q118.555-53.2715 113.77-58.0078Q108.984-62.7441 100.293-62.7441L30.7129-62.7441Q21.9727-62.7441 17.2119-58.0078Q12.4512-53.2715 12.4512-44.5801L12.4512 5.9082Q12.4512 14.5996 17.2119 19.3359Q21.9727 24.0723 30.7129 24.0723ZM32.7148 8.98438Q30.127 8.98438 28.833 7.73926Q27.5391 6.49414 27.5391 3.71094L27.5391-42.4316Q27.5391-45.166 28.833-46.4111Q30.127-47.6562 32.7148-47.6562L98.2422-47.6562Q100.781-47.6562 102.1-46.4111Q103.418-45.166 103.418-42.4316L103.418 3.71094Q103.418 6.49414 102.1 7.73926Q100.781 8.98438 98.2422 8.98438ZM24.6094-70.9961L106.396-70.9961Q105.957-74.9023 103.613-77.1729Q101.27-79.4434 96.6797-79.4434L34.3262-79.4434Q29.7363-79.4434 27.3926-77.1729Q25.0488-74.9023 24.6094-70.9961ZM34.1797-86.8652L96.8262-86.8652Q96.4844-90.5762 94.1406-92.6025Q91.7969-94.6289 87.8418-94.6289L43.1152-94.6289Q39.1602-94.6289 36.8408-92.6025Q34.5215-90.5762 34.1797-86.8652ZM39.502 13.7695L93.3105 13.7695Q92.0898 10.0098 89.5508 6.90918Q87.0117 3.80859 83.4473 1.53809Q79.8828-0.732422 75.5615-1.95312Q71.2402-3.17383 66.4062-3.17383Q61.5723-3.17383 57.251-1.95312Q52.9297-0.732422 49.3652 1.53809Q45.8008 3.80859 43.2617 6.90918Q40.7227 10.0098 39.502 13.7695ZM66.4062-8.93555Q70.6543-8.93555 74.0234-11.1084Q77.3926-13.2812 79.3213-16.9434Q81.25-20.6055 81.25-25.1953Q81.25-29.4434 79.2725-33.0811Q77.2949-36.7188 73.9258-38.916Q70.5566-41.1133 66.4062-41.1133Q62.2559-41.1133 58.8867-38.916Q55.5176-36.7188 53.54-33.0811Q51.5625-29.4434 51.5625-25.1953Q51.5625-20.6055 53.5156-16.9678Q55.4688-13.3301 58.8379-11.1572Q62.207-8.98438 66.4062-8.93555Z"/>
  </g>
  <g id="Bold-M" transform="matrix(1 0 0 1 2275.13 1126)">
   <path d="M29.6875 22.2656L100 22.2656Q108.35 22.2656 112.793 17.8223Q117.236 13.3789 117.236 5.12695L117.236-45.2637Q117.236-53.5645 112.793-57.9834Q108.35-62.4023 100-62.4023L29.6875-62.4023Q21.3379-62.4023 16.8945-57.9834Q12.4512-53.5645 12.4512-45.2637L12.4512 5.12695Q12.4512 13.4277 16.8945 17.8467Q21.3379 22.2656 29.6875 22.2656ZM31.0547 9.66797Q28.125 9.66797 26.5869 8.17871Q25.0488 6.68945 25.0488 3.56445L25.0488-43.7012Q25.0488-46.8262 26.5869-48.3154Q28.125-49.8047 31.0547-49.8047L98.584-49.8047Q101.514-49.8047 103.076-48.3154Q104.639-46.8262 104.639-43.7012L104.639 3.56445Q104.639 6.68945 103.076 8.17871Q101.514 9.66797 98.584 9.66797ZM23.9746-70.5078L105.762-70.5078Q105.273-74.2188 103.125-76.3184Q100.977-78.418 96.7285-78.418L33.0078-78.418Q28.7109-78.418 26.5869-76.3184Q24.4629-74.2188 23.9746-70.5078ZM33.7402-85.5469L95.9961-85.5469Q95.7031-89.0625 93.5547-90.9424Q91.4062-92.8223 87.6465-92.8223L42.041-92.8223Q38.2812-92.8223 36.1328-90.9424Q33.9844-89.0625 33.7402-85.5469ZM37.3047 14.1113L93.6035 14.1113Q92.4805 10.0098 89.8682 6.64062Q87.2559 3.27148 83.5449 0.78125Q79.834-1.70898 75.2197-3.05176Q70.6055-4.39453 65.4297-4.39453Q60.3027-4.39453 55.7129-3.05176Q51.123-1.70898 47.3877 0.78125Q43.6523 3.27148 41.04 6.64062Q38.4277 10.0098 37.3047 14.1113ZM65.4297-10.7422Q69.6777-10.6934 73.0713-12.8906Q76.4648-15.0879 78.4424-18.7744Q80.4199-22.4609 80.4199-27.0996Q80.4199-31.3965 78.418-35.0586Q76.416-38.7207 73.0225-40.918Q69.6289-43.1152 65.4297-43.1152Q61.2793-43.1152 57.8857-40.918Q54.4922-38.7207 52.4902-35.0586Q50.4883-31.3965 50.4883-27.0996Q50.5371-22.4609 52.4902-18.7744Q54.4434-15.0879 57.8369-12.915Q61.2305-10.7422 65.4297-10.7422Z"/>
  </g>
  <g id="Semibold-M" transform="matrix(1 0 0 1 1978.88 1126)">
   <path d="M29.0039 20.9473L99.7559 20.9473Q107.861 20.9473 112.085 16.748Q116.309 12.5488 116.309 4.54102L116.309-45.7031Q116.309-53.7109 112.085-57.9102Q107.861-62.1094 99.7559-62.1094L29.0039-62.1094Q20.8984-62.1094 16.6748-57.9346Q12.4512-53.7598 12.4512-45.7031L12.4512 4.54102Q12.4512 12.5977 16.6748 16.7725Q20.8984 20.9473 29.0039 20.9473ZM29.8828 10.1074Q26.709 10.1074 25.0244 8.44727Q23.3398 6.78711 23.3398 3.41797L23.3398-44.5801Q23.3398-47.9492 25.0244-49.6094Q26.709-51.2695 29.8828-51.2695L98.8281-51.2695Q102.002-51.2695 103.711-49.6094Q105.42-47.9492 105.42-44.5801L105.42 3.41797Q105.42 6.78711 103.711 8.44727Q102.002 10.1074 98.8281 10.1074ZM23.5352-70.1172L105.273-70.1172Q104.736-73.6816 102.759-75.6836Q100.781-77.6855 96.7285-77.6855L32.0801-77.6855Q28.0273-77.6855 26.0254-75.6836Q24.0234-73.6816 23.5352-70.1172ZM33.3984-84.6191L95.4102-84.6191Q95.1172-88.0371 93.1152-89.7949Q91.1133-91.5527 87.5-91.5527L41.2598-91.5527Q37.6465-91.5527 35.6445-89.7949Q33.6426-88.0371 33.3984-84.6191ZM35.791 14.4043L93.7988 14.4043Q92.7246 10.0586 90.0879 6.49414Q87.4512 2.92969 83.5938 0.292969Q79.7363-2.34375 74.9512-3.78418Q70.166-5.22461 64.7461-5.22461Q59.375-5.22461 54.6143-3.78418Q49.8535-2.34375 45.9961 0.292969Q42.1387 2.92969 39.502 6.49414Q36.8652 10.0586 35.791 14.4043ZM64.7461-11.9141Q68.9941-11.8652 72.4121-14.0625Q75.8301-16.2598 77.832-19.9707Q79.834-23.6816 79.834-28.3691Q79.834-32.7148 77.832-36.4014Q75.8301-40.0879 72.4121-42.2852Q68.9941-44.4824 64.7461-44.4824Q60.5957-44.4824 57.1777-42.2852Q53.7598-40.0879 51.7578-36.4014Q49.7559-32.7148 49.7559-28.3691Q49.8047-23.6816 51.7822-19.9951Q53.7598-16.3086 57.1533-14.1357Q60.5469-11.9629 64.7461-11.9141Z"/>
  </g>
  <g id="Medium-M" transform="matrix(1 0 0 1 1682.51 1126)">
   <path d="M28.4668 20.0195L99.6094 20.0195Q107.52 20.0195 111.572 15.9912Q115.625 11.9629 115.625 4.15039L115.625-46.0449Q115.625-53.8574 111.572-57.8857Q107.52-61.9141 99.6094-61.9141L28.4668-61.9141Q20.5566-61.9141 16.5039-57.9102Q12.4512-53.9062 12.4512-46.0449L12.4512 4.15039Q12.4512 11.9629 16.5039 15.9912Q20.5566 20.0195 28.4668 20.0195ZM29.0039 10.4492Q25.6348 10.4492 23.8281 8.66699Q22.0215 6.88477 22.0215 3.32031L22.0215-45.2148Q22.0215-48.7793 23.8281-50.5615Q25.6348-52.3438 29.0039-52.3438L99.0234-52.3438Q102.393-52.3438 104.224-50.5615Q106.055-48.7793 106.055-45.2148L106.055 3.32031Q106.055 6.88477 104.224 8.66699Q102.393 10.4492 99.0234 10.4492ZM23.1934-69.873L104.932-69.873Q104.395-73.3398 102.515-75.2441Q100.635-77.1484 96.7285-77.1484L31.3965-77.1484Q27.4902-77.1484 25.5859-75.2441Q23.6816-73.3398 23.1934-69.873ZM33.1543-83.9355L95.0195-83.9355Q94.7266-87.207 92.8223-88.916Q90.918-90.625 87.4023-90.625L40.6738-90.625Q37.207-90.625 35.2783-88.916Q33.3496-87.207 33.1543-83.9355ZM34.668 14.5508L93.9453 14.5508Q92.9199 10.0586 90.2588 6.34766Q87.5977 2.63672 83.667-0.12207Q79.7363-2.88086 74.8047-4.37012Q69.873-5.85938 64.3066-5.85938Q58.7402-5.85938 53.833-4.37012Q48.9258-2.88086 44.9707-0.12207Q41.0156 2.63672 38.3545 6.34766Q35.6934 10.0586 34.668 14.5508ZM64.3066-12.8906Q68.5547-12.8418 71.9727-15.0391Q75.3906-17.2363 77.3926-20.9717Q79.3945-24.707 79.3945-29.3945Q79.3945-33.7891 77.3926-37.4756Q75.3906-41.1621 71.9482-43.3594Q68.5059-45.5566 64.3066-45.5566Q60.1074-45.5566 56.6895-43.3594Q53.2715-41.1621 51.2451-37.4756Q49.2188-33.7891 49.2188-29.3945Q49.2676-24.707 51.2451-20.9717Q53.2227-17.2363 56.665-15.0635Q60.1074-12.8906 64.3066-12.8906Z"/>
  </g>
  <g id="Regular-M" transform="matrix(1 0 0 1 1386.25 1126)">
   <path d="M27.7832 18.75L99.4141 18.75Q107.031 18.75 110.889 14.9414Q114.746 11.1328 114.746 3.61328L114.746-46.5332Q114.746-54.0527 110.889-57.8613Q107.031-61.6699 99.4141-61.6699L27.7832-61.6699Q20.1172-61.6699 16.2842-57.8857Q12.4512-54.1016 12.4512-46.5332L12.4512 3.61328Q12.4512 11.1816 16.2842 14.9658Q20.1172 18.75 27.7832 18.75ZM27.8809 10.8887Q24.2188 10.8887 22.2656 8.93555Q20.3125 6.98242 20.3125 3.17383L20.3125-46.0938Q20.3125-49.9023 22.2656-51.8555Q24.2188-53.8086 27.8809-53.8086L99.2676-53.8086Q102.881-53.8086 104.883-51.8555Q106.885-49.9023 106.885-46.0938L106.885 3.17383Q106.885 6.98242 104.883 8.93555Q102.881 10.8887 99.2676 10.8887ZM22.7539-69.5312L104.492-69.5312Q103.906-72.8516 102.173-74.6338Q100.439-76.416 96.7773-76.416L30.4688-76.416Q26.8066-76.416 25.0488-74.6338Q23.291-72.8516 22.7539-69.5312ZM32.8125-83.0566L94.4336-83.0566Q94.1895-86.1816 92.4072-87.7686Q90.625-89.3555 87.2559-89.3555L39.9414-89.3555Q36.5723-89.3555 34.79-87.7686Q33.0078-86.1816 32.8125-83.0566ZM33.1543 14.7949L94.1406 14.7949Q93.1641 10.1074 90.4541 6.20117Q87.7441 2.29492 83.6914-0.610352Q79.6387-3.51562 74.5361-5.10254Q69.4336-6.68945 63.623-6.68945Q57.8613-6.68945 52.7588-5.10254Q47.6562-3.51562 43.6035-0.610352Q39.5508 2.29492 36.8408 6.20117Q34.1309 10.1074 33.1543 14.7949ZM63.623-14.0625Q67.8711-14.0137 71.3135-16.2109Q74.7559-18.4082 76.7822-22.168Q78.8086-25.9277 78.8086-30.6641Q78.8086-35.1074 76.7822-38.8184Q74.7559-42.5293 71.3135-44.7266Q67.8711-46.9238 63.623-46.9238Q59.4238-46.9238 55.9814-44.7266Q52.5391-42.5293 50.5127-38.8184Q48.4863-35.1074 48.4863-30.6641Q48.5352-25.9277 50.5371-22.1924Q52.5391-18.457 55.9814-16.2842Q59.4238-14.1113 63.623-14.0625Z"/>
  </g>
  <g id="Light-M" transform="matrix(1 0 0 1 1089.66 1126)">
   <path d="M26.8555 17.2363L100.098 17.2363Q107.227 17.2363 110.864 13.623Q114.502 10.0098 114.502 2.97852L114.502-47.6562Q114.502-54.6875 110.864-58.3008Q107.227-61.9141 100.098-61.9141L26.8555-61.9141Q19.6777-61.9141 16.0645-58.3252Q12.4512-54.7363 12.4512-47.6562L12.4512 2.97852Q12.4512 10.0586 16.0645 13.6475Q19.6777 17.2363 26.8555 17.2363ZM26.9531 11.2305Q22.8027 11.2305 20.6543 9.05762Q18.5059 6.88477 18.5059 2.63672L18.5059-47.3145Q18.5059-51.5625 20.6543-53.7354Q22.8027-55.9082 26.9531-55.9082L99.9512-55.9082Q104.004-55.9082 106.25-53.7354Q108.496-51.5625 108.496-47.3145L108.496 2.63672Q108.496 6.88477 106.25 9.05762Q104.004 11.2305 99.9512 11.2305ZM22.9004-70.2637L104.053-70.2637Q103.662-72.8027 102.319-74.2432Q100.977-75.6836 98.1934-75.6836L28.8086-75.6836Q26.0254-75.6836 24.6582-74.2432Q23.291-72.8027 22.9004-70.2637ZM32.6172-82.8125L94.3359-82.8125Q94.1895-85.2051 92.7979-86.5234Q91.4062-87.8418 88.8184-87.8418L38.1348-87.8418Q35.5469-87.8418 34.1553-86.5234Q32.7637-85.2051 32.6172-82.8125ZM32.8613 14.3066L94.1895 14.3066Q93.4082 9.7168 90.7227 5.71289Q88.0371 1.70898 83.9111-1.34277Q79.7852-4.39453 74.585-6.10352Q69.3848-7.8125 63.4766-7.8125Q57.666-7.8125 52.4658-6.10352Q47.2656-4.39453 43.1396-1.34277Q39.0137 1.70898 36.3281 5.71289Q33.6426 9.7168 32.8613 14.3066ZM63.4766-15.0879Q67.6758-15.0391 71.0938-17.2119Q74.5117-19.3848 76.5137-23.1201Q78.5156-26.8555 78.5156-31.543Q78.5156-35.9375 76.5137-39.5996Q74.5117-43.2617 71.0938-45.459Q67.6758-47.6562 63.4766-47.6562Q59.3262-47.6562 55.9326-45.459Q52.5391-43.2617 50.5371-39.5996Q48.5352-35.9375 48.5352-31.543Q48.5352-26.8555 50.5371-23.1445Q52.5391-19.4336 55.9326-17.2852Q59.3262-15.1367 63.4766-15.0879Z"/>
  </g>
  <g id="Thin-M" transform="matrix(1 0 0 1 793.105 1126)">
   <path d="M25.5859 15.2832L101.025 15.2832Q107.471 15.2832 110.815 11.9141Q114.16 8.54492 114.16 2.14844L114.16-49.1211Q114.16-55.5176 110.815-58.8867Q107.471-62.2559 101.025-62.2559L25.5859-62.2559Q19.1406-62.2559 15.7959-58.9355Q12.4512-55.6152 12.4512-49.1211L12.4512 2.14844Q12.4512 8.59375 15.7959 11.9385Q19.1406 15.2832 25.5859 15.2832ZM25.7324 11.6699Q20.9961 11.6699 18.5547 9.2041Q16.1133 6.73828 16.1133 1.95312L16.1133-48.9258Q16.1133-53.7109 18.5547-56.1768Q20.9961-58.6426 25.7324-58.6426L100.879-58.6426Q105.469-58.6426 108.032-56.1768Q110.596-53.7109 110.596-48.9258L110.596 1.95312Q110.596 6.73828 108.032 9.2041Q105.469 11.6699 100.879 11.6699ZM23.1445-71.2891L103.516-71.2891Q103.369-72.8027 102.515-73.7549Q101.66-74.707 100.098-74.707L26.5625-74.707Q25-74.707 24.1211-73.7549Q23.2422-72.8027 23.1445-71.2891ZM32.373-82.5195L94.2383-82.5195Q94.2383-83.9844 93.335-84.8877Q92.4316-85.791 90.918-85.791L35.7422-85.791Q34.1797-85.791 33.3008-84.8877Q32.4219-83.9844 32.373-82.5195ZM32.4707 13.6719L94.2383 13.6719Q93.6523 9.17969 91.04 5.05371Q88.4277 0.927734 84.2285-2.29492Q80.0293-5.51758 74.6826-7.39746Q69.3359-9.27734 63.3301-9.27734Q57.373-9.27734 52.0264-7.39746Q46.6797-5.51758 42.4805-2.29492Q38.2812 0.927734 35.6445 5.05371Q33.0078 9.17969 32.4707 13.6719ZM63.3301-16.4551Q67.4805-16.4551 70.8496-18.6035Q74.2188-20.752 76.1963-24.3896Q78.1738-28.0273 78.1738-32.666Q78.1738-37.0117 76.1963-40.6494Q74.2188-44.2871 70.8496-46.4355Q67.4805-48.584 63.3301-48.584Q59.1797-48.584 55.835-46.4355Q52.4902-44.2871 50.5127-40.6494Q48.5352-37.0117 48.5352-32.666Q48.5352-28.0273 50.5127-24.3652Q52.4902-20.7031 55.835-18.5791Q59.1797-16.4551 63.3301-16.4551Z"/>
  </g>
  <g id="Ultralight-M" transform="matrix(1 0 0 1 496.476 1126)">
   <path d="M24.9512 14.2578L101.514 14.2578Q107.617 14.2578 110.815 11.0107Q114.014 7.76367 114.014 1.70898L114.014-49.9023Q114.014-55.957 110.815-59.2041Q107.617-62.4512 101.514-62.4512L24.9512-62.4512Q18.8477-62.4512 15.6494-59.2529Q12.4512-56.0547 12.4512-49.9023L12.4512 1.70898Q12.4512 7.86133 15.6494 11.0596Q18.8477 14.2578 24.9512 14.2578ZM25.0977 11.8652Q20.0195 11.8652 17.4316 9.25293Q14.8438 6.64062 14.8438 1.5625L14.8438-49.7559Q14.8438-54.834 17.4316-57.4463Q20.0195-60.0586 25.0977-60.0586L101.367-60.0586Q106.25-60.0586 108.96-57.4463Q111.67-54.834 111.67-49.7559L111.67 1.5625Q111.67 6.64062 108.96 9.25293Q106.25 11.8652 101.367 11.8652ZM23.2422-71.7773L103.223-71.7773Q103.223-72.7539 102.637-73.4863Q102.051-74.2188 101.025-74.2188L25.4395-74.2188Q24.5117-74.2188 23.877-73.4863Q23.2422-72.7539 23.2422-71.7773ZM32.2754-82.373L94.1895-82.373Q94.2383-83.3008 93.6035-84.0332Q92.9688-84.7656 91.9922-84.7656L34.4727-84.7656Q33.4961-84.7656 32.8613-84.0332Q32.2266-83.3008 32.2754-82.373ZM32.2754 13.3789L94.2383 13.3789Q93.8477 8.93555 91.2354 4.76074Q88.623 0.585938 84.375-2.75879Q80.127-6.10352 74.707-8.05664Q69.2871-10.0098 63.2324-10.0098Q57.2266-10.0098 51.8311-8.05664Q46.4355-6.10352 42.1631-2.75879Q37.8906 0.585938 35.3027 4.76074Q32.7148 8.93555 32.2754 13.3789ZM63.2324-17.1387Q67.334-17.1387 70.7031-19.2627Q74.0723-21.3867 76.0254-25.0244Q77.9785-28.6621 77.9785-33.252Q77.9785-37.5488 76.0254-41.1621Q74.0723-44.7754 70.7031-46.9238Q67.334-49.0723 63.2324-49.0723Q59.1309-49.0723 55.8105-46.9238Q52.4902-44.7754 50.5371-41.1621Q48.584-37.5488 48.584-33.252Q48.584-28.6621 50.5371-25.0244Q52.4902-21.3867 55.8105-19.2627Q59.1309-17.1387 63.2324-17.1387Z"/>
  </g>
  <g id="Black-S" transform="matrix(1 0 0 1 2881.45 696)">
   <path d="M25 12.9395L78.9062 12.9395Q86.084 12.9395 90.1123 8.91113Q94.1406 4.88281 94.1406-2.29492L94.1406-41.9434Q94.1406-49.1211 90.1123-53.1494Q86.084-57.1777 78.9062-57.1777L25-57.1777Q17.8223-57.1777 13.7939-53.1494Q9.76562-49.1211 9.76562-41.9434L9.76562-2.29492Q9.76562 4.88281 13.7939 8.91113Q17.8223 12.9395 25 12.9395ZM27.2461-1.2207Q25.5859-1.2207 24.7559-1.97754Q23.9258-2.73438 23.9258-4.54102L23.9258-39.6973Q23.9258-41.5527 24.7559-42.2852Q25.5859-43.0176 27.2461-43.0176L76.6602-43.0176Q78.3691-43.0176 79.1748-42.2852Q79.9805-41.5527 79.9805-39.6973L79.9805-4.54102Q79.9805-2.73438 79.1748-1.97754Q78.3691-1.2207 76.6602-1.2207ZM19.9219-63.7695L83.9844-63.7695Q83.6914-66.9922 81.6895-68.9209Q79.6875-70.8496 75.7812-70.8496L28.125-70.8496Q24.2676-70.8496 22.2412-68.9209Q20.2148-66.9922 19.9219-63.7695ZM27.2461-76.9531L76.6602-76.9531Q76.3672-80.0293 74.3652-81.7627Q72.3633-83.4961 69.1406-83.4961L34.7656-83.4961Q31.543-83.4961 29.541-81.7627Q27.5391-80.0293 27.2461-76.9531ZM33.0566 2.83203L72.8516 2.83203Q71.4844-0.732422 68.5303-3.39355Q65.5762-6.05469 61.5723-7.51953Q57.5684-8.98438 52.9297-8.98438Q48.3398-8.98438 44.3115-7.51953Q40.2832-6.05469 37.3535-3.39355Q34.4238-0.732422 33.0566 2.83203ZM52.9297-12.9883Q56.25-12.9883 58.8623-14.6729Q61.4746-16.3574 62.9639-19.2139Q64.4531-22.0703 64.4531-25.5371Q64.4531-28.8574 62.915-31.665Q61.377-34.4727 58.7891-36.1816Q56.2012-37.8906 52.9297-37.8906Q49.707-37.8906 47.0947-36.1816Q44.4824-34.4727 42.9443-31.665Q41.4062-28.8574 41.4062-25.5371Q41.4062-22.0703 42.9199-19.2139Q44.4336-16.3574 47.0459-14.6729Q49.6582-12.9883 52.9297-12.9883Z"/>
  </g>
  <g id="Heavy-S" transform="matrix(1 0 0 1 2585.23 696)">
   <path d="M24.3652 11.7188L78.5645 11.7188Q85.5469 11.7188 89.3555 7.91016Q93.1641 4.10156 93.1641-2.83203L93.1641-42.334Q93.1641-49.2676 89.3555-53.0518Q85.5469-56.8359 78.5645-56.8359L24.3652-56.8359Q17.3828-56.8359 13.5742-53.0518Q9.76562-49.2676 9.76562-42.334L9.76562-2.83203Q9.76562 4.10156 13.5742 7.91016Q17.3828 11.7188 24.3652 11.7188ZM26.0742-0.78125Q24.1699-0.78125 23.2178-1.68457Q22.2656-2.58789 22.2656-4.63867L22.2656-40.5273Q22.2656-42.5781 23.2178-43.4814Q24.1699-44.3848 26.0742-44.3848L76.8555-44.3848Q78.7598-44.3848 79.7119-43.4814Q80.6641-42.5781 80.6641-40.5273L80.6641-4.63867Q80.6641-2.58789 79.7119-1.68457Q78.7598-0.78125 76.8555-0.78125ZM19.4336-63.2812L83.5449-63.2812Q83.2031-66.4551 81.2988-68.3105Q79.3945-70.166 75.6348-70.166L27.2949-70.166Q23.584-70.166 21.6797-68.3105Q19.7754-66.4551 19.4336-63.2812ZM26.9043-75.9766L76.0254-75.9766Q75.7812-79.0039 73.877-80.6396Q71.9727-82.2754 68.7988-82.2754L34.1309-82.2754Q30.957-82.2754 29.0771-80.6396Q27.1973-79.0039 26.9043-75.9766ZM31.3965 3.125L73.0469 3.125Q71.7285-0.732422 68.6768-3.66211Q65.625-6.5918 61.377-8.20312Q57.1289-9.81445 52.1973-9.81445Q47.2656-9.81445 43.0176-8.20312Q38.7695-6.5918 35.7422-3.66211Q32.7148-0.732422 31.3965 3.125ZM52.1973-14.209Q55.5176-14.209 58.1543-15.918Q60.791-17.627 62.3047-20.5078Q63.8184-23.3887 63.8184-26.9043Q63.8184-30.2734 62.2803-33.1055Q60.7422-35.9375 58.1055-37.6465Q55.4688-39.3555 52.1973-39.3555Q48.9258-39.3555 46.2891-37.6465Q43.6523-35.9375 42.1143-33.1055Q40.5762-30.2734 40.5762-26.9043Q40.5762-23.3887 42.1143-20.5078Q43.6523-17.627 46.2891-15.9424Q48.9258-14.2578 52.1973-14.209Z"/>
  </g>
  <g id="Bold-S" transform="matrix(1 0 0 1 2289.06 696)">
   <path d="M23.6328 10.3516L78.2227 10.3516Q84.9609 10.3516 88.5254 6.81152Q92.0898 3.27148 92.0898-3.41797L92.0898-42.7734Q92.0898-49.4141 88.5254-52.9541Q84.9609-56.4941 78.2227-56.4941L23.6328-56.4941Q16.8945-56.4941 13.3301-52.9541Q9.76562-49.4141 9.76562-42.7734L9.76562-3.41797Q9.76562 3.27148 13.3301 6.81152Q16.8945 10.3516 23.6328 10.3516ZM24.8047-0.244141Q22.6562-0.244141 21.5088-1.34277Q20.3613-2.44141 20.3613-4.73633L20.3613-41.4551Q20.3613-43.75 21.5088-44.8242Q22.6562-45.8984 24.8047-45.8984L77.0508-45.8984Q79.248-45.8984 80.3711-44.8242Q81.4941-43.75 81.4941-41.4551L81.4941-4.73633Q81.4941-2.44141 80.3711-1.34277Q79.248-0.244141 77.0508-0.244141ZM18.8477-62.7441L83.0566-62.7441Q82.6172-65.8691 80.835-67.627Q79.0527-69.3848 75.4883-69.3848L26.416-69.3848Q22.8516-69.3848 21.0449-67.627Q19.2383-65.8691 18.8477-62.7441ZM26.5137-74.9023L75.3418-74.9023Q75.0977-77.832 73.3154-79.3945Q71.5332-80.957 68.4082-80.957L33.4961-80.957Q30.3711-80.957 28.5889-79.3945Q26.8066-77.832 26.5137-74.9023ZM29.5898 3.51562L73.291 3.51562Q72.0703-0.732422 68.8965-3.93066Q65.7227-7.12891 61.2305-8.88672Q56.7383-10.6445 51.4648-10.6445Q46.1426-10.6445 41.6504-8.88672Q37.1582-7.12891 34.0088-3.93066Q30.8594-0.732422 29.5898 3.51562ZM51.4648-15.5762Q54.7852-15.5762 57.4463-17.2607Q60.1074-18.9453 61.6455-21.875Q63.1836-24.8047 63.1836-28.3691Q63.1836-31.7871 61.6211-34.6436Q60.0586-37.5 57.3975-39.2334Q54.7363-40.9668 51.4648-40.9668Q48.1445-40.9668 45.4834-39.2334Q42.8223-37.5 41.2598-34.6436Q39.6973-31.7871 39.6973-28.3691Q39.6973-24.8047 41.2598-21.8994Q42.8223-18.9941 45.4834-17.2852Q48.1445-15.5762 51.4648-15.5762Z"/>
  </g>
  <g id="Semibold-S" transform="matrix(1 0 0 1 1992.73 696)">
   <path d="M23.0957 9.42383L77.9785 9.42383Q84.5215 9.42383 87.915 6.05469Q91.3086 2.68555 91.3086-3.80859L91.3086-43.0664Q91.3086-49.5117 87.915-52.8809Q84.5215-56.25 77.9785-56.25L23.0957-56.25Q16.5527-56.25 13.1592-52.8809Q9.76562-49.5117 9.76562-43.0664L9.76562-3.80859Q9.76562 2.68555 13.1592 6.05469Q16.5527 9.42383 23.0957 9.42383ZM23.877 0.0976562Q21.5332 0.0976562 20.2881-1.09863Q19.043-2.29492 19.043-4.78516L19.043-42.041Q19.043-44.5312 20.2881-45.7275Q21.5332-46.9238 23.877-46.9238L77.1973-46.9238Q79.541-46.9238 80.7861-45.7275Q82.0312-44.5312 82.0312-42.041L82.0312-4.78516Q82.0312-2.29492 80.7861-1.09863Q79.541 0.0976562 77.1973 0.0976562ZM18.457-62.3535L82.666-62.3535Q82.2266-65.4785 80.5176-67.1387Q78.8086-68.7988 75.3418-68.7988L25.7812-68.7988Q22.3145-68.7988 20.6055-67.1387Q18.8965-65.4785 18.457-62.3535ZM26.2695-74.1211L74.8535-74.1211Q74.6582-77.002 72.9248-78.4912Q71.1914-79.9805 68.1152-79.9805L33.0078-79.9805Q29.9316-79.9805 28.2227-78.4912Q26.5137-77.002 26.2695-74.1211ZM28.2715 3.75977L73.3887 3.75977Q72.2168-0.732422 68.9697-4.12598Q65.7227-7.51953 61.0596-9.39941Q56.3965-11.2793 50.8301-11.2793Q45.2637-11.2793 40.6006-9.39941Q35.9375-7.51953 32.7148-4.12598Q29.4922-0.732422 28.2715 3.75977ZM50.8301-16.5039Q54.1504-16.5039 56.8359-18.2129Q59.5215-19.9219 61.084-22.8516Q62.6465-25.7812 62.6465-29.3945Q62.6465-32.8613 61.0596-35.7422Q59.4727-38.623 56.8115-40.3564Q54.1504-42.0898 50.8301-42.0898Q47.5098-42.0898 44.8242-40.3564Q42.1387-38.623 40.5762-35.7422Q39.0137-32.8613 39.0137-29.3945Q39.0137-25.7812 40.6006-22.8516Q42.1875-19.9219 44.8486-18.2373Q47.5098-16.5527 50.8301-16.5039Z"/>
  </g>
  <g id="Medium-S" transform="matrix(1 0 0 1 1696.3 696)">
   <path d="M22.7051 8.69141L77.7832 8.69141Q84.1797 8.69141 87.4512 5.46875Q90.7227 2.24609 90.7227-4.10156L90.7227-43.2617Q90.7227-49.6094 87.4512-52.832Q84.1797-56.0547 77.7832-56.0547L22.7051-56.0547Q16.3086-56.0547 13.0371-52.832Q9.76562-49.6094 9.76562-43.2617L9.76562-4.10156Q9.76562 2.24609 13.0371 5.46875Q16.3086 8.69141 22.7051 8.69141ZM23.1934 0.390625Q20.752 0.390625 19.4092-0.90332Q18.0664-2.19727 18.0664-4.83398L18.0664-42.5293Q18.0664-45.166 19.4092-46.46Q20.752-47.7539 23.1934-47.7539L77.2949-47.7539Q79.7852-47.7539 81.1035-46.46Q82.4219-45.166 82.4219-42.5293L82.4219-4.83398Q82.4219-2.19727 81.1035-0.90332Q79.7852 0.390625 77.2949 0.390625ZM18.1641-62.1094L82.4219-62.1094Q81.9336-65.1367 80.2979-66.7725Q78.6621-68.4082 75.2441-68.4082L25.3418-68.4082Q21.9238-68.4082 20.2637-66.7725Q18.6035-65.1367 18.1641-62.1094ZM26.0254-73.5352L74.5117-73.5352Q74.2676-76.3672 72.6074-77.832Q70.9473-79.2969 67.9199-79.2969L32.666-79.2969Q29.5898-79.2969 27.9541-77.832Q26.3184-76.3672 26.0254-73.5352ZM27.3438 3.90625L73.5352 3.90625Q72.3633-0.732422 69.0674-4.27246Q65.7715-7.8125 60.9863-9.76562Q56.2012-11.7188 50.4395-11.7188Q44.7266-11.7188 39.917-9.76562Q35.1074-7.8125 31.8115-4.27246Q28.5156-0.732422 27.3438 3.90625ZM50.4395-17.2363Q53.7598-17.2363 56.4697-18.9453Q59.1797-20.6543 60.7422-23.6084Q62.3047-26.5625 62.3047-30.2246Q62.3047-33.6914 60.7178-36.5723Q59.1309-39.4531 56.4453-41.1865Q53.7598-42.9199 50.4395-42.9199Q47.1191-42.9199 44.4336-41.1865Q41.748-39.4531 40.1611-36.5723Q38.5742-33.6914 38.5742-30.2246Q38.5742-26.5625 40.1611-23.6084Q41.748-20.6543 44.4336-18.9697Q47.1191-17.2852 50.4395-17.2363Z"/>
  </g>
  <g id="Regular-S" transform="matrix(1 0 0 1 1399.97 696)">
   <path d="M22.2168 7.76367L77.5391 7.76367Q83.7891 7.76367 86.8896 4.71191Q89.9902 1.66016 89.9902-4.49219L89.9902-43.5547Q89.9902-49.707 86.8896-52.7588Q83.7891-55.8105 77.5391-55.8105L22.2168-55.8105Q15.9668-55.8105 12.8662-52.7588Q9.76562-49.707 9.76562-43.5547L9.76562-4.49219Q9.76562 1.66016 12.8662 4.71191Q15.9668 7.76367 22.2168 7.76367ZM22.3145 0.732422Q19.6777 0.732422 18.2373-0.683594Q16.7969-2.09961 16.7969-4.88281L16.7969-43.1641Q16.7969-45.9473 18.2373-47.3633Q19.6777-48.7793 22.3145-48.7793L77.4414-48.7793Q80.0781-48.7793 81.5186-47.3633Q82.959-45.9473 82.959-43.1641L82.959-4.88281Q82.959-2.09961 81.5186-0.683594Q80.0781 0.732422 77.4414 0.732422ZM17.7734-61.7188L82.0801-61.7188Q81.543-64.7461 79.9805-66.3086Q78.418-67.8711 75.1465-67.8711L24.707-67.8711Q21.3867-67.8711 19.8242-66.3086Q18.2617-64.7461 17.7734-61.7188ZM25.7812-72.8027L74.0234-72.8027Q73.8281-75.5859 72.2412-76.9775Q70.6543-78.3691 67.627-78.3691L32.1777-78.3691Q29.1504-78.3691 27.5879-76.9775Q26.0254-75.5859 25.7812-72.8027ZM26.0742 4.15039L73.6816 4.15039Q72.5586-0.732422 69.1895-4.46777Q65.8203-8.20312 60.8398-10.2783Q55.8594-12.3535 49.9023-12.3535Q43.8965-12.3535 38.916-10.2783Q33.9355-8.20312 30.5664-4.46777Q27.1973-0.732422 26.0742 4.15039ZM49.9023-18.1641Q53.2227-18.1641 55.9326-19.873Q58.6426-21.582 60.2295-24.5605Q61.8164-27.5391 61.8164-31.25Q61.8164-34.7656 60.2295-37.6709Q58.6426-40.5762 55.9326-42.3096Q53.2227-44.043 49.9023-44.043Q46.5332-44.043 43.8232-42.3096Q41.1133-40.5762 39.5264-37.6709Q37.9395-34.7656 37.9395-31.25Q37.9395-27.5391 39.5508-24.585Q41.1621-21.6309 43.8477-19.9219Q46.5332-18.2129 49.9023-18.1641Z"/>
  </g>
  <g id="Light-S" transform="matrix(1 0 0 1 1103.35 696)">
   <path d="M21.3867 6.44531L78.1738 6.44531Q83.9355 6.44531 86.8652 3.56445Q89.7949 0.683594 89.7949-5.0293L89.7949-44.5312Q89.7949-50.2441 86.8652-53.1494Q83.9355-56.0547 78.1738-56.0547L21.3867-56.0547Q15.5762-56.0547 12.6709-53.1738Q9.76562-50.293 9.76562-44.5312L9.76562-5.0293Q9.76562 0.683594 12.6709 3.56445Q15.5762 6.44531 21.3867 6.44531ZM21.4844 1.02539Q18.457 1.02539 16.8213-0.585938Q15.1855-2.19727 15.1855-5.37109L15.1855-44.2383Q15.1855-47.4121 16.8213-49.0234Q18.457-50.6348 21.4844-50.6348L78.0762-50.6348Q81.0547-50.6348 82.7148-49.0234Q84.375-47.4121 84.375-44.2383L84.375-5.37109Q84.375-2.19727 82.7148-0.585938Q81.0547 1.02539 78.0762 1.02539ZM17.9199-62.4023L81.6895-62.4023Q81.3477-64.6973 80.127-65.9668Q78.9062-67.2363 76.416-67.2363L23.2422-67.2363Q20.7031-67.2363 19.4824-65.9668Q18.2617-64.6973 17.9199-62.4023ZM25.6348-72.6074L73.9746-72.6074Q73.8281-74.7559 72.583-75.8789Q71.3379-77.002 69.043-77.002L30.5664-77.002Q28.2227-77.002 27.002-75.8789Q25.7812-74.7559 25.6348-72.6074ZM25.8301 3.75977L73.7305 3.75977Q72.8516-1.07422 69.458-4.95605Q66.0645-8.83789 60.9619-11.084Q55.8594-13.3301 49.8047-13.3301Q43.7012-13.3301 38.5986-11.084Q33.4961-8.83789 30.127-4.95605Q26.7578-1.07422 25.8301 3.75977ZM49.8047-19.0918Q53.0762-19.0918 55.7617-20.7764Q58.4473-22.4609 60.0098-25.415Q61.5723-28.3691 61.5723-32.0312Q61.5723-35.498 60.0098-38.3789Q58.4473-41.2598 55.7617-42.9688Q53.0762-44.6777 49.8047-44.6777Q46.4844-44.6777 43.7988-42.9688Q41.1133-41.2598 39.5508-38.3789Q37.9883-35.498 37.9883-32.0312Q37.9883-28.3691 39.5752-25.4395Q41.1621-22.5098 43.8232-20.8008Q46.4844-19.0918 49.8047-19.0918Z"/>
  </g>
  <g id="Thin-S" transform="matrix(1 0 0 1 806.773 696)">
   <path d="M20.3125 4.6875L79.0039 4.6875Q84.1797 4.6875 86.8652 2.00195Q89.5508-0.683594 89.5508-5.81055L89.5508-45.8496Q89.5508-50.9766 86.8652-53.6621Q84.1797-56.3477 79.0039-56.3477L20.3125-56.3477Q15.0879-56.3477 12.4268-53.6865Q9.76562-51.0254 9.76562-45.8496L9.76562-5.81055Q9.76562-0.585938 12.4268 2.05078Q15.0879 4.6875 20.3125 4.6875ZM20.4102 1.41602Q16.7969 1.41602 14.9414-0.439453Q13.0859-2.29492 13.0859-5.95703L13.0859-45.7031Q13.0859-49.3164 14.9414-51.1963Q16.7969-53.0762 20.4102-53.0762L78.9062-53.0762Q82.373-53.0762 84.3018-51.1963Q86.2305-49.3164 86.2305-45.7031L86.2305-5.95703Q86.2305-2.29492 84.3018-0.439453Q82.373 1.41602 78.9062 1.41602ZM18.0664-63.2812L81.2012-63.2812Q81.1035-64.6973 80.2979-65.5273Q79.4922-66.3574 78.0762-66.3574L21.2402-66.3574Q19.8242-66.3574 19.0186-65.5273Q18.2129-64.6973 18.0664-63.2812ZM25.4395-72.3633L73.877-72.3633Q73.8281-73.6328 73.0225-74.4385Q72.2168-75.2441 70.8496-75.2441L28.4668-75.2441Q27.0508-75.2441 26.2695-74.4385Q25.4883-73.6328 25.4395-72.3633ZM25.4883 3.22266L73.7793 3.22266Q73.1445-1.51367 69.751-5.59082Q66.3574-9.66797 61.1084-12.1338Q55.8594-14.5996 49.6094-14.5996Q43.4082-14.5996 38.1592-12.1338Q32.9102-9.66797 29.5166-5.59082Q26.123-1.51367 25.4883 3.22266ZM49.6094-20.2637Q52.8809-20.2637 55.5176-21.9482Q58.1543-23.6328 59.7168-26.5137Q61.2793-29.3945 61.2793-33.0078Q61.2793-36.4258 59.7168-39.2822Q58.1543-42.1387 55.5176-43.8477Q52.8809-45.5566 49.6094-45.5566Q46.3867-45.5566 43.75-43.8477Q41.1133-42.1387 39.5508-39.2822Q37.9883-36.4258 37.9883-33.0078Q37.9883-29.3945 39.5508-26.5137Q41.1133-23.6328 43.75-21.9727Q46.3867-20.3125 49.6094-20.2637Z"/>
  </g>
  <g id="Ultralight-S" transform="matrix(1 0 0 1 510.128 696)">
   <path d="M19.7754 3.80859L79.3945 3.80859Q84.2773 3.80859 86.8408 1.24512Q89.4043-1.31836 89.4043-6.15234L89.4043-46.4844Q89.4043-51.3184 86.8408-53.9062Q84.2773-56.4941 79.3945-56.4941L19.7754-56.4941Q14.8438-56.4941 12.3047-53.9551Q9.76562-51.416 9.76562-46.4844L9.76562-6.15234Q9.76562-1.26953 12.3047 1.26953Q14.8438 3.80859 19.7754 3.80859ZM19.873 1.61133Q15.9668 1.61133 13.9648-0.390625Q11.9629-2.39258 11.9629-6.29883L11.9629-46.4355Q11.9629-50.293 13.9648-52.2949Q15.9668-54.2969 19.873-54.2969L79.2969-54.2969Q83.0078-54.2969 85.083-52.2949Q87.1582-50.293 87.1582-46.4355L87.1582-6.29883Q87.1582-2.39258 85.083-0.390625Q83.0078 1.61133 79.2969 1.61133ZM18.1641-63.7695L80.957-63.7695Q80.957-64.6484 80.3955-65.2832Q79.834-65.918 78.9062-65.918L20.2637-65.918Q19.3359-65.918 18.7744-65.2832Q18.2129-64.6484 18.1641-63.7695ZM25.3418-72.2168L73.8281-72.2168Q73.8281-73.0957 73.2666-73.7061Q72.7051-74.3164 71.8262-74.3164L27.3438-74.3164Q26.416-74.3164 25.8789-73.7061Q25.3418-73.0957 25.3418-72.2168ZM25.3418 2.97852L73.8281 2.97852Q73.3887-1.70898 69.9707-5.88379Q66.5527-10.0586 61.2061-12.6465Q55.8594-15.2344 49.5605-15.2344Q43.3105-15.2344 37.9639-12.6465Q32.6172-10.0586 29.2236-5.88379Q25.8301-1.70898 25.3418 2.97852ZM49.5605-20.8496Q52.832-20.8496 55.4443-22.5342Q58.0566-24.2188 59.5947-27.0752Q61.1328-29.9316 61.1328-33.4961Q61.1328-36.8652 59.5947-39.6973Q58.0566-42.5293 55.4443-44.2383Q52.832-45.9473 49.5605-45.9473Q46.3379-45.9473 43.7256-44.2383Q41.1133-42.5293 39.5752-39.6973Q38.0371-36.8652 38.0371-33.4961Q38.0371-29.9316 39.5752-27.0752Q41.1133-24.2188 43.7256-22.5342Q46.3379-20.8496 49.5605-20.8496Z"/>
  </g>
 </g>
</svg>
