<?xml version="1.0" encoding="UTF-8"?>
<!--Generator: Apple Native CoreSVG 175-->
<!DOCTYPE svg
PUBLIC "-//W3C//DTD SVG 1.1//EN"
       "http://www.w3.org/Graphics/SVG/1.1/DTD/svg11.dtd">
<svg version="1.1" xmlns="http://www.w3.org/2000/svg" xmlns:xlink="http://www.w3.org/1999/xlink" width="3300" height="2200">
 <!--glyph: "uni100BF1.medium", point size: 100.0, font version: "17.0d12e1", template writer version: "65.1"-->
 <g id="Notes">
  <rect height="2200" id="artboard" style="fill:white;opacity:1" width="3300" x="0" y="0"/>
  <line style="fill:none;stroke:black;opacity:1;stroke-width:0.5;" x1="263" x2="3036" y1="292" y2="292"/>
  <text style="stroke:none;fill:black;font-family:sans-serif;font-size:13;font-weight:bold;" transform="matrix(1 0 0 1 263 322)">Weight/Scale Variations</text>
  <text style="stroke:none;fill:black;font-family:sans-serif;font-size:13;text-anchor:middle;" transform="matrix(1 0 0 1 559.711 322)">Ultralight</text>
  <text style="stroke:none;fill:black;font-family:sans-serif;font-size:13;text-anchor:middle;" transform="matrix(1 0 0 1 856.422 322)">Thin</text>
  <text style="stroke:none;fill:black;font-family:sans-serif;font-size:13;text-anchor:middle;" transform="matrix(1 0 0 1 1153.13 322)">Light</text>
  <text style="stroke:none;fill:black;font-family:sans-serif;font-size:13;text-anchor:middle;" transform="matrix(1 0 0 1 1449.84 322)">Regular</text>
  <text style="stroke:none;fill:black;font-family:sans-serif;font-size:13;text-anchor:middle;" transform="matrix(1 0 0 1 1746.56 322)">Medium</text>
  <text style="stroke:none;fill:black;font-family:sans-serif;font-size:13;text-anchor:middle;" transform="matrix(1 0 0 1 2043.27 322)">Semibold</text>
  <text style="stroke:none;fill:black;font-family:sans-serif;font-size:13;text-anchor:middle;" transform="matrix(1 0 0 1 2339.98 322)">Bold</text>
  <text style="stroke:none;fill:black;font-family:sans-serif;font-size:13;text-anchor:middle;" transform="matrix(1 0 0 1 2636.69 322)">Heavy</text>
  <text style="stroke:none;fill:black;font-family:sans-serif;font-size:13;text-anchor:middle;" transform="matrix(1 0 0 1 2933.4 322)">Black</text>
  <line style="fill:none;stroke:black;opacity:1;stroke-width:0.5;" x1="263" x2="3036" y1="1903" y2="1903"/>
  <g transform="matrix(1 0 0 1 263 1933)">
   <path d="M9.24805 0.830078Q10.8691 0.830078 12.2949 0.214844Q13.7207-0.400391 14.8096-1.49414Q15.8984-2.58789 16.5186-4.01367Q17.1387-5.43945 17.1387-7.05078Q17.1387-8.66211 16.5186-10.0879Q15.8984-11.5137 14.8047-12.6074Q13.7109-13.7012 12.2852-14.3164Q10.8594-14.9316 9.23828-14.9316Q7.62695-14.9316 6.20117-14.3164Q4.77539-13.7012 3.69141-12.6074Q2.60742-11.5137 1.9873-10.0879Q1.36719-8.66211 1.36719-7.05078Q1.36719-5.43945 1.9873-4.01367Q2.60742-2.58789 3.69629-1.49414Q4.78516-0.400391 6.21094 0.214844Q7.63672 0.830078 9.24805 0.830078ZM9.24805-0.654297Q7.91992-0.654297 6.7627-1.14746Q5.60547-1.64062 4.73145-2.51953Q3.85742-3.39844 3.36426-4.56055Q2.87109-5.72266 2.87109-7.05078Q2.87109-8.37891 3.35938-9.54102Q3.84766-10.7031 4.72168-11.582Q5.5957-12.4609 6.75293-12.9541Q7.91016-13.4473 9.23828-13.4473Q10.5762-13.4473 11.7334-12.9541Q12.8906-12.4609 13.7695-11.582Q14.6484-10.7031 15.1465-9.54102Q15.6445-8.37891 15.6445-7.05078Q15.6445-5.72266 15.1514-4.56055Q14.6582-3.39844 13.7842-2.51953Q12.9102-1.64062 11.748-1.14746Q10.5859-0.654297 9.24805-0.654297ZM5.6543-7.05078Q5.6543-6.72852 5.85938-6.52832Q6.06445-6.32812 6.40625-6.32812L8.51562-6.32812L8.51562-4.20898Q8.51562-3.88672 8.71094-3.67676Q8.90625-3.4668 9.23828-3.4668Q9.56055-3.4668 9.77051-3.67676Q9.98047-3.88672 9.98047-4.20898L9.98047-6.32812L12.0898-6.32812Q12.4219-6.32812 12.627-6.52832Q12.832-6.72852 12.832-7.05078Q12.832-7.38281 12.627-7.58789Q12.4219-7.79297 12.0898-7.79297L9.98047-7.79297L9.98047-9.90234Q9.98047-10.2344 9.77051-10.4443Q9.56055-10.6543 9.23828-10.6543Q8.90625-10.6543 8.71094-10.4443Q8.51562-10.2344 8.51562-9.90234L8.51562-7.79297L6.40625-7.79297Q6.06445-7.79297 5.85938-7.58789Q5.6543-7.38281 5.6543-7.05078Z"/>
  </g>
  <g transform="matrix(1 0 0 1 281.867 1933)">
   <path d="M11.709 2.91016Q13.75 2.91016 15.5518 2.12891Q17.3535 1.34766 18.7305-0.0292969Q20.1074-1.40625 20.8887-3.20801Q21.6699-5.00977 21.6699-7.05078Q21.6699-9.0918 20.8887-10.8936Q20.1074-12.6953 18.7305-14.0723Q17.3535-15.4492 15.5469-16.2305Q13.7402-17.0117 11.6992-17.0117Q9.6582-17.0117 7.85645-16.2305Q6.05469-15.4492 4.68262-14.0723Q3.31055-12.6953 2.5293-10.8936Q1.74805-9.0918 1.74805-7.05078Q1.74805-5.00977 2.5293-3.20801Q3.31055-1.40625 4.6875-0.0292969Q6.06445 1.34766 7.86621 2.12891Q9.66797 2.91016 11.709 2.91016ZM11.709 1.25Q9.98047 1.25 8.47656 0.605469Q6.97266-0.0390625 5.83496-1.17676Q4.69727-2.31445 4.05762-3.81836Q3.41797-5.32227 3.41797-7.05078Q3.41797-8.7793 4.05762-10.2832Q4.69727-11.7871 5.83008-12.9297Q6.96289-14.0723 8.4668-14.7119Q9.9707-15.3516 11.6992-15.3516Q13.4277-15.3516 14.9316-14.7119Q16.4355-14.0723 17.5781-12.9297Q18.7207-11.7871 19.3652-10.2832Q20.0098-8.7793 20.0098-7.05078Q20.0098-5.32227 19.3701-3.81836Q18.7305-2.31445 17.5928-1.17676Q16.4551-0.0390625 14.9463 0.605469Q13.4375 1.25 11.709 1.25ZM7.17773-7.05078Q7.17773-6.69922 7.41211-6.47461Q7.64648-6.25 8.01758-6.25L10.8887-6.25L10.8887-3.36914Q10.8887-2.99805 11.1133-2.76855Q11.3379-2.53906 11.6895-2.53906Q12.0605-2.53906 12.29-2.76855Q12.5195-2.99805 12.5195-3.36914L12.5195-6.25L15.4004-6.25Q15.7715-6.25 16.001-6.47461Q16.2305-6.69922 16.2305-7.05078Q16.2305-7.42188 16.001-7.65137Q15.7715-7.88086 15.4004-7.88086L12.5195-7.88086L12.5195-10.752Q12.5195-11.1328 12.29-11.3623Q12.0605-11.5918 11.6895-11.5918Q11.3379-11.5918 11.1133-11.3574Q10.8887-11.123 10.8887-10.752L10.8887-7.88086L8.01758-7.88086Q7.63672-7.88086 7.40723-7.65137Q7.17773-7.42188 7.17773-7.05078Z"/>
  </g>
  <g transform="matrix(1 0 0 1 305.646 1933)">
   <path d="M14.9707 5.66406Q17.0605 5.66406 18.96 5.01465Q20.8594 4.36523 22.4512 3.19336Q24.043 2.02148 25.2197 0.429688Q26.3965-1.16211 27.0459-3.06641Q27.6953-4.9707 27.6953-7.05078Q27.6953-9.14062 27.0459-11.04Q26.3965-12.9395 25.2197-14.5312Q24.043-16.123 22.4512-17.2998Q20.8594-18.4766 18.9551-19.126Q17.0508-19.7754 14.9609-19.7754Q12.8711-19.7754 10.9717-19.126Q9.07227-18.4766 7.48535-17.2998Q5.89844-16.123 4.72168-14.5312Q3.54492-12.9395 2.90039-11.04Q2.25586-9.14062 2.25586-7.05078Q2.25586-4.9707 2.90527-3.06641Q3.55469-1.16211 4.72656 0.429688Q5.89844 2.02148 7.49023 3.19336Q9.08203 4.36523 10.9814 5.01465Q12.8809 5.66406 14.9707 5.66406ZM14.9707 3.84766Q13.1641 3.84766 11.5283 3.2959Q9.89258 2.74414 8.53516 1.74805Q7.17773 0.751953 6.17676-0.610352Q5.17578-1.97266 4.62891-3.6084Q4.08203-5.24414 4.08203-7.05078Q4.08203-8.86719 4.62891-10.5029Q5.17578-12.1387 6.17188-13.501Q7.16797-14.8633 8.52539-15.8594Q9.88281-16.8555 11.5186-17.4023Q13.1543-17.9492 14.9609-17.9492Q16.7773-17.9492 18.4131-17.4023Q20.0488-16.8555 21.4111-15.8594Q22.7734-14.8633 23.7695-13.501Q24.7656-12.1387 25.3174-10.5029Q25.8691-8.86719 25.8691-7.05078Q25.8789-5.24414 25.332-3.6084Q24.7852-1.97266 23.7842-0.610352Q22.7832 0.751953 21.4209 1.74805Q20.0586 2.74414 18.4229 3.2959Q16.7871 3.84766 14.9707 3.84766ZM9.19922-7.05078Q9.19922-6.66992 9.45801-6.4209Q9.7168-6.17188 10.1172-6.17188L14.0625-6.17188L14.0625-2.2168Q14.0625-1.81641 14.3115-1.55762Q14.5605-1.29883 14.9512-1.29883Q15.3516-1.29883 15.6104-1.55273Q15.8691-1.80664 15.8691-2.2168L15.8691-6.17188L19.8242-6.17188Q20.2246-6.17188 20.4785-6.4209Q20.7324-6.66992 20.7324-7.05078Q20.7324-7.46094 20.4785-7.71484Q20.2246-7.96875 19.8242-7.96875L15.8691-7.96875L15.8691-11.9141Q15.8691-12.3242 15.6104-12.583Q15.3516-12.8418 14.9512-12.8418Q14.5605-12.8418 14.3115-12.583Q14.0625-12.3242 14.0625-11.9141L14.0625-7.96875L10.1172-7.96875Q9.70703-7.96875 9.45312-7.71484Q9.19922-7.46094 9.19922-7.05078Z"/>
  </g>
  <text style="stroke:none;fill:black;font-family:sans-serif;font-size:13;font-weight:bold;" transform="matrix(1 0 0 1 263 1953)">Design Variations</text>
  <text style="stroke:none;fill:black;font-family:sans-serif;font-size:13;" transform="matrix(1 0 0 1 263 1971)">Symbols are supported in up to nine weights and three scales.</text>
  <text style="stroke:none;fill:black;font-family:sans-serif;font-size:13;" transform="matrix(1 0 0 1 263 1989)">For optimal layout with text and other symbols, vertically align</text>
  <text style="stroke:none;fill:black;font-family:sans-serif;font-size:13;" transform="matrix(1 0 0 1 263 2007)">symbols with the adjacent text.</text>
  <line style="fill:none;stroke:#00AEEF;stroke-width:0.5;opacity:1.0;" x1="776" x2="776" y1="1919" y2="1933"/>
  <g transform="matrix(1 0 0 1 776 1933)">
   <path d="M3.31055 0.15625Q3.70117 0.15625 3.91602-0.00976562Q4.13086-0.175781 4.26758-0.585938L5.52734-4.0332L11.2891-4.0332L12.5488-0.585938Q12.6855-0.175781 12.9004-0.00976562Q13.1152 0.15625 13.4961 0.15625Q13.8867 0.15625 14.1162-0.0585938Q14.3457-0.273438 14.3457-0.644531Q14.3457-0.869141 14.2383-1.17188L9.6582-13.3691Q9.48242-13.8184 9.17969-14.043Q8.87695-14.2676 8.4082-14.2676Q7.5-14.2676 7.17773-13.3789L2.59766-1.16211Q2.49023-0.859375 2.49023-0.634766Q2.49023-0.263672 2.70996-0.0537109Q2.92969 0.15625 3.31055 0.15625ZM6.00586-5.51758L8.37891-12.0898L8.42773-12.0898L10.8008-5.51758Z"/>
  </g>
  <line style="fill:none;stroke:#00AEEF;stroke-width:0.5;opacity:1.0;" x1="793.197" x2="793.197" y1="1919" y2="1933"/>
  <text style="stroke:none;fill:black;font-family:sans-serif;font-size:13;font-weight:bold;" transform="matrix(1 0 0 1 776 1953)">Margins</text>
  <text style="stroke:none;fill:black;font-family:sans-serif;font-size:13;" transform="matrix(1 0 0 1 776 1971)">Leading and trailing margins on the left and right side of each symbol</text>
  <text style="stroke:none;fill:black;font-family:sans-serif;font-size:13;" transform="matrix(1 0 0 1 776 1989)">can be adjusted by modifying the x-location of the margin guidelines.</text>
  <text style="stroke:none;fill:black;font-family:sans-serif;font-size:13;" transform="matrix(1 0 0 1 776 2007)">Modifications are automatically applied proportionally to all</text>
  <text style="stroke:none;fill:black;font-family:sans-serif;font-size:13;" transform="matrix(1 0 0 1 776 2025)">scales and weights.</text>
  <g transform="matrix(1 0 0 1 1289 1933)">
   <path d="M2.8418 1.86523L4.54102 3.57422Q5.18555 4.22852 5.90332 4.17969Q6.62109 4.13086 7.31445 3.35938L18.0078-8.42773L17.041-9.4043L6.42578 2.27539Q6.16211 2.57812 5.89355 2.61719Q5.625 2.65625 5.27344 2.30469L4.10156 1.14258Q3.75 0.791016 3.79395 0.522461Q3.83789 0.253906 4.14062-0.0195312L15.6152-10.8203L14.6387-11.7871L3.04688-0.898438Q2.30469-0.214844 2.25098 0.498047Q2.19727 1.21094 2.8418 1.86523ZM9.25781-16.3281Q8.94531-16.0254 8.90625-15.6348Q8.86719-15.2441 9.04297-14.9512Q9.21875-14.6777 9.55566-14.541Q9.89258-14.4043 10.3809-14.5215Q11.4746-14.7754 12.5977-14.7314Q13.7207-14.6875 14.7949-13.9844L14.209-12.5293Q13.9551-11.9043 14.0674-11.4404Q14.1797-10.9766 14.5801-10.5664L16.875-8.25195Q17.2363-7.88086 17.5781-7.82227Q17.9199-7.76367 18.3398-7.8418L19.4043-8.03711L20.0684-7.36328L20.0293-6.80664Q20-6.43555 20.1221-6.12305Q20.2441-5.81055 20.6055-5.44922L21.3672-4.70703Q21.7285-4.3457 22.1533-4.33105Q22.5781-4.31641 22.9297-4.66797L25.8398-7.58789Q26.1914-7.93945 26.1816-8.35449Q26.1719-8.76953 25.8105-9.13086L25.0391-9.89258Q24.6875-10.2539 24.3799-10.3857Q24.0723-10.5176 23.7109-10.4883L23.1348-10.4395L22.4902-11.0742L22.7344-12.1973Q22.832-12.6172 22.6953-12.9834Q22.5586-13.3496 22.1191-13.7891L19.9219-15.9766Q18.6719-17.2168 17.2607-17.8369Q15.8496-18.457 14.4189-18.4814Q12.9883-18.5059 11.665-17.959Q10.3418-17.4121 9.25781-16.3281ZM10.752-15.957Q11.6602-16.6211 12.7002-16.9043Q13.7402-17.1875 14.8047-17.085Q15.8691-16.9824 16.8701-16.5137Q17.8711-16.0449 18.7012-15.2051L21.1328-12.793Q21.3086-12.6172 21.3525-12.4512Q21.3965-12.2852 21.3379-12.0312L21.0156-10.5469L22.5195-9.0625L23.5059-9.12109Q23.6914-9.13086 23.7891-9.09668Q23.8867-9.0625 24.0332-8.91602L24.6094-8.33984L22.168-5.89844L21.5918-6.47461Q21.4453-6.62109 21.4062-6.71875Q21.3672-6.81641 21.377-7.01172L21.4453-7.98828L19.9512-9.47266L18.4277-9.21875Q18.1836-9.16992 18.042-9.2041Q17.9004-9.23828 17.7148-9.41406L15.7129-11.416Q15.5176-11.5918 15.4932-11.7529Q15.4688-11.9141 15.5859-12.1875L16.4648-14.2773Q15.293-15.3711 13.8281-15.791Q12.3633-16.2109 10.8398-15.7617Q10.7227-15.7324 10.6885-15.8057Q10.6543-15.8789 10.752-15.957Z"/>
  </g>
  <text style="stroke:none;fill:black;font-family:sans-serif;font-size:13;font-weight:bold;" transform="matrix(1 0 0 1 1289 1953)">Exporting</text>
  <text style="stroke:none;fill:black;font-family:sans-serif;font-size:13;" transform="matrix(1 0 0 1 1289 1971)">Symbols should be outlined when exporting to ensure the</text>
  <text style="stroke:none;fill:black;font-family:sans-serif;font-size:13;" transform="matrix(1 0 0 1 1289 1989)">design is preserved when submitting to Xcode.</text>
  <text id="template-version" style="stroke:none;fill:black;font-family:sans-serif;font-size:13;text-anchor:end;" transform="matrix(1 0 0 1 3036 1933)">Template v.2.0</text>
  <text style="stroke:none;fill:black;font-family:sans-serif;font-size:13;text-anchor:end;" transform="matrix(1 0 0 1 3036 1951)">Requires Xcode 13 or greater</text>
  <text id="descriptive-name" style="stroke:none;fill:black;font-family:sans-serif;font-size:13;text-anchor:end;" transform="matrix(1 0 0 1 3036 1969)">Generated from square.3.stack.3d.top.filled</text>
  <text style="stroke:none;fill:black;font-family:sans-serif;font-size:13;text-anchor:end;" transform="matrix(1 0 0 1 3036 1987)">Typeset at 100 points</text>
  <text style="stroke:none;fill:black;font-family:sans-serif;font-size:13;" transform="matrix(1 0 0 1 263 726)">Small</text>
  <text style="stroke:none;fill:black;font-family:sans-serif;font-size:13;" transform="matrix(1 0 0 1 263 1156)">Medium</text>
  <text style="stroke:none;fill:black;font-family:sans-serif;font-size:13;" transform="matrix(1 0 0 1 263 1586)">Large</text>
 </g>
 <g id="Guides">
  <g id="H-reference" style="fill:#27AAE1;stroke:none;" transform="matrix(1 0 0 1 339 696)">
   <path d="M0.993347 0L3.6377 0L29.3282-67.1326L30.0301-67.1326L30.0301-70.459L28.1227-70.459ZM11.6882-24.4797L46.9818-24.4797L46.2311-26.7288L12.4382-26.7288ZM55.1193 0L57.7637 0L30.6381-70.459L29.4327-70.459L29.4327-67.1326Z"/>
  </g>
  <line id="Baseline-S" style="fill:none;stroke:#27AAE1;opacity:1;stroke-width:0.5;" x1="263" x2="3036" y1="696" y2="696"/>
  <line id="Capline-S" style="fill:none;stroke:#27AAE1;opacity:1;stroke-width:0.5;" x1="263" x2="3036" y1="625.541" y2="625.541"/>
  <g id="H-reference" style="fill:#27AAE1;stroke:none;" transform="matrix(1 0 0 1 339 1126)">
   <path d="M0.993347 0L3.6377 0L29.3282-67.1326L30.0301-67.1326L30.0301-70.459L28.1227-70.459ZM11.6882-24.4797L46.9818-24.4797L46.2311-26.7288L12.4382-26.7288ZM55.1193 0L57.7637 0L30.6381-70.459L29.4327-70.459L29.4327-67.1326Z"/>
  </g>
  <line id="Baseline-M" style="fill:none;stroke:#27AAE1;opacity:1;stroke-width:0.5;" x1="263" x2="3036" y1="1126" y2="1126"/>
  <line id="Capline-M" style="fill:none;stroke:#27AAE1;opacity:1;stroke-width:0.5;" x1="263" x2="3036" y1="1055.54" y2="1055.54"/>
  <g id="H-reference" style="fill:#27AAE1;stroke:none;" transform="matrix(1 0 0 1 339 1556)">
   <path d="M0.993347 0L3.6377 0L29.3282-67.1326L30.0301-67.1326L30.0301-70.459L28.1227-70.459ZM11.6882-24.4797L46.9818-24.4797L46.2311-26.7288L12.4382-26.7288ZM55.1193 0L57.7637 0L30.6381-70.459L29.4327-70.459L29.4327-67.1326Z"/>
  </g>
  <line id="Baseline-L" style="fill:none;stroke:#27AAE1;opacity:1;stroke-width:0.5;" x1="263" x2="3036" y1="1556" y2="1556"/>
  <line id="Capline-L" style="fill:none;stroke:#27AAE1;opacity:1;stroke-width:0.5;" x1="263" x2="3036" y1="1485.54" y2="1485.54"/>
  <line id="left-margin" style="fill:none;stroke:#00AEEF;stroke-width:0.5;opacity:1.0;" x1="1387.49" x2="1387.49" y1="1030.79" y2="1150.12"/>
  <line id="right-margin" style="fill:none;stroke:#00AEEF;stroke-width:0.5;opacity:1.0;" x1="1512.2" x2="1512.2" y1="1030.79" y2="1150.12"/>
 </g>
 <g id="Symbols">
  <g id="Black-L" transform="matrix(1 0 0 1 2849.12 1556)">
   <path d="M110.889-13.0859L126.904-4.15039Q127.1-4.05273 127.148-3.93066Q127.197-3.80859 127.197-3.66211Q127.197-3.51562 127.148-3.39355Q127.1-3.27148 126.904-3.17383L86.1816 19.6777Q85.5957 19.9707 85.1562 20.1172Q84.7168 20.2637 84.2773 20.2637Q83.8379 20.2637 83.3984 20.1172Q82.959 19.9707 82.373 19.6777L41.6504-3.17383Q41.5039-3.27148 41.4307-3.39355Q41.3574-3.51562 41.3574-3.66211Q41.3574-3.80859 41.4307-3.93066Q41.5039-4.05273 41.6504-4.15039L60.1562-14.502L41.9434-26.2695L25.9277-17.041Q21.1426-14.3066 18.6035-11.2061Q16.0645-8.10547 16.0645-3.66211Q16.0645 0.78125 18.6035 3.88184Q21.1426 6.98242 25.9277 9.7168L73.6328 37.3047Q76.8555 39.1602 79.3457 40.1611Q81.8359 41.1621 84.2773 41.1621Q86.7188 41.1621 89.209 40.1611Q91.6992 39.1602 94.9219 37.3047L142.627 9.7168Q147.412 6.98242 149.951 3.88184Q152.49 0.78125 152.49-3.66211Q152.49-8.10547 149.951-11.2061Q147.412-14.3066 142.627-17.041L128.516-25.2441ZM110.889-43.7012L126.904-34.7168Q127.1-34.6191 127.148-34.4971Q127.197-34.375 127.197-34.2285Q127.197-34.082 127.148-33.96Q127.1-33.8379 126.904-33.7402L86.1816-10.8887Q85.5957-10.5957 85.1562-10.4492Q84.7168-10.3027 84.2773-10.3027Q83.8379-10.3027 83.3984-10.4492Q82.959-10.5957 82.373-10.8887L41.6504-33.7402Q41.5039-33.8379 41.4307-33.96Q41.3574-34.082 41.3574-34.2285Q41.3574-34.375 41.4307-34.4971Q41.5039-34.6191 41.6504-34.7168L58.5938-44.2383L40.5273-56.0059L25.9277-47.6074Q21.1426-44.873 18.6035-41.7725Q16.0645-38.6719 16.0645-34.2285Q16.0645-29.7852 18.6035-26.6846Q21.1426-23.584 25.9277-20.8496L73.6328 6.73828Q76.8555 8.59375 79.3457 9.59473Q81.8359 10.5957 84.2773 10.5957Q86.7188 10.5957 89.209 9.59473Q91.6992 8.59375 94.9219 6.73828L142.627-20.8496Q147.412-23.584 149.951-26.6846Q152.49-29.7852 152.49-34.2285Q152.49-38.6719 149.951-41.7725Q147.412-44.873 142.627-47.6074L129.639-55.127ZM84.2773-21.1914Q86.7188-21.1914 89.209-22.168Q91.6992-23.1445 94.9219-25L142.627-52.5879Q147.412-55.3711 149.951-58.4717Q152.49-61.5723 152.49-66.0156Q152.49-70.4102 149.951-73.5107Q147.412-76.6113 142.627-79.3945L94.9219-106.982Q91.6992-108.838 89.209-109.814Q86.7188-110.791 84.2773-110.791Q81.8359-110.791 79.3457-109.814Q76.8555-108.838 73.6328-106.982L25.9277-79.3945Q21.1426-76.6113 18.6035-73.5107Q16.0645-70.4102 16.0645-66.0156Q16.0645-61.5723 18.6035-58.4717Q21.1426-55.3711 25.9277-52.5879L73.6328-25Q76.8555-23.1445 79.3457-22.168Q81.8359-21.1914 84.2773-21.1914Z"/>
  </g>
  <g id="Heavy-L" transform="matrix(1 0 0 1 2553.56 1556)">
   <path d="M111.131-13.7314L127.861-4.33502Q128.079-4.22592 128.157-4.0863Q128.235-3.94669 128.235-3.75443Q128.235-3.57361 128.157-3.43399Q128.079-3.29437 127.861-3.18527L85.1906 20.8878Q84.5703 21.2151 84.0904 21.3791Q83.6105 21.5431 83.1245 21.5431Q82.6393 21.5431 82.1594 21.3791Q81.6795 21.2151 81.0593 20.8878L38.3888-3.18527Q38.2195-3.29437 38.1172-3.43399Q38.015-3.57361 38.015-3.75443Q38.015-3.94669 38.1172-4.0863Q38.2195-4.22592 38.3888-4.33502L57.3326-14.9857L41.2865-25.1747L25.0862-15.8195Q20.6352-13.2698 18.3498-10.4916Q16.0645-7.71332 16.0645-3.75443Q16.0645 0.193787 18.3498 2.97165Q20.6352 5.74951 25.0862 8.3107L73.3101 36.2099Q76.2566 37.9044 78.5564 38.8073Q80.8563 39.7102 83.1245 39.7102Q85.3935 39.7102 87.6934 38.8073Q89.9933 37.9044 92.9398 36.2099L141.175 8.3107Q145.615 5.74951 147.906 2.97165Q150.197 0.193787 150.197-3.75443Q150.197-7.71332 147.906-10.4916Q145.615-13.2698 141.175-15.8195L126.579-24.3103ZM110.796-44.2657L127.861-34.6359Q128.079-34.5268 128.157-34.3876Q128.235-34.2484 128.235-34.0675Q128.235-33.886 128.157-33.7467Q128.079-33.6075 127.861-33.4869L85.1906-9.41391Q84.5703-9.09729 84.0904-8.93364Q83.6105-8.76999 83.1245-8.76999Q82.6393-8.76999 82.1594-8.93364Q81.6795-9.09729 81.0593-9.41391L38.3888-33.4869Q38.2195-33.6075 38.1172-33.7467Q38.015-33.886 38.015-34.0675Q38.015-34.2484 38.1172-34.3876Q38.2195-34.5268 38.3888-34.6359L56.4613-44.8494L40.6311-55.0842L25.0862-46.1327Q20.6352-43.5822 18.3498-40.7986Q16.0645-38.015 16.0645-34.0675Q16.0645-30.1079 18.3498-27.33Q20.6352-24.5522 25.0862-22.0024L73.3101 5.9082Q76.2566 7.60269 78.5564 8.50563Q80.8563 9.40857 83.1245 9.40857Q85.3935 9.40857 87.6934 8.50563Q89.9933 7.60269 92.9398 5.9082L141.175-22.0024Q145.615-24.5522 147.906-27.33Q150.197-30.1079 150.197-34.0675Q150.197-38.015 147.906-40.7986Q145.615-43.5822 141.175-46.1327L127.092-54.2854ZM83.1245-22.2519Q85.3935-22.2519 87.6934-23.1361Q89.9933-24.0204 92.9398-25.7149L141.175-53.6247Q145.615-56.2126 147.906-58.9905Q150.197-61.7683 150.197-65.7272Q150.197-69.6381 147.906-72.4216Q145.615-75.2052 141.175-77.7924L92.9398-105.692Q89.9933-107.397 87.6934-108.276Q85.3935-109.155 83.1245-109.155Q80.8563-109.155 78.5564-108.276Q76.2566-107.397 73.3101-105.692L25.0862-77.7924Q20.6352-75.2052 18.3498-72.4216Q16.0645-69.6381 16.0645-65.7272Q16.0645-61.7683 18.3498-58.9905Q20.6352-56.2126 25.0862-53.6247L73.3101-25.7149Q76.2566-24.0204 78.5564-23.1361Q80.8563-22.2519 83.1245-22.2519Z"/>
  </g>
  <g id="Bold-L" transform="matrix(1 0 0 1 2258.13 1556)">
   <path d="M111.401-14.4531L128.931-4.54102Q129.175-4.41895 129.285-4.26025Q129.395-4.10156 129.395-3.85742Q129.395-3.6377 129.285-3.479Q129.175-3.32031 128.931-3.19824L84.082 22.2412Q83.4229 22.6074 82.8979 22.7905Q82.373 22.9736 81.8359 22.9736Q81.2988 22.9736 80.7739 22.7905Q80.249 22.6074 79.5898 22.2412L34.7412-3.19824Q34.5459-3.32031 34.4116-3.479Q34.2773-3.6377 34.2773-3.85742Q34.2773-4.10156 34.4116-4.26025Q34.5459-4.41895 34.7412-4.54102L54.1748-15.5273L40.5518-23.9502L24.1455-14.4531Q20.0684-12.1094 18.0664-9.69238Q16.0645-7.27539 16.0645-3.85742Q16.0645-0.463867 18.0664 1.95312Q20.0684 4.37012 24.1455 6.73828L72.9492 34.9854Q75.5859 36.499 77.6733 37.2925Q79.7607 38.0859 81.8359 38.0859Q83.9111 38.0859 85.9985 37.2925Q88.0859 36.499 90.7227 34.9854L139.551 6.73828Q143.604 4.37012 145.618 1.95312Q147.632-0.463867 147.632-3.85742Q147.632-7.27539 145.618-9.69238Q143.604-12.1094 139.551-14.4531L124.414-23.2666ZM110.693-44.8975L128.931-34.5459Q129.175-34.4238 129.285-34.2651Q129.395-34.1064 129.395-33.8867Q129.395-33.667 129.285-33.5083Q129.175-33.3496 128.931-33.2031L84.082-7.76367Q83.4229-7.42188 82.8979-7.23877Q82.373-7.05566 81.8359-7.05566Q81.2988-7.05566 80.7739-7.23877Q80.249-7.42188 79.5898-7.76367L34.7412-33.2031Q34.5459-33.3496 34.4116-33.5083Q34.2773-33.667 34.2773-33.8867Q34.2773-34.1064 34.4116-34.2651Q34.5459-34.4238 34.7412-34.5459L54.0771-45.5322L40.7471-54.0527L24.1455-44.4824Q20.0684-42.1387 18.0664-39.7095Q16.0645-37.2803 16.0645-33.8867Q16.0645-30.4688 18.0664-28.0518Q20.0684-25.6348 24.1455-23.291L72.9492 4.98047Q75.5859 6.49414 77.6733 7.2876Q79.7607 8.08105 81.8359 8.08105Q83.9111 8.08105 85.9985 7.2876Q88.0859 6.49414 90.7227 4.98047L139.551-23.291Q143.604-25.6348 145.618-28.0518Q147.632-30.4688 147.632-33.8867Q147.632-37.2803 145.618-39.7095Q143.604-42.1387 139.551-44.4824L124.243-53.3447ZM81.8359-23.4375Q83.9111-23.4375 85.9985-24.2188Q88.0859-25 90.7227-26.5137L139.551-54.7852Q143.604-57.1533 145.618-59.5703Q147.632-61.9873 147.632-65.4053Q147.632-68.7744 145.618-71.2036Q143.604-73.6328 139.551-76.001L90.7227-104.248Q88.0859-105.786 85.9985-106.555Q83.9111-107.324 81.8359-107.324Q79.7607-107.324 77.6733-106.555Q75.5859-105.786 72.9492-104.248L24.1455-76.001Q20.0684-73.6328 18.0664-71.2036Q16.0645-68.7744 16.0645-65.4053Q16.0645-61.9873 18.0664-59.5703Q20.0684-57.1533 24.1455-54.7852L72.9492-26.5137Q75.5859-25 77.6733-24.2188Q79.7607-23.4375 81.8359-23.4375Z"/>
  </g>
  <g id="Semibold-L" transform="matrix(1 0 0 1 1962.3 1556)">
   <path d="M111.588-14.9506L129.668-4.68292Q129.93-4.55246 130.062-4.38042Q130.194-4.20837 130.194-3.92838Q130.194-3.68195 130.062-3.5099Q129.93-3.33786 129.668-3.2074L83.3176 23.1743Q82.6317 23.5672 82.0759 23.7637Q81.5201 23.9601 80.9471 23.9601Q80.3749 23.9601 79.8187 23.7637Q79.2625 23.5672 78.5767 23.1743L32.2258-3.2074Q32.0129-3.33786 31.8565-3.5099Q31.7001-3.68195 31.7001-3.92838Q31.7001-4.20837 31.8565-4.38042Q32.0129-4.55246 32.2258-4.68292L51.9974-15.9004L40.0452-23.1056L23.497-13.5109Q19.677-11.3098 17.8707-9.14154Q16.0645-6.97327 16.0645-3.92838Q16.0645-0.917053 17.8707 1.25122Q19.677 3.41949 23.497 5.65414L72.7005 34.1408Q75.1236 35.5301 77.0645 36.248Q79.0054 36.9659 80.9471 36.9659Q82.8888 36.9659 84.8297 36.248Q86.7706 35.5301 89.1937 34.1408L138.431 5.65414Q142.217 3.41949 144.04 1.25122Q145.863-0.917053 145.863-3.92838Q145.863-6.97327 144.04-9.14154Q142.217-11.3098 138.431-13.5109L122.921-22.5464ZM110.622-45.3331L129.668-34.4833Q129.93-34.3529 130.062-34.1808Q130.194-34.0088 130.194-33.7624Q130.194-33.5159 130.062-33.3439Q129.93-33.1718 129.668-33.0078L83.3176-6.62613Q82.6317-6.26678 82.0759-6.07033Q81.5201-5.87387 80.9471-5.87387Q80.3749-5.87387 79.8187-6.07033Q79.2625-6.26678 78.5767-6.62613L32.2258-33.0078Q32.0129-33.1718 31.8565-33.3439Q31.7001-33.5159 31.7001-33.7624Q31.7001-34.0088 31.8565-34.1808Q32.0129-34.3529 32.2258-34.4833L52.433-46.003L40.8272-53.3417L23.497-43.3449Q19.677-41.143 17.8707-38.9584Q16.0645-36.7737 16.0645-33.7624Q16.0645-30.7175 17.8707-28.5492Q19.677-26.3809 23.497-24.1798L72.7005 4.34036Q75.1236 5.72968 77.0645 6.4476Q79.0054 7.16553 80.9471 7.16553Q82.8888 7.16553 84.8297 6.4476Q86.7706 5.72968 89.1937 4.34036L138.431-24.1798Q142.217-26.3809 144.04-28.5492Q145.863-30.7175 145.863-33.7624Q145.863-36.7737 144.04-38.9584Q142.217-41.143 138.431-43.3449L122.279-52.6962ZM80.9471-24.2554Q82.8888-24.2554 84.8297-24.9653Q86.7706-25.6752 89.1937-27.0645L138.431-55.5847Q142.217-57.8018 144.04-59.9701Q145.863-62.1384 145.863-65.1833Q145.863-68.1793 144.04-70.364Q142.217-72.5487 138.431-74.7658L89.1937-103.252Q86.7706-104.675 84.8297-105.369Q82.8888-106.062 80.9471-106.062Q79.0054-106.062 77.0645-105.369Q75.1236-104.675 72.7005-103.252L23.497-74.7658Q19.677-72.5487 17.8707-70.364Q16.0645-68.1793 16.0645-65.1833Q16.0645-62.1384 17.8707-59.9701Q19.677-57.8018 23.497-55.5847L72.7005-27.0645Q75.1236-25.6752 77.0645-24.9653Q79.0054-24.2554 80.9471-24.2554Z"/>
  </g>
  <g id="Medium-L" transform="matrix(1 0 0 1 1666.26 1556)">
   <path d="M111.729-15.3282L130.228-4.79126Q130.503-4.65317 130.652-4.47121Q130.801-4.28925 130.801-3.98254Q130.801-3.71552 130.652-3.53355Q130.503-3.35159 130.228-3.2135L82.7385 23.8815Q82.032 24.295 81.4526 24.5014Q80.8731 24.7078 80.2734 24.7078Q79.6738 24.7078 79.0943 24.5014Q78.5149 24.295 77.8084 23.8815L30.3192-3.2135Q30.0926-3.35159 29.9194-3.53355Q29.7462-3.71552 29.7462-3.98254Q29.7462-4.28925 29.9194-4.47121Q30.0926-4.65317 30.3192-4.79126L50.3464-16.1835L39.6614-22.4655L23.0049-12.7968Q19.381-10.7033 17.7227-8.72383Q16.0645-6.74438 16.0645-3.98254Q16.0645-1.26114 17.7227 0.718689Q19.381 2.69852 23.0049 4.8317L72.5121 33.5007Q74.7734 34.7961 76.6029 35.4565Q78.4325 36.1168 80.2734 36.1168Q82.1144 36.1168 83.9439 35.4565Q85.7735 34.7961 88.0348 33.5007L137.582 4.8317Q141.166 2.69852 142.844 0.718689Q144.522-1.26114 144.522-3.98254Q144.522-6.74438 142.844-8.72383Q141.166-10.7033 137.582-12.7968L121.789-22.0009ZM110.568-45.6635L130.228-34.4368Q130.503-34.2987 130.652-34.1167Q130.801-33.9348 130.801-33.6678Q130.801-33.4015 130.652-33.2191Q130.503-33.0368 130.228-32.859L82.7385-5.76401Q82.032-5.39093 81.4526-5.18417Q80.8731-4.97742 80.2734-4.97742Q79.6738-4.97742 79.0943-5.18417Q78.5149-5.39093 77.8084-5.76401L30.3192-32.859Q30.0926-33.0368 29.9194-33.2191Q29.7462-33.4015 29.7462-33.6678Q29.7462-33.9348 29.9194-34.1167Q30.0926-34.2987 30.3192-34.4368L51.1864-46.36L40.8875-52.803L23.0049-42.4828Q19.381-40.3885 17.7227-38.3892Q16.0645-36.3899 16.0645-33.6678Q16.0645-30.9059 17.7227-28.9265Q19.381-26.947 23.0049-24.8535L72.5121 3.85513Q74.7734 5.1506 76.6029 5.81131Q78.4325 6.47202 80.2734 6.47202Q82.1144 6.47202 83.9439 5.81131Q85.7735 5.1506 88.0348 3.85513L137.582-24.8535Q141.166-26.947 142.844-28.9265Q144.522-30.9059 144.522-33.6678Q144.522-36.3899 142.844-38.3892Q141.166-40.3885 137.582-42.4828L120.79-52.2041ZM80.2734-24.8749Q82.1144-24.8749 83.9439-25.5314Q85.7735-26.1879 88.0348-27.4826L137.582-56.1913Q141.166-58.2939 142.844-60.2734Q144.522-62.2528 144.522-65.0146Q144.522-67.7277 142.844-69.7269Q141.166-71.7262 137.582-73.8289L88.0348-102.498Q85.7735-103.833 83.9439-104.469Q82.1144-105.106 80.2734-105.106Q78.4325-105.106 76.6029-104.469Q74.7734-103.833 72.5121-102.498L23.0049-73.8289Q19.381-71.7262 17.7227-69.7269Q16.0645-67.7277 16.0645-65.0146Q16.0645-62.2528 17.7227-60.2734Q19.381-58.2939 23.0049-56.1913L72.5121-27.4826Q74.7734-26.1879 76.6029-25.5314Q78.4325-24.8749 80.2734-24.8749Z"/>
  </g>
  <g id="Regular-L" transform="matrix(1 0 0 1 1370.43 1556)">
   <path d="M111.914-15.8203L130.957-4.93164Q131.25-4.78516 131.421-4.58984Q131.592-4.39453 131.592-4.05273Q131.592-3.75977 131.421-3.56445Q131.25-3.36914 130.957-3.22266L81.9824 24.8047Q81.25 25.2441 80.6396 25.4639Q80.0293 25.6836 79.3945 25.6836Q78.7598 25.6836 78.1494 25.4639Q77.5391 25.2441 76.8066 24.8047L27.832-3.22266Q27.5879-3.36914 27.3926-3.56445Q27.1973-3.75977 27.1973-4.05273Q27.1973-4.39453 27.3926-4.58984Q27.5879-4.78516 27.832-4.93164L48.1934-16.5527L39.1602-21.6309L22.3633-11.8652Q18.9941-9.91211 17.5293-8.17871Q16.0645-6.44531 16.0645-4.05273Q16.0645-1.70898 17.5293 0.0244141Q18.9941 1.75781 22.3633 3.75977L72.2656 32.666Q74.3164 33.8379 76.001 34.4238Q77.6855 35.0098 79.3945 35.0098Q81.1035 35.0098 82.7881 34.4238Q84.4727 33.8379 86.5234 32.666L136.475 3.75977Q139.795 1.75781 141.284 0.0244141Q142.773-1.70898 142.773-4.05273Q142.773-6.44531 141.284-8.17871Q139.795-9.91211 136.475-11.8652L120.312-21.2891ZM110.498-46.0938L130.957-34.375Q131.25-34.2285 131.421-34.0332Q131.592-33.8379 131.592-33.5449Q131.592-33.252 131.421-33.0566Q131.25-32.8613 130.957-32.666L81.9824-4.63867Q81.25-4.24805 80.6396-4.02832Q80.0293-3.80859 79.3945-3.80859Q78.7598-3.80859 78.1494-4.02832Q77.5391-4.24805 76.8066-4.63867L27.832-32.666Q27.5879-32.8613 27.3926-33.0566Q27.1973-33.252 27.1973-33.5449Q27.1973-33.8379 27.3926-34.0332Q27.5879-34.2285 27.832-34.375L49.5605-46.8262L40.9668-52.0996L22.3633-41.3574Q18.9941-39.4043 17.5293-37.6465Q16.0645-35.8887 16.0645-33.5449Q16.0645-31.1523 17.5293-29.4189Q18.9941-27.6855 22.3633-25.7324L72.2656 3.22266Q74.3164 4.39453 76.001 4.98047Q77.6855 5.56641 79.3945 5.56641Q81.1035 5.56641 82.7881 4.98047Q84.4727 4.39453 86.5234 3.22266L136.475-25.7324Q139.795-27.6855 141.284-29.4189Q142.773-31.1523 142.773-33.5449Q142.773-35.8887 141.284-37.6465Q139.795-39.4043 136.475-41.3574L118.848-51.5625ZM79.3945-25.6836Q81.1035-25.6836 82.7881-26.2695Q84.4727-26.8555 86.5234-28.0273L136.475-56.9824Q139.795-58.9355 141.284-60.6689Q142.773-62.4023 142.773-64.7949Q142.773-67.1387 141.284-68.8965Q139.795-70.6543 136.475-72.6074L86.5234-101.514Q84.4727-102.734 82.7881-103.296Q81.1035-103.857 79.3945-103.857Q77.6855-103.857 76.001-103.296Q74.3164-102.734 72.2656-101.514L22.3633-72.6074Q18.9941-70.6543 17.5293-68.8965Q16.0645-67.1387 16.0645-64.7949Q16.0645-62.4023 17.5293-60.6689Q18.9941-58.9355 22.3633-56.9824L72.2656-28.0273Q74.3164-26.8555 76.001-26.2695Q77.6855-25.6836 79.3945-25.6836Z"/>
  </g>
  <g id="Light-L" transform="matrix(1 0 0 1 1075.12 1556)">
   <path d="M110.567-17.1677L130.669-5.6282Q131.053-5.42068 131.3-5.15747Q131.546-4.89426 131.546-4.44641Q131.546-4.03214 131.3-3.76892Q131.053-3.50571 130.669-3.29819L80.3024 25.592Q79.6455 25.9705 79.1107 26.1753Q78.5759 26.3802 78.0022 26.3802Q77.4124 26.3802 76.878 26.1753Q76.3435 25.9705 75.6866 25.592L25.3197-3.29819Q24.9695-3.50571 24.7059-3.76892Q24.4423-4.03214 24.4423-4.44641Q24.4423-4.89426 24.7059-5.15747Q24.9695-5.42068 25.3197-5.6282L46.4981-17.7483L39.5691-21.5851L21.3341-11.0176Q18.5852-9.4429 17.3248-7.97424Q16.0645-6.50558 16.0645-4.44641Q16.0645-2.42004 17.3248-0.951767Q18.5852 0.51651 21.3341 2.12479L72.084 31.4705Q73.8014 32.4455 75.1835 32.9632Q76.5656 33.4808 78.0022 33.4808Q79.4235 33.4808 80.8052 32.9632Q82.1869 32.4455 83.905 31.4705L134.689 2.12479Q137.403 0.51651 138.681-0.951767Q139.958-2.42004 139.958-4.44641Q139.958-6.50558 138.681-7.97424Q137.403-9.4429 134.689-11.0176L117.028-21.2891ZM109.135-48.0316L130.669-35.6766Q131.053-35.4698 131.3-35.1986Q131.546-34.9274 131.546-34.5291Q131.546-34.1148 131.3-33.8436Q131.053-33.5724 130.669-33.3321L80.3024-4.45709Q79.6455-4.09698 79.1107-3.89977Q78.5759-3.70255 78.0022-3.70255Q77.4124-3.70255 76.878-3.89977Q76.3435-4.09698 75.6866-4.45709L25.3197-33.3321Q24.9695-33.5724 24.7059-33.8436Q24.4423-34.1148 24.4423-34.5291Q24.4423-34.9274 24.7059-35.1986Q24.9695-35.4698 25.3197-35.6766L47.744-48.5519L41.1942-52.5383L21.3341-41.1003Q18.5852-39.5103 17.3248-38.0325Q16.0645-36.5547 16.0645-34.5291Q16.0645-32.4539 17.3248-30.9929Q18.5852-29.5319 21.3341-27.9427L72.084 1.42136Q73.8014 2.41165 75.1835 2.92206Q76.5656 3.43246 78.0022 3.43246Q79.4235 3.43246 80.8052 2.92206Q82.1869 2.41165 83.905 1.42136L134.689-27.9427Q137.403-29.5319 138.681-30.9929Q139.958-32.4539 139.958-34.5291Q139.958-36.5547 138.681-38.0325Q137.403-39.5103 134.689-41.1003L115.563-52.153ZM78.0022-28.1204Q79.4235-28.1204 80.8052-28.6385Q82.1869-29.1565 83.905-30.1315L134.689-59.51Q137.403-61.1 138.681-62.561Q139.958-64.0221 139.958-66.0812Q139.958-68.1229 138.681-69.6007Q137.403-71.0785 134.689-72.6532L83.905-101.998Q82.1869-103.022 80.8052-103.515Q79.4235-104.008 78.0022-104.008Q76.5656-104.008 75.1835-103.515Q73.8014-103.022 72.084-101.998L21.3341-72.6532Q18.5852-71.0785 17.3248-69.6007Q16.0645-68.1229 16.0645-66.0812Q16.0645-64.0221 17.3248-62.561Q18.5852-61.1 21.3341-59.51L72.084-30.1315Q73.8014-29.1565 75.1835-28.6385Q76.5656-28.1204 78.0022-28.1204Z"/>
  </g>
  <g id="Thin-L" transform="matrix(1 0 0 1 780.273 1556)">
   <path d="M108.785-18.9491L130.289-6.54907Q130.793-6.26144 131.14-5.9082Q131.487-5.55496 131.487-4.96674Q131.487-4.39224 131.14-4.039Q130.793-3.68576 130.289-3.39813L78.08 26.6327Q77.5238 26.9318 77.0893 27.1164Q76.6548 27.301 76.1604 27.301Q75.631 27.301 75.1965 27.1164Q74.762 26.9318 74.205 26.6327L21.9963-3.39813Q21.5057-3.68576 21.1525-4.039Q20.7993-4.39224 20.7993-4.96674Q20.7993-5.55496 21.1525-5.9082Q21.5057-6.26144 21.9963-6.54907L44.2558-19.3298L40.1093-21.5256L19.973-9.89685Q18.045-8.82263 17.0547-7.70416Q16.0645-6.58569 16.0645-4.96674Q16.0645-3.36151 17.0547-2.24304Q18.045-1.12457 19.973-0.0366211L71.8437 29.8889Q73.1209 30.6038 74.1024 31.0314Q75.0839 31.459 76.1604 31.459Q77.2011 31.459 78.1826 31.0314Q79.1641 30.6038 80.4413 29.8889L132.327-0.0366211Q134.241-1.12457 135.238-2.24304Q136.234-3.36151 136.234-4.96674Q136.234-6.58569 135.238-7.70416Q134.241-8.82263 132.327-9.89685L112.684-21.2891ZM107.334-50.5936L130.289-37.3985Q130.793-37.1109 131.14-36.7401Q131.487-36.3693 131.487-35.8299Q131.487-35.2554 131.14-34.8846Q130.793-34.5139 130.289-34.2125L78.08-4.21677Q77.5238-3.89633 77.0893-3.72925Q76.6548-3.56216 76.1604-3.56216Q75.631-3.56216 75.1965-3.72925Q74.762-3.89633 74.205-4.21677L21.9963-34.2125Q21.5057-34.5139 21.1525-34.8846Q20.7993-35.2554 20.7993-35.8299Q20.7993-36.3693 21.1525-36.7401Q21.5057-37.1109 21.9963-37.3985L45.3423-50.8339L41.494-53.1189L19.973-40.76Q18.045-39.6507 17.0547-38.5429Q16.0645-37.4352 16.0645-35.8299Q16.0645-34.1759 17.0547-33.0753Q18.045-31.9748 19.973-30.8647L71.8437-0.960541Q73.1209-0.210571 74.1024 0.199509Q75.0839 0.609589 76.1604 0.609589Q77.2011 0.609589 78.1826 0.199509Q79.1641-0.210571 80.4413-0.960541L132.327-30.8647Q134.241-31.9748 135.238-33.0753Q136.234-34.1759 136.234-35.8299Q136.234-37.4352 135.238-38.5429Q134.241-39.6507 132.327-40.76L111.219-52.9335ZM76.1604-31.3438Q77.2011-31.3438 78.1826-31.7715Q79.1641-32.1991 80.4413-32.914L132.327-62.8532Q134.241-63.9626 135.238-65.0631Q136.234-66.1636 136.234-67.7834Q136.234-69.4237 135.238-70.5311Q134.241-71.6385 132.327-72.7127L80.4413-102.639Q79.1641-103.402 78.1826-103.806Q77.2011-104.209 76.1604-104.209Q75.0839-104.209 74.1024-103.806Q73.1209-103.402 71.8437-102.639L19.973-72.7127Q18.045-71.6385 17.0547-70.5311Q16.0645-69.4237 16.0645-67.7834Q16.0645-66.1636 17.0547-65.0631Q18.045-63.9626 19.973-62.8532L71.8437-32.914Q73.1209-32.1991 74.1024-31.7715Q75.0839-31.3438 76.1604-31.3438Z"/>
  </g>
  <g id="Ultralight-L" transform="matrix(1 0 0 1 484.515 1556)">
   <path d="M107.873-19.8616L130.094-7.02057Q130.659-6.6925 131.057-6.29272Q131.455-5.89294 131.455-5.23376Q131.455-4.57687 131.057-4.17747Q130.659-3.77808 130.094-3.45001L76.9417 27.166Q76.4366 27.4239 76.0532 27.5982Q75.6699 27.7725 75.2167 27.7725Q74.7185 27.7725 74.3351 27.5982Q73.9517 27.4239 73.4467 27.166L20.2942-3.45001Q19.7319-3.77808 19.3321-4.17747Q18.9323-4.57687 18.9323-5.23376Q18.9323-5.89294 19.3321-6.29272Q19.7319-6.6925 20.2942-7.02057L43.1076-20.1401L40.3862-21.4943L19.2757-9.32236Q17.7681-8.50449 16.9163-7.56569Q16.0645-6.62689 16.0645-5.23376Q16.0645-3.84293 16.9163-2.90451Q17.7681-1.96609 19.2757-1.14441L71.7209 29.0787Q72.7722 29.66 73.5489 30.0419Q74.3256 30.4237 75.2167 30.4237Q76.0628 30.4237 76.8394 30.0419Q77.6161 29.66 78.6674 29.0787L131.116-1.14441Q132.62-1.96609 133.474-2.90451Q134.327-3.84293 134.327-5.23376Q134.327-6.62689 133.474-7.56569Q132.62-8.50449 131.116-9.32236L110.458-21.2891ZM106.411-51.9066L130.094-38.2805Q130.659-37.9524 131.057-37.5298Q131.455-37.1071 131.455-36.4967Q131.455-35.8406 131.057-35.4179Q130.659-34.9953 130.094-34.6642L76.9417-4.09393Q76.4366-3.7941 76.0532-3.64227Q75.6699-3.49045 75.2167-3.49045Q74.7185-3.49045 74.3351-3.64227Q73.9517-3.7941 73.4467-4.09393L20.2942-34.6642Q19.7319-34.9953 19.3321-35.4179Q18.9323-35.8406 18.9323-36.4967Q18.9323-37.1071 19.3321-37.5298Q19.7319-37.9524 20.2942-38.2805L44.1116-52.0027L41.6481-53.4164L19.2757-40.5853Q17.7681-39.7224 16.9163-38.8046Q16.0645-37.8868 16.0645-36.4967Q16.0645-35.0578 16.9163-34.1415Q17.7681-33.2253 19.2757-32.3624L71.7209-2.18124Q72.7722-1.55411 73.5489-1.19514Q74.3256-0.836182 75.2167-0.836182Q76.0628-0.836182 76.8394-1.19514Q77.6161-1.55411 78.6674-2.18124L131.116-32.3624Q132.62-33.2253 133.474-34.1415Q134.327-35.0578 134.327-36.4967Q134.327-37.8868 133.474-38.8046Q132.62-39.7224 131.116-40.5853L108.994-53.3333ZM75.2167-32.9948Q76.0628-32.9948 76.8394-33.3763Q77.6161-33.7578 78.6674-34.3391L131.116-64.566Q132.62-65.4289 133.474-66.3452Q134.327-67.2615 134.327-68.6546Q134.327-70.0905 133.474-71.0083Q132.62-71.9261 131.116-72.744L78.6674-102.967Q77.6161-103.597 76.8394-103.954Q76.0628-104.311 75.2167-104.311Q74.3256-104.311 73.5489-103.954Q72.7722-103.597 71.7209-102.967L19.2757-72.744Q17.7681-71.9261 16.9163-71.0083Q16.0645-70.0905 16.0645-68.6546Q16.0645-67.2615 16.9163-66.3452Q17.7681-65.4289 19.2757-64.566L71.7209-34.3391Q72.7722-33.7578 73.5489-33.3763Q74.3256-32.9948 75.2167-32.9948Z"/>
  </g>
  <g id="Black-M" transform="matrix(1 0 0 1 2867.58 1126)">
   <path d="M85.3027-17.9688L97.4121-11.2305Q97.6562-11.084 97.6562-10.791Q97.6562-10.5469 97.4121-10.4004L67.041 6.54297Q66.2598 6.93359 65.8203 6.93359Q65.3809 6.93359 64.5996 6.54297L34.2285-10.4004Q33.9844-10.5469 33.9844-10.791Q33.9844-11.084 34.2285-11.2305L48.4863-19.1895L33.2031-29.248L20.459-21.875Q16.6992-19.7266 14.5752-17.1387Q12.4512-14.5508 12.4512-10.791Q12.4512-7.08008 14.5752-4.49219Q16.6992-1.9043 20.459 0.292969L57.2754 21.5332Q59.9121 23.0469 61.8896 23.877Q63.8672 24.707 65.8203 24.707Q67.7734 24.707 69.751 23.877Q71.7285 23.0469 74.3652 21.5332L111.182 0.292969Q114.941-1.9043 117.065-4.49219Q119.189-7.08008 119.189-10.791Q119.189-14.5508 117.065-17.1387Q114.941-19.7266 111.182-21.875L100.146-28.3203ZM85.5469-41.9922L97.4121-35.3516Q97.6562-35.2051 97.6562-34.9121Q97.6562-34.668 97.4121-34.5215L67.041-17.5781Q66.2598-17.1875 65.8203-17.1875Q65.3809-17.1875 64.5996-17.5781L34.2285-34.5215Q33.9844-34.668 33.9844-34.9121Q33.9844-35.2051 34.2285-35.3516L46.6309-42.2852L31.3965-52.2949L20.459-45.9961Q16.6992-43.8477 14.5752-41.2598Q12.4512-38.6719 12.4512-34.9121Q12.4512-31.2012 14.5752-28.6133Q16.6992-26.0254 20.459-23.8281L57.2754-2.58789Q59.9121-1.07422 61.8896-0.244141Q63.8672 0.585938 65.8203 0.585938Q67.7734 0.585938 69.751-0.244141Q71.7285-1.07422 74.3652-2.58789L111.182-23.8281Q114.941-26.0254 117.065-28.6133Q119.189-31.2012 119.189-34.9121Q119.189-38.6719 117.065-41.2598Q114.941-43.8477 111.182-45.9961L101.514-51.5625ZM65.8203-24.2676Q67.7734-24.2676 69.751-25.0977Q71.7285-25.9277 74.3652-27.4414L111.182-48.6816Q114.941-50.8301 117.065-53.418Q119.189-56.0059 119.189-59.7656Q119.189-63.5254 117.065-66.0889Q114.941-68.6523 111.182-70.8496L74.3652-92.0898Q71.7285-93.6035 69.751-94.4336Q67.7734-95.2637 65.8203-95.2637Q63.8672-95.2637 61.8896-94.4336Q59.9121-93.6035 57.2754-92.0898L20.459-70.8496Q16.6992-68.6523 14.5752-66.0889Q12.4512-63.5254 12.4512-59.7656Q12.4512-56.0059 14.5752-53.418Q16.6992-50.8301 20.459-48.6816L57.2754-27.4414Q59.9121-25.9277 61.8896-25.0977Q63.8672-24.2676 65.8203-24.2676Z"/>
  </g>
  <g id="Heavy-M" transform="matrix(1 0 0 1 2571.69 1126)">
   <path d="M85.8215-18.3144L98.4146-11.2534Q98.6931-11.0954 98.6931-10.8139Q98.6931-10.5583 98.4146-10.4004L66.4421 7.56836Q65.5571 8.02841 65.0024 8.02841Q64.4356 8.02841 63.5506 7.56836L31.5781-10.4004Q31.311-10.5583 31.311-10.8139Q31.311-11.0954 31.5781-11.2534L46.0892-19.397L32.4768-28.1761L19.8601-20.8725Q16.2956-18.8164 14.3734-16.4875Q12.4512-14.1586 12.4512-10.8139Q12.4512-7.49512 14.3734-5.16663Q16.2956-2.83813 19.8601-0.743866L57.0107 20.7153Q59.4398 22.113 61.2961 22.8626Q63.1523 23.6122 65.0024 23.6122Q66.8396 23.6122 68.7019 22.8626Q70.5643 22.113 72.9935 20.7153L110.133-0.743866Q113.708-2.83813 115.631-5.16663Q117.553-7.49512 117.553-10.8139Q117.553-14.1586 115.631-16.4875Q113.708-18.8164 110.133-20.8725L98.9594-27.3987ZM85.7544-42.1188L98.4146-34.9945Q98.6931-34.8366 98.6931-34.5436Q98.6931-34.288 98.4146-34.1293L66.4421-16.172Q65.5571-15.7127 65.0024-15.7127Q64.4356-15.7127 63.5506-16.172L31.5781-34.1293Q31.311-34.288 31.311-34.5436Q31.311-34.8366 31.5781-34.9945L44.9364-42.5156L31.4545-51.2924L19.8601-44.6129Q16.2956-42.5568 14.3734-40.2225Q12.4512-37.8883 12.4512-34.5436Q12.4512-31.2355 14.3734-28.9013Q16.2956-26.5671 19.8601-24.485L57.0107-3.01437Q59.4398-1.61591 61.2961-0.866318Q63.1523-0.11673 65.0024-0.11673Q66.8396-0.11673 68.7019-0.866318Q70.5643-1.61591 72.9935-3.01437L110.133-24.485Q113.708-26.5671 115.631-28.9013Q117.553-31.2355 117.553-34.5436Q117.553-37.8883 115.631-40.2225Q113.708-42.5568 110.133-44.6129L99.7391-50.6172ZM65.0024-24.7864Q66.8396-24.7864 68.7019-25.5356Q70.5643-26.2848 72.9935-27.6833L110.133-49.1425Q113.708-51.1986 115.631-53.5275Q117.553-55.8563 117.553-59.2125Q117.553-62.5572 115.631-64.8674Q113.708-67.1776 110.133-69.2711L72.9935-90.7303Q70.5643-92.1288 68.7019-92.878Q66.8396-93.6272 65.0024-93.6272Q63.1523-93.6272 61.2961-92.878Q59.4398-92.1288 57.0107-90.7303L19.8601-69.2711Q16.2956-67.1776 14.3734-64.8674Q12.4512-62.5572 12.4512-59.2125Q12.4512-55.8563 14.3734-53.5275Q16.2956-51.1986 19.8601-49.1425L57.0107-27.6833Q59.4398-26.2848 61.2961-25.5356Q63.1523-24.7864 65.0024-24.7864Z"/>
  </g>
  <g id="Bold-M" transform="matrix(1 0 0 1 2275.89 1126)">
   <path d="M86.4014-18.7012L99.5361-11.2793Q99.8535-11.1084 99.8535-10.8398Q99.8535-10.5713 99.5361-10.4004L65.7715 8.71582Q64.7705 9.25293 64.0869 9.25293Q63.3789 9.25293 62.3779 8.71582L28.6133-10.4004Q28.3203-10.5713 28.3203-10.8398Q28.3203-11.1084 28.6133-11.2793L43.4082-19.6289L31.665-26.9775L19.1895-19.751Q15.8447-17.7979 14.1479-15.7593Q12.4512-13.7207 12.4512-10.8398Q12.4512-7.95898 14.1479-5.92041Q15.8447-3.88184 19.1895-1.9043L56.7139 19.7998Q58.9111 21.0693 60.6323 21.7285Q62.3535 22.3877 64.0869 22.3877Q65.7959 22.3877 67.5293 21.7285Q69.2627 21.0693 71.46 19.7998L108.96-1.9043Q112.329-3.88184 114.026-5.92041Q115.723-7.95898 115.723-10.8398Q115.723-13.7207 114.026-15.7593Q112.329-17.7979 108.96-19.751L97.6318-26.3672ZM85.9863-42.2607L99.5361-34.5947Q99.8535-34.4238 99.8535-34.1309Q99.8535-33.8623 99.5361-33.6914L65.7715-14.5996Q64.7705-14.0625 64.0869-14.0625Q63.3789-14.0625 62.3779-14.5996L28.6133-33.6914Q28.3203-33.8623 28.3203-34.1309Q28.3203-34.4238 28.6133-34.5947L43.042-42.7734L31.5186-50.1709L19.1895-43.0664Q15.8447-41.1133 14.1479-39.0625Q12.4512-37.0117 12.4512-34.1309Q12.4512-31.2744 14.1479-29.2236Q15.8447-27.1729 19.1895-25.2197L56.7139-3.49121Q58.9111-2.22168 60.6323-1.5625Q62.3535-0.90332 64.0869-0.90332Q65.7959-0.90332 67.5293-1.5625Q69.2627-2.22168 71.46-3.49121L108.96-25.2197Q112.329-27.1729 114.026-29.2236Q115.723-31.2744 115.723-34.1309Q115.723-37.0117 114.026-39.0625Q112.329-41.1133 108.96-43.0664L97.7539-49.5605ZM64.0869-25.3662Q65.7959-25.3662 67.5293-26.0254Q69.2627-26.6846 71.46-27.9541L108.96-49.6582Q112.329-51.6113 114.026-53.6499Q115.723-55.6885 115.723-58.5938Q115.723-61.4746 114.026-63.501Q112.329-65.5273 108.96-67.5049L71.46-89.209Q69.2627-90.4785 67.5293-91.1377Q65.7959-91.7969 64.0869-91.7969Q62.3535-91.7969 60.6323-91.1377Q58.9111-90.4785 56.7139-89.209L19.1895-67.5049Q15.8447-65.5273 14.1479-63.501Q12.4512-61.4746 12.4512-58.5938Q12.4512-55.6885 14.1479-53.6499Q15.8447-51.6113 19.1895-49.6582L56.7139-27.9541Q58.9111-26.6846 60.6323-26.0254Q62.3535-25.3662 64.0869-25.3662Z"/>
  </g>
  <g id="Semibold-M" transform="matrix(1 0 0 1 1979.81 1126)">
   <path d="M86.8011-18.9674L100.309-11.2968Q100.653-11.1176 100.653-10.8574Q100.653-10.5804 100.309-10.4004L65.3091 9.50699Q64.2281 10.0975 63.456 10.0975Q62.6503 10.0975 61.5692 9.50699L26.5694-10.4004Q26.2589-10.5804 26.2589-10.8574Q26.2589-11.1176 26.5694-11.2968L41.5596-19.7891L31.105-26.1513L18.7271-18.9781Q15.5334-17.0959 13.9923-15.2573Q12.4512-13.4186 12.4512-10.8574Q12.4512-8.27866 13.9923-6.44035Q15.5334-4.60205 18.7271-2.70386L56.5094 19.1689Q58.5464 20.3491 60.1746 20.9461Q61.8027 21.5431 63.456 21.5431Q65.0757 21.5431 66.7206 20.9461Q68.3655 20.3491 70.4025 19.1689L108.151-2.70386Q111.378-4.60205 112.92-6.44035Q114.461-8.27866 114.461-10.8574Q114.461-13.4186 112.92-15.2573Q111.378-17.0959 108.151-18.9781L96.7163-25.6561ZM86.1465-42.3584L100.309-34.3193Q100.653-34.1393 100.653-33.8463Q100.653-33.5693 100.309-33.3893L65.3091-13.5155Q64.2281-12.925 63.456-12.925Q62.6503-12.925 61.5692-13.5155L26.5694-33.3893Q26.2589-33.5693 26.2589-33.8463Q26.2589-34.1393 26.5694-34.3193L41.7358-42.9512L31.5628-49.398L18.7271-41.9998Q15.5334-40.1176 13.9923-38.2626Q12.4512-36.4075 12.4512-33.8463Q12.4512-31.3011 13.9923-29.4456Q15.5334-27.5902 18.7271-25.7263L56.5094-3.82004Q58.5464-2.63901 60.1746-2.04239Q61.8027-1.44577 63.456-1.44577Q65.0757-1.44577 66.7206-2.04239Q68.3655-2.63901 70.4025-3.82004L108.151-25.7263Q111.378-27.5902 112.92-29.4456Q114.461-31.3011 114.461-33.8463Q114.461-36.4075 112.92-38.2626Q111.378-40.1176 108.151-41.9998L96.3852-48.8319ZM63.456-25.766Q65.0757-25.766 66.7206-26.363Q68.3655-26.96 70.4025-28.141L108.151-50.0137Q111.378-51.8959 112.92-53.7346Q114.461-55.5733 114.461-58.1673Q114.461-60.7285 112.92-62.5591Q111.378-64.3898 108.151-66.2872L70.4025-88.1599Q68.3655-89.341 66.7206-89.938Q65.0757-90.535 63.456-90.535Q61.8027-90.535 60.1746-89.938Q58.5464-89.341 56.5094-88.1599L18.7271-66.2872Q15.5334-64.3898 13.9923-62.5591Q12.4512-60.7285 12.4512-58.1673Q12.4512-55.5733 13.9923-53.7346Q15.5334-51.8959 18.7271-50.0137L56.5094-28.141Q58.5464-26.96 60.1746-26.363Q61.8027-25.766 63.456-25.766Z"/>
  </g>
  <g id="Medium-M" transform="matrix(1 0 0 1 1683.58 1126)">
   <path d="M87.1048-19.1696L100.896-11.3106Q101.26-11.1237 101.26-10.8711Q101.26-10.5865 100.896-10.4004L64.959 10.1067Q63.8176 10.7376 62.9776 10.7376Q62.0979 10.7376 60.9558 10.1067L25.0191-10.4004Q24.6956-10.5865 24.6956-10.8711Q24.6956-11.1237 25.0191-11.3106L40.1581-19.9104L30.6808-25.5241L18.3769-18.3914Q15.2977-16.5634 13.8744-14.8766Q12.4512-13.1897 12.4512-10.8711Q12.4512-8.52127 13.8744-6.83441Q15.2977-5.14755 18.3769-3.31039L56.3545 18.6905Q58.2703 19.8036 59.8274 20.3533Q61.3846 20.903 62.9776 20.903Q64.5302 20.903 66.1072 20.3533Q67.6842 19.8036 69.6007 18.6905L107.538-3.31039Q110.658-5.14755 112.081-6.83441Q113.504-8.52127 113.504-10.8711Q113.504-13.1897 112.081-14.8766Q110.658-16.5634 107.538-18.3914L96.0228-25.1175ZM86.2679-42.4324L100.896-34.1103Q101.26-33.9241 101.26-33.6311Q101.26-33.3466 100.896-33.1604L64.959-12.693Q63.8176-12.0628 62.9776-12.0628Q62.0979-12.0628 60.9558-12.693L25.0191-33.1604Q24.6956-33.3466 24.6956-33.6311Q24.6956-33.9241 25.0191-34.1103L40.7448-43.0862L31.5964-48.8113L18.3769-41.1911Q15.2977-39.3631 13.8744-37.656Q12.4512-35.9489 12.4512-33.6311Q12.4512-31.321 13.8744-29.6143Q15.2977-27.9076 18.3769-26.1101L56.3545-4.06952Q58.2703-2.95639 59.8274-2.40631Q61.3846-1.85623 62.9776-1.85623Q64.5302-1.85623 66.1072-2.40631Q67.6842-2.95639 69.6007-4.06952L107.538-26.1101Q110.658-27.9076 112.081-29.6143Q113.504-31.321 113.504-33.6311Q113.504-35.9489 112.081-37.656Q110.658-39.3631 107.538-41.1911L95.3476-48.2796ZM62.9776-26.0696Q64.5302-26.0696 66.1072-26.6193Q67.6842-27.169 69.6007-28.2822L107.538-50.2831Q110.658-52.1111 112.081-53.7983Q113.504-55.4855 113.504-57.8438Q113.504-60.1624 112.081-61.845Q110.658-63.5277 107.538-65.3641L69.6007-87.365Q67.6842-88.4789 66.1072-89.0285Q64.5302-89.5782 62.9776-89.5782Q61.3846-89.5782 59.8274-89.0285Q58.2703-88.4789 56.3545-87.365L18.3769-65.3641Q15.2977-63.5277 13.8744-61.845Q12.4512-60.1624 12.4512-57.8438Q12.4512-55.4855 13.8744-53.7983Q15.2977-52.1111 18.3769-50.2831L56.3545-28.2822Q58.2703-27.169 59.8274-26.6193Q61.3846-26.0696 62.9776-26.0696Z"/>
  </g>
  <g id="Regular-M" transform="matrix(1 0 0 1 1387.49 1126)">
   <path d="M87.5-19.4336L101.66-11.3281Q102.051-11.1328 102.051-10.8887Q102.051-10.5957 101.66-10.4004L64.502 10.8887Q63.2812 11.5723 62.3535 11.5723Q61.377 11.5723 60.1562 10.8887L22.998-10.4004Q22.6562-10.5957 22.6562-10.8887Q22.6562-11.1328 22.998-11.3281L38.3301-20.0684L30.127-24.707L17.9199-17.627Q14.9902-15.8691 13.7207-14.3799Q12.4512-12.8906 12.4512-10.8887Q12.4512-8.83789 13.7207-7.34863Q14.9902-5.85938 17.9199-4.10156L56.1523 18.0664Q57.9102 19.0918 59.375 19.5801Q60.8398 20.0684 62.3535 20.0684Q63.8184 20.0684 65.3076 19.5801Q66.7969 19.0918 68.5547 18.0664L106.738-4.10156Q109.717-5.85938 110.986-7.34863Q112.256-8.83789 112.256-10.8887Q112.256-12.8906 110.986-14.3799Q109.717-15.8691 106.738-17.627L95.1172-24.4141ZM86.4258-42.5293L101.66-33.8379Q102.051-33.6426 102.051-33.3496Q102.051-33.0566 101.66-32.8613L64.502-11.6211Q63.2812-10.9375 62.3535-10.9375Q61.377-10.9375 60.1562-11.6211L22.998-32.8613Q22.6562-33.0566 22.6562-33.3496Q22.6562-33.6426 22.998-33.8379L39.4531-43.2617L31.6406-48.0469L17.9199-40.1367Q14.9902-38.3789 13.7207-36.8652Q12.4512-35.3516 12.4512-33.3496Q12.4512-31.3477 13.7207-29.834Q14.9902-28.3203 17.9199-26.6113L56.1523-4.39453Q57.9102-3.36914 59.375-2.88086Q60.8398-2.39258 62.3535-2.39258Q63.8184-2.39258 65.3076-2.88086Q66.7969-3.36914 68.5547-4.39453L106.738-26.6113Q109.717-28.3203 110.986-29.834Q112.256-31.3477 112.256-33.3496Q112.256-35.3516 110.986-36.8652Q109.717-38.3789 106.738-40.1367L93.9941-47.5586ZM62.3535-26.4648Q63.8184-26.4648 65.3076-26.9531Q66.7969-27.4414 68.5547-28.4668L106.738-50.6348Q109.717-52.3926 110.986-53.8818Q112.256-55.3711 112.256-57.4219Q112.256-59.4238 110.986-60.9131Q109.717-62.4023 106.738-64.1602L68.5547-86.3281Q66.7969-87.3535 65.3076-87.8418Q63.8184-88.3301 62.3535-88.3301Q60.8398-88.3301 59.375-87.8418Q57.9102-87.3535 56.1523-86.3281L17.9199-64.1602Q14.9902-62.4023 13.7207-60.9131Q12.4512-59.4238 12.4512-57.4219Q12.4512-55.3711 13.7207-53.8818Q14.9902-52.3926 17.9199-50.6348L56.1523-28.4668Q57.9102-27.4414 59.375-26.9531Q60.8398-26.4648 62.3535-26.4648Z"/>
  </g>
  <g id="Light-M" transform="matrix(1 0 0 1 1092.04 1126)">
   <path d="M86.2892-20.6444L101.403-11.9637Q101.991-11.6478 101.991-11.2213Q101.991-10.7773 101.403-10.4607L62.9883 11.5852Q61.8889 12.1925 61.097 12.1925Q60.257 12.1925 59.1576 11.5852L20.7428-10.4607Q20.1889-10.7773 20.1889-11.2213Q20.1889-11.6478 20.7428-11.9637L36.8011-21.1433L30.4901-24.6765L16.9968-16.8701Q14.6118-15.4449 13.5315-14.1979Q12.4512-12.9509 12.4512-11.2213Q12.4512-9.47342 13.5315-8.22639Q14.6118-6.97937 16.9968-5.55496L55.986 16.9914Q57.4409 17.8505 58.6411 18.2709Q59.8412 18.6913 61.097 18.6913Q62.3047 18.6913 63.5216 18.2709Q64.7385 17.8505 66.2086 16.9914L105.149-5.55496Q107.568-6.97937 108.648-8.22639Q109.728-9.47342 109.728-11.2213Q109.728-12.9509 108.648-14.1979Q107.568-15.4449 105.149-16.8701L92.1654-24.4141ZM85.1997-44.2703L101.403-35.0037Q101.991-34.687 101.991-34.2278Q101.991-33.783 101.403-33.4671L62.9883-11.4548Q61.8889-10.8315 61.097-10.8315Q60.257-10.8315 59.1576-11.4548L20.7428-33.4671Q20.1889-33.783 20.1889-34.2278Q20.1889-34.687 20.7428-35.0037L37.8181-44.8059L31.8375-48.4406L16.9968-39.8949Q14.6118-38.485 13.5315-37.2211Q12.4512-35.9573 12.4512-34.2278Q12.4512-32.5134 13.5315-31.2492Q14.6118-29.985 16.9968-28.5942L55.986-6.01425Q57.4409-5.15518 58.6411-4.72755Q59.8412-4.29993 61.097-4.29993Q62.3047-4.29993 63.5216-4.72755Q64.7385-5.15518 66.2086-6.01425L105.149-28.5942Q107.568-29.985 108.648-31.2492Q109.728-32.5134 109.728-34.2278Q109.728-35.9573 108.648-37.2211Q107.568-38.485 105.149-39.8949L91.0423-48.0881ZM61.097-28.6446Q62.3047-28.6446 63.5216-29.0722Q64.7385-29.4998 66.2086-30.3436L105.149-52.9053Q107.568-54.3152 108.648-55.5698Q109.728-56.8245 109.728-58.5724Q109.728-60.2867 108.648-61.5414Q107.568-62.796 105.149-64.2059L66.2086-86.7668Q64.7385-87.6106 63.5216-88.0386Q62.3047-88.4666 61.097-88.4666Q59.8412-88.4666 58.6411-88.0386Q57.4409-87.6106 55.986-86.7668L16.9968-64.2059Q14.6118-62.796 13.5315-61.5414Q12.4512-60.2867 12.4512-58.5724Q12.4512-56.8245 13.5315-55.5698Q14.6118-54.3152 16.9968-52.9053L55.986-30.3436Q57.4409-29.4998 58.6411-29.0722Q59.8412-28.6446 61.097-28.6446Z"/>
  </g>
  <g id="Thin-M" transform="matrix(1 0 0 1 797.004 1126)">
   <path d="M84.6878-22.2458L101.063-12.8044Q101.91-12.3283 101.91-11.6623Q101.91-11.0176 101.063-10.5408L60.9863 12.5061Q60.0471 13.0135 59.436 13.0135Q58.7753 13.0135 57.8362 12.5061L17.7597-10.5408Q16.9258-11.0176 16.9258-11.6623Q16.9258-12.3283 17.7597-12.8044L34.7794-22.5647L30.9708-24.6368L15.7753-15.8691Q14.1113-14.8849 13.2812-13.958Q12.4512-13.031 12.4512-11.6623Q12.4512-10.3142 13.2812-9.38759Q14.1113-8.461 15.7753-7.47681L55.7655 15.5701Q56.8207 16.2094 57.6702 16.5394Q58.5197 16.8694 59.436 16.8694Q60.3027 16.8694 61.1591 16.5394Q62.0155 16.2094 63.1058 15.5701L103.047-7.47681Q104.725-8.461 105.555-9.38759Q106.385-10.3142 106.385-11.6623Q106.385-13.031 105.555-13.958Q104.725-14.8849 103.047-15.8691L88.2622-24.4141ZM83.5785-46.5721L101.063-36.5448Q101.91-36.068 101.91-35.3889Q101.91-34.7443 101.063-34.2674L60.9863-11.2343Q60.0471-10.6911 59.436-10.6911Q58.7753-10.6911 57.8362-11.2343L17.7597-34.2674Q16.9258-34.7443 16.9258-35.3889Q16.9258-36.068 17.7597-36.5448L35.6567-46.8475L32.0976-48.9609L15.7753-39.5744Q14.1113-38.6253 13.2812-37.6915Q12.4512-36.7577 12.4512-35.3889Q12.4512-34.0546 13.2812-33.1211Q14.1113-32.1877 15.7753-31.2164L55.7655-8.15582Q56.8207-7.51724 57.6702-7.16972Q58.5197-6.8222 59.436-6.8222Q60.3027-6.8222 61.1591-7.16972Q62.0155-7.51724 63.1058-8.15582L103.047-31.2164Q104.725-32.1877 105.555-33.1211Q106.385-34.0546 106.385-35.3889Q106.385-36.7577 105.555-37.6915Q104.725-38.6253 103.047-39.5744L87.1391-48.7892ZM59.436-31.5269Q60.3027-31.5269 61.1591-31.8748Q62.0155-32.2227 63.1058-32.8262L103.047-55.9082Q104.725-56.8573 105.555-57.8018Q106.385-58.7463 106.385-60.0937Q106.385-61.4273 105.555-62.3718Q104.725-63.3163 103.047-64.2654L63.1058-87.3474Q62.0155-87.9509 61.1591-88.2988Q60.3027-88.6467 59.436-88.6467Q58.5197-88.6467 57.6702-88.2988Q56.8207-87.9509 55.7655-87.3474L15.7753-64.2654Q14.1113-63.3163 13.2812-62.3718Q12.4512-61.4273 12.4512-60.0937Q12.4512-58.7463 13.2812-57.8018Q14.1113-56.8573 15.7753-55.9082L55.7655-32.8262Q56.8207-32.2227 57.6702-31.8748Q58.5197-31.5269 59.436-31.5269Z"/>
  </g>
  <g id="Ultralight-M" transform="matrix(1 0 0 1 501.149 1126)">
   <path d="M83.8669-23.0667L100.888-13.2355Q101.869-12.677 101.869-11.8874Q101.869-11.1404 100.888-10.582L59.9609 12.9776Q59.1034 13.4338 58.5846 13.4338Q58.017 13.4338 57.1594 12.9776L16.2323-10.582Q15.2542-11.1404 15.2542-11.8874Q15.2542-12.677 16.2323-13.2355L33.744-23.2925L31.2164-24.6162L15.1497-15.3564Q13.855-14.5973 13.1531-13.8348Q12.4512-13.0722 12.4512-11.8874Q12.4512-10.7452 13.1531-9.9823Q13.855-9.21936 15.1497-8.461L55.6526 14.8422Q56.5025 15.3679 57.1728 15.6521Q57.843 15.9363 58.5846 15.9363Q59.2773 15.9363 59.9491 15.6521Q60.6209 15.3679 61.5158 14.8422L101.97-8.461Q103.268-9.21936 103.97-9.9823Q104.672-10.7452 104.672-11.8874Q104.672-13.0722 103.97-13.8348Q103.268-14.5973 101.97-15.3564L86.2625-24.4141ZM82.7477-47.7516L100.888-37.3344Q101.869-36.776 101.869-35.9833Q101.869-35.2364 100.888-34.6779L59.9609-11.1214Q59.1034-10.6194 58.5846-10.6194Q58.017-10.6194 57.1594-11.1214L16.2323-34.6779Q15.2542-35.2364 15.2542-35.9833Q15.2542-36.776 16.2323-37.3344L34.549-47.8935L32.2311-49.2279L15.1497-39.4104Q13.855-38.6971 13.1531-37.9326Q12.4512-37.1681 12.4512-35.9833Q12.4512-34.8442 13.1531-34.0797Q13.855-33.3153 15.1497-32.56L55.6526-9.25369Q56.5025-8.72726 57.1728-8.42056Q57.843-8.11386 58.5846-8.11386Q59.2773-8.11386 59.9491-8.42056Q60.6209-8.72726 61.5158-9.25369L101.97-32.56Q103.268-33.3153 103.97-34.0797Q104.672-34.8442 104.672-35.9833Q104.672-37.1681 103.97-37.9326Q103.268-38.6971 101.97-39.4104L85.1395-49.1478ZM58.5846-33.004Q59.2773-33.004 59.9491-33.3107Q60.6209-33.6174 61.5158-34.0973L101.97-57.4463Q103.268-58.1596 103.97-58.9451Q104.672-59.7305 104.672-60.8727Q104.672-62.0125 103.97-62.7979Q103.268-63.5834 101.97-64.2967L61.5158-87.645Q60.6209-88.1256 59.9491-88.4323Q59.2773-88.739 58.5846-88.739Q57.843-88.739 57.1728-88.4323Q56.5025-88.1256 55.6526-87.645L15.1497-64.2967Q13.855-63.5834 13.1531-62.7979Q12.4512-62.0125 12.4512-60.8727Q12.4512-59.7305 13.1531-58.9451Q13.855-58.1596 15.1497-57.4463L55.6526-34.0973Q56.5025-33.6174 57.1728-33.3107Q57.843-33.004 58.5846-33.004Z"/>
  </g>
  <g id="Black-S" transform="matrix(1 0 0 1 2881.64 696)">
   <path d="M66.6016-21.6797L76.0254-16.4551Q76.2207-16.3086 76.2207-16.1133Q76.2207-15.918 76.0254-15.7715L52.6367-2.7832Q52.0508-2.49023 51.7578-2.49023Q51.4648-2.49023 50.8789-2.7832L27.4902-15.7715Q27.2949-15.918 27.2949-16.1133Q27.2949-16.3086 27.4902-16.4551L38.623-22.6562L26.2695-30.8594L16.1621-25.0488Q13.1836-23.3398 11.4746-21.2402Q9.76562-19.1406 9.76562-16.1133Q9.76562-13.0859 11.4746-10.9863Q13.1836-8.88672 16.1621-7.17773L44.9707 9.42383Q47.0703 10.6445 48.6572 11.3037Q50.2441 11.9629 51.7578 11.9629Q53.3203 11.9629 54.8828 11.3037Q56.4453 10.6445 58.5449 9.42383L87.3535-7.17773Q90.332-8.88672 92.041-10.9863Q93.75-13.0859 93.75-16.1133Q93.75-19.1406 92.041-21.2402Q90.332-23.3398 87.3535-25.0488L78.6621-30.0781ZM66.8945-40.5762L76.0254-35.498Q76.2207-35.3516 76.2207-35.1562Q76.2207-34.9609 76.0254-34.8145L52.6367-21.8262Q52.0508-21.5332 51.7578-21.5332Q51.4648-21.5332 50.8789-21.8262L27.4902-34.8145Q27.2949-34.9609 27.2949-35.1562Q27.2949-35.3516 27.4902-35.498L36.9629-40.7715L24.6094-48.9258L16.1621-44.0918Q13.1836-42.3828 11.4746-40.2832Q9.76562-38.1836 9.76562-35.1562Q9.76562-32.1289 11.4746-30.0293Q13.1836-27.9297 16.1621-26.2207L44.9707-9.61914Q47.0703-8.39844 48.6572-7.73926Q50.2441-7.08008 51.7578-7.08008Q53.3203-7.08008 54.8828-7.73926Q56.4453-8.39844 58.5449-9.61914L87.3535-26.2207Q90.332-27.9297 92.041-30.0293Q93.75-32.1289 93.75-35.1562Q93.75-38.1836 92.041-40.2832Q90.332-42.3828 87.3535-44.0918L79.9316-48.3398ZM51.7578-26.6113Q53.3203-26.6113 54.8828-27.2705Q56.4453-27.9297 58.5449-29.1504L87.3535-45.752Q90.332-47.4609 92.041-49.5605Q93.75-51.6602 93.75-54.6875Q93.75-57.7148 92.041-59.8145Q90.332-61.9141 87.3535-63.623L58.5449-80.2246Q56.4453-81.4453 54.8828-82.1045Q53.3203-82.7637 51.7578-82.7637Q50.2441-82.7637 48.6572-82.1045Q47.0703-81.4453 44.9707-80.2246L16.1621-63.623Q13.1836-61.9141 11.4746-59.8145Q9.76562-57.7148 9.76562-54.6875Q9.76562-51.6602 11.4746-49.5605Q13.1836-47.4609 16.1621-45.752L44.9707-29.1504Q47.0703-27.9297 48.6572-27.2705Q50.2441-26.6113 51.7578-26.6113Z"/>
  </g>
  <g id="Heavy-S" transform="matrix(1 0 0 1 2585.47 696)">
   <path d="M67.2005-21.8178L76.9127-16.3971Q77.108-16.2628 77.108-16.0789Q77.108-15.8951 76.9127-15.76L52.314-1.99966Q51.6357-1.63727 51.2161-1.63727Q50.7965-1.63727 50.1183-1.99966L25.5196-15.76Q25.3242-15.8951 25.3242-16.0789Q25.3242-16.2628 25.5196-16.3971L36.7676-22.6906L25.6012-29.9492L15.77-24.2882Q12.8838-22.6135 11.3247-20.7043Q9.76562-18.795 9.76562-16.0789Q9.76562-13.3629 11.3247-11.4532Q12.8838-9.54361 15.77-7.8804L44.7517 8.8707Q46.7247 10.0105 48.2426 10.6121Q49.7604 11.2137 51.2161 11.2137Q52.7092 11.2137 54.2084 10.6121Q55.7076 10.0105 57.6805 8.8707L86.6623-7.8804Q89.5485-9.54361 91.1076-11.4532Q92.6666-13.3629 92.6666-16.0789Q92.6666-18.795 91.1076-20.7043Q89.5485-22.6135 86.6623-24.2882L78.0281-29.2946ZM67.2287-40.4724L76.9127-35.0487Q77.108-34.9136 77.108-34.7298Q77.108-34.5459 76.9127-34.4109L52.314-20.639Q51.6357-20.2888 51.2161-20.2888Q50.7965-20.2888 50.1183-20.639L25.5196-34.4109Q25.3242-34.5459 25.3242-34.7298Q25.3242-34.9136 25.5196-35.0487L35.73-40.7715L24.6323-48.0156L15.77-42.9276Q12.8838-41.2651 11.3247-39.3555Q9.76562-37.4458 9.76562-34.7298Q9.76562-32.0137 11.3247-30.1041Q12.8838-28.1944 15.77-26.5205L44.7517-9.78012Q46.7247-8.64029 48.2426-8.03871Q49.7604-7.43713 51.2161-7.43713Q52.7092-7.43713 54.2084-8.03871Q55.7076-8.64029 57.6805-9.78012L86.6623-26.5205Q89.5485-28.1944 91.1076-30.1041Q92.6666-32.0137 92.6666-34.7298Q92.6666-37.4458 91.1076-39.3555Q89.5485-41.2651 86.6623-42.9276L78.791-47.464ZM51.2161-26.7723Q52.7092-26.7723 54.2084-27.3739Q55.7076-27.9755 57.6805-29.1161L86.6623-45.8557Q89.5485-47.5189 91.1076-49.4339Q92.6666-51.3489 92.6666-54.0649Q92.6666-56.781 91.1076-58.6906Q89.5485-60.6003 86.6623-62.2635L57.6805-79.0031Q55.7076-80.1544 54.2084-80.7503Q52.7092-81.3461 51.2161-81.3461Q49.7604-81.3461 48.2426-80.7503Q46.7247-80.1544 44.7517-79.0031L15.77-62.2635Q12.8838-60.6003 11.3247-58.6906Q9.76562-56.781 9.76562-54.0649Q9.76562-51.3489 11.3247-49.4339Q12.8838-47.5189 15.77-45.8557L44.7517-29.1161Q46.7247-27.9755 48.2426-27.3739Q49.7604-26.7723 51.2161-26.7723Z"/>
  </g>
  <g id="Bold-S" transform="matrix(1 0 0 1 2289.37 696)">
   <path d="M67.8711-21.9727L77.9053-16.333Q78.1006-16.2109 78.1006-16.04Q78.1006-15.8691 77.9053-15.7471L51.9531-1.12305Q51.1719-0.683594 50.6104-0.683594Q50.0488-0.683594 49.2676-1.12305L23.3154-15.7471Q23.1201-15.8691 23.1201-16.04Q23.1201-16.2109 23.3154-16.333L34.6924-22.7295L24.8535-28.9307L15.332-23.4375Q12.5488-21.8018 11.1572-20.105Q9.76562-18.4082 9.76562-16.04Q9.76562-13.6719 11.1572-11.9751Q12.5488-10.2783 15.332-8.66699L44.5068 8.25195Q46.3379 9.30176 47.7783 9.83887Q49.2188 10.376 50.6104 10.376Q52.0264 10.376 53.4546 9.83887Q54.8828 9.30176 56.7139 8.25195L85.8887-8.66699Q88.6719-10.2783 90.0635-11.9751Q91.4551-13.6719 91.4551-16.04Q91.4551-18.4082 90.0635-20.105Q88.6719-21.8018 85.8887-23.4375L77.3193-28.418ZM67.6025-40.3564L77.9053-34.5459Q78.1006-34.4238 78.1006-34.2529Q78.1006-34.082 77.9053-33.96L51.9531-19.3115Q51.1719-18.8965 50.6104-18.8965Q50.0488-18.8965 49.2676-19.3115L23.3154-33.96Q23.1201-34.082 23.1201-34.2529Q23.1201-34.4238 23.3154-34.5459L34.3506-40.7715L24.6582-46.9971L15.332-41.626Q12.5488-40.0146 11.1572-38.3179Q9.76562-36.6211 9.76562-34.2529Q9.76562-31.8848 11.1572-30.188Q12.5488-28.4912 15.332-26.8555L44.5068-9.96094Q46.3379-8.91113 47.7783-8.37402Q49.2188-7.83691 50.6104-7.83691Q52.0264-7.83691 53.4546-8.37402Q54.8828-8.91113 56.7139-9.96094L85.8887-26.8555Q88.6719-28.4912 90.0635-30.188Q91.4551-31.8848 91.4551-34.2529Q91.4551-36.6211 90.0635-38.3179Q88.6719-40.0146 85.8887-41.626L77.5146-46.4844ZM50.6104-26.9531Q52.0264-26.9531 53.4546-27.4902Q54.8828-28.0273 56.7139-29.0771L85.8887-45.9717Q88.6719-47.583 90.0635-49.292Q91.4551-51.001 91.4551-53.3691Q91.4551-55.7373 90.0635-57.4341Q88.6719-59.1309 85.8887-60.7422L56.7139-77.6367Q54.8828-78.7109 53.4546-79.2358Q52.0264-79.7607 50.6104-79.7607Q49.2188-79.7607 47.7783-79.2358Q46.3379-78.7109 44.5068-77.6367L15.332-60.7422Q12.5488-59.1309 11.1572-57.4341Q9.76562-55.7373 9.76562-53.3691Q9.76562-51.001 11.1572-49.292Q12.5488-47.583 15.332-45.9717L44.5068-29.0771Q46.3379-28.0273 47.7783-27.4902Q49.2188-26.9531 50.6104-26.9531Z"/>
  </g>
  <g id="Semibold-S" transform="matrix(1 0 0 1 1993.07 696)">
   <path d="M68.3334-22.0795L78.5896-16.2888Q78.7849-16.1751 78.7849-16.0133Q78.7849-15.8516 78.5896-15.7379L51.7044-0.518799Q50.8522-0.0259399 50.193-0.0259399Q49.5331-0.0259399 48.6809-0.518799L21.7957-15.7379Q21.6003-15.8516 21.6003-16.0133Q21.6003-16.1751 21.7957-16.2888L33.2619-22.7562L24.3378-28.2288L15.0299-22.8508Q12.3177-21.2418 11.0416-19.6918Q9.76562-18.1419 9.76562-16.0133Q9.76562-13.8855 11.0416-12.3352Q12.3177-10.7849 15.0299-9.20944L44.3382 7.82547Q46.0716 8.81271 47.4586 9.30557Q48.8457 9.79843 50.193 9.79843Q51.5556 9.79843 52.935 9.30557Q54.3144 8.81271 56.0471 7.82547L85.3554-9.20944Q88.0676-10.7849 89.3436-12.3352Q90.6197-13.8855 90.6197-16.0133Q90.6197-18.1419 89.3436-19.6918Q88.0676-21.2418 85.3554-22.8508L76.8303-27.8137ZM67.8604-40.2763L78.5896-34.1995Q78.7849-34.0858 78.7849-33.9241Q78.7849-33.7624 78.5896-33.6487L51.7044-18.396Q50.8522-17.9367 50.193-17.9367Q49.5331-17.9367 48.6809-18.396L21.7957-33.6487Q21.6003-33.7624 21.6003-33.9241Q21.6003-34.0858 21.7957-34.1995L33.4-40.7715L24.6758-46.2952L15.0299-40.7288Q12.3177-39.1525 11.0416-37.6026Q9.76562-36.0527 9.76562-33.9241Q9.76562-31.7963 11.0416-30.246Q12.3177-28.6957 15.0299-27.0866L44.3382-10.0853Q46.0716-9.09805 47.4586-8.60519Q48.8457-8.11234 50.193-8.11234Q51.5556-8.11234 52.935-8.60519Q54.3144-9.09805 56.0471-10.0853L85.3554-27.0866Q88.0676-28.6957 89.3436-30.246Q90.6197-31.7963 90.6197-33.9241Q90.6197-36.0527 89.3436-37.6026Q88.0676-39.1525 85.3554-40.7288L76.635-45.8092ZM50.193-27.0775Q51.5556-27.0775 52.935-27.5703Q54.3144-28.0632 56.0471-29.0504L85.3554-46.0518Q88.0676-47.6273 89.3436-49.194Q90.6197-50.7607 90.6197-52.8893Q90.6197-55.0171 89.3436-56.5674Q88.0676-58.1177 85.3554-59.6931L56.0471-76.6945Q54.3144-77.7153 52.935-78.1914Q51.5556-78.6674 50.193-78.6674Q48.8457-78.6674 47.4586-78.1914Q46.0716-77.7153 44.3382-76.6945L15.0299-59.6931Q12.3177-58.1177 11.0416-56.5674Q9.76562-55.0171 9.76562-52.8893Q9.76562-50.7607 11.0416-49.194Q12.3177-47.6273 15.0299-46.0518L44.3382-29.0504Q46.0716-28.0632 47.4586-27.5703Q48.8457-27.0775 50.193-27.0775Z"/>
  </g>
  <g id="Medium-S" transform="matrix(1 0 0 1 1696.68 696)">
   <path d="M68.6836-22.1603L79.1084-16.2552Q79.3037-16.1484 79.3037-15.9935Q79.3037-15.8379 79.1084-15.7318L51.516-0.0602722Q50.6096 0.473022 49.8756 0.473022Q49.1425 0.473022 48.2361-0.0602722L20.6436-15.7318Q20.4483-15.8379 20.4483-15.9935Q20.4483-16.1484 20.6436-16.2552L32.177-22.776L23.9471-27.6962L14.801-22.406Q12.1429-20.8176 10.9543-19.3787Q9.76562-17.9398 9.76562-15.9935Q9.76562-14.0472 10.9543-12.608Q12.1429-11.1687 14.801-9.6199L44.2101 7.50198Q45.8694 8.44269 47.216 8.9016Q48.5626 9.3605 49.8756 9.3605Q51.1986 9.3605 52.5406 8.9016Q53.8826 8.44269 55.542 7.50198L84.951-9.6199Q87.6091-11.1687 88.7978-12.608Q89.9864-14.0472 89.9864-15.9935Q89.9864-17.9398 88.7978-19.3787Q87.6091-20.8176 84.951-22.406L76.4603-27.3552ZM68.0557-40.2161L79.1084-33.9363Q79.3037-33.8303 79.3037-33.6746Q79.3037-33.5197 79.1084-33.4129L51.516-17.7025Q50.6096-17.2089 49.8756-17.2089Q49.1425-17.2089 48.2361-17.7025L20.6436-33.4129Q20.4483-33.5197 20.4483-33.6746Q20.4483-33.8303 20.6436-33.9363L32.679-40.7715L24.6895-45.7626L14.801-40.0475Q12.1429-38.4987 10.9543-37.0598Q9.76562-35.6209 9.76562-33.6746Q9.76562-31.7284 10.9543-30.2895Q12.1429-28.8506 14.801-27.2614L44.2101-10.1799Q45.8694-9.2392 47.216-8.78029Q48.5626-8.32138 49.8756-8.32138Q51.1986-8.32138 52.5406-8.78029Q53.8826-9.2392 55.542-10.1799L84.951-27.2614Q87.6091-28.8506 88.7978-30.2895Q89.9864-31.7284 89.9864-33.6746Q89.9864-35.6209 88.7978-37.0598Q87.6091-38.4987 84.951-40.0475L75.9674-45.2965ZM49.8756-27.1721Q51.1986-27.1721 52.5406-27.631Q53.8826-28.0899 55.542-29.0306L84.951-46.1121Q87.6091-47.6608 88.7978-49.1199Q89.9864-50.5791 89.9864-52.5253Q89.9864-54.4716 88.7978-55.9105Q87.6091-57.3494 84.951-58.8982L55.542-75.9804Q53.8826-76.9608 52.5406-77.3998Q51.1986-77.8389 49.8756-77.8389Q48.5626-77.8389 47.216-77.3998Q45.8694-76.9608 44.2101-75.9804L14.801-58.8982Q12.1429-57.3494 10.9543-55.9105Q9.76562-54.4716 9.76562-52.5253Q9.76562-50.5791 10.9543-49.1199Q12.1429-47.6608 14.801-46.1121L44.2101-29.0306Q45.8694-28.0899 47.216-27.631Q48.5626-27.1721 49.8756-27.1721Z"/>
  </g>
  <g id="Regular-S" transform="matrix(1 0 0 1 1400.38 696)">
   <path d="M69.1406-22.2656L79.7852-16.2109Q79.9805-16.1133 79.9805-15.9668Q79.9805-15.8203 79.7852-15.7227L51.2695 0.537109Q50.293 1.12305 49.4629 1.12305Q48.6328 1.12305 47.6562 0.537109L19.1406-15.7227Q18.9453-15.8203 18.9453-15.9668Q18.9453-16.1133 19.1406-16.2109L30.7617-22.8027L23.4375-27.002L14.502-21.8262Q11.9141-20.2637 10.8398-18.9697Q9.76562-17.6758 9.76562-15.9668Q9.76562-14.2578 10.8398-12.9639Q11.9141-11.6699 14.502-10.1562L44.043 7.08008Q45.6055 7.95898 46.8994 8.37402Q48.1934 8.78906 49.4629 8.78906Q50.7324 8.78906 52.0264 8.37402Q53.3203 7.95898 54.8828 7.08008L84.4238-10.1562Q87.0117-11.6699 88.0859-12.9639Q89.1602-14.2578 89.1602-15.9668Q89.1602-17.6758 88.0859-18.9697Q87.0117-20.2637 84.4238-21.8262L75.9766-26.7578ZM68.3105-40.1367L79.7852-33.5938Q79.9805-33.4961 79.9805-33.3496Q79.9805-33.2031 79.7852-33.1055L51.2695-16.7969Q50.293-16.2598 49.4629-16.2598Q48.6328-16.2598 47.6562-16.7969L19.1406-33.1055Q18.9453-33.2031 18.9453-33.3496Q18.9453-33.4961 19.1406-33.5938L31.7383-40.7715L24.707-45.0684L14.502-39.1602Q11.9141-37.6465 10.8398-36.3525Q9.76562-35.0586 9.76562-33.3496Q9.76562-31.6406 10.8398-30.3467Q11.9141-29.0527 14.502-27.4902L44.043-10.3027Q45.6055-9.42383 46.8994-9.00879Q48.1934-8.59375 49.4629-8.59375Q50.7324-8.59375 52.0264-9.00879Q53.3203-9.42383 54.8828-10.3027L84.4238-27.4902Q87.0117-29.0527 88.0859-30.3467Q89.1602-31.6406 89.1602-33.3496Q89.1602-35.0586 88.0859-36.3525Q87.0117-37.6465 84.4238-39.1602L75.0977-44.6289ZM49.4629-27.2949Q50.7324-27.2949 52.0264-27.71Q53.3203-28.125 54.8828-29.0039L84.4238-46.1914Q87.0117-47.7051 88.0859-49.0234Q89.1602-50.3418 89.1602-52.0508Q89.1602-53.7598 88.0859-55.0537Q87.0117-56.3477 84.4238-57.8613L54.8828-75.0488Q53.3203-75.9766 52.0264-76.3672Q50.7324-76.7578 49.4629-76.7578Q48.1934-76.7578 46.8994-76.3672Q45.6055-75.9766 44.043-75.0488L14.502-57.8613Q11.9141-56.3477 10.8398-55.0537Q9.76562-53.7598 9.76562-52.0508Q9.76562-50.3418 10.8398-49.0234Q11.9141-47.7051 14.502-46.1914L44.043-29.0039Q45.6055-28.125 46.8994-27.71Q48.1934-27.2949 49.4629-27.2949Z"/>
  </g>
  <g id="Light-S" transform="matrix(1 0 0 1 1104.78 696)">
   <path d="M68.0656-23.3406L79.5578-16.7709Q79.9347-16.5672 79.9347-16.2697Q79.9347-15.9866 79.5578-15.7829L49.9374 1.15738Q49.0517 1.68304 48.3429 1.68304Q47.6486 1.68304 46.7628 1.15738L17.1425-15.7829Q16.7656-15.9866 16.7656-16.2697Q16.7656-16.5672 17.1425-16.7709L29.4144-23.7564L23.7556-26.9714L13.6848-21.1449Q11.5959-19.8853 10.6808-18.8107Q9.76562-17.7361 9.76562-16.2697Q9.76562-14.8178 10.6808-13.736Q11.5959-12.6541 13.6848-11.4426L43.9064 6.1264Q45.1965 6.85425 46.2482 7.20863Q47.3 7.56302 48.3429 7.56302Q49.4003 7.56302 50.452 7.20863Q51.5038 6.85425 52.7939 6.1264L83.0162-11.4426Q85.1044-12.6541 86.0199-13.736Q86.9354-14.8178 86.9354-16.2697Q86.9354-17.7361 86.0199-18.8107Q85.1044-19.8853 83.0162-21.1449L73.3582-26.7578ZM67.2211-41.6656L79.5578-34.6077Q79.9347-34.404 79.9347-34.1217Q79.9347-33.8387 79.5578-33.6349L49.9374-16.6603Q49.0517-16.169 48.3429-16.169Q47.6486-16.169 46.7628-16.6603L17.1425-33.6349Q16.7656-33.8387 16.7656-34.1217Q16.7656-34.404 17.1425-34.6077L30.2849-42.1341L24.8734-45.4315L13.6848-38.9633Q11.5959-37.7373 10.6808-36.6627Q9.76562-35.5881 9.76562-34.1217Q9.76562-32.6698 10.6808-31.588Q11.5959-30.5061 13.6848-29.261L43.9064-11.7256Q45.1965-10.9978 46.2482-10.6358Q47.3-10.2737 48.3429-10.2737Q49.4003-10.2737 50.452-10.6358Q51.5038-10.9978 52.7939-11.7256L83.0162-29.261Q85.1044-30.5061 86.0199-31.588Q86.9354-32.6698 86.9354-34.1217Q86.9354-35.5881 86.0199-36.6627Q85.1044-37.7373 83.0162-38.9633L72.4792-45.0981ZM48.3429-29.2328Q49.4003-29.2328 50.452-29.5872Q51.5038-29.9416 52.7939-30.6686L83.0162-48.2048Q85.1044-49.4156 86.0199-50.5146Q86.9354-51.6136 86.9354-53.0647Q86.9354-54.5319 86.0199-55.6061Q85.1044-56.6803 83.0162-57.9071L52.7939-75.4425Q51.5038-76.2039 50.452-76.5415Q49.4003-76.8791 48.3429-76.8791Q47.3-76.8791 46.2482-76.5415Q45.1965-76.2039 43.9064-75.4425L13.6848-57.9071Q11.5959-56.6803 10.6808-55.6061Q9.76562-54.5319 9.76562-53.0647Q9.76562-51.6136 10.6808-50.5146Q11.5959-49.4156 13.6848-48.2048L43.9064-30.6686Q45.1965-29.9416 46.2482-29.5872Q47.3-29.2328 48.3429-29.2328Z"/>
  </g>
  <g id="Thin-S" transform="matrix(1 0 0 1 809.543 696)">
   <path d="M66.6443-24.762L79.258-17.5117Q79.8752-17.1677 79.8752-16.6702Q79.8752-16.2071 79.258-15.863L48.1758 1.9783Q47.4106 2.42386 46.8613 2.42386Q46.3478 2.42386 45.5818 1.9783L14.5004-15.863Q13.8832-16.2071 13.8832-16.6702Q13.8832-17.1677 14.5004-17.5117L27.6329-25.0175L24.176-26.9318L12.6038-20.2438Q11.1755-19.3848 10.4706-18.6005Q9.76562-17.8162 9.76562-16.6702Q9.76562-15.5586 10.4706-14.7568Q11.1755-13.9549 12.6038-13.1447L43.7263 4.86526Q44.6564 5.39246 45.3876 5.66711Q46.1189 5.94177 46.8613 5.94177Q47.6387 5.94177 48.3704 5.66711Q49.102 5.39246 50.0313 4.86526L81.1546-13.1447Q82.5821-13.9549 83.2874-14.7568Q83.9928-15.5586 83.9928-16.6702Q83.9928-17.8162 83.2874-18.6005Q82.5821-19.3848 81.1546-20.2438L69.8944-26.7578ZM65.7791-43.6874L79.258-35.9489Q79.8752-35.6056 79.8752-35.1425Q79.8752-34.6794 79.258-34.3361L48.1758-16.4803Q47.4106-16.0492 46.8613-16.0492Q46.3478-16.0492 45.5818-16.4803L14.5004-34.3361Q13.8832-34.6794 13.8832-35.1425Q13.8832-35.6056 14.5004-35.9489L28.3638-43.9354L25.0938-45.9122L12.6038-38.7032Q11.1755-37.8571 10.4706-37.0731Q9.76562-36.2892 9.76562-35.1425Q9.76562-34.0309 10.4706-33.2294Q11.1755-32.428 12.6038-31.6032L43.7263-13.607Q44.6564-13.0798 45.3876-12.788Q46.1189-12.4962 46.8613-12.4962Q47.6387-12.4962 48.3704-12.788Q49.102-13.0798 50.0313-13.607L81.1546-31.6032Q82.5821-32.428 83.2874-33.2294Q83.9928-34.0309 83.9928-35.1425Q83.9928-36.2892 83.2874-37.0731Q82.5821-37.8571 81.1546-38.7032L69.0155-45.7184ZM46.8613-31.7947Q47.6387-31.7947 48.3704-32.069Q49.102-32.3433 50.0313-32.8712L81.1546-50.8667Q82.5821-51.6777 83.2874-52.4864Q83.9928-53.2951 83.9928-54.406Q83.9928-55.5527 83.2874-56.337Q82.5821-57.1213 81.1546-57.9666L50.0313-75.9628Q49.102-76.5038 48.3704-76.7715Q47.6387-77.0393 46.8613-77.0393Q46.1189-77.0393 45.3876-76.7715Q44.6564-76.5038 43.7263-75.9628L12.6038-57.9666Q11.1755-57.1213 10.4706-56.337Q9.76562-55.5527 9.76562-54.406Q9.76562-53.2951 10.4706-52.4864Q11.1755-51.6777 12.6038-50.8667L43.7263-32.8712Q44.6564-32.3433 45.3876-32.069Q46.1189-31.7947 46.8613-31.7947Z"/>
  </g>
  <g id="Ultralight-S" transform="matrix(1 0 0 1 513.586 696)">
   <path d="M65.9164-25.4898L79.1039-17.8909Q79.8439-17.4759 79.8439-16.8747Q79.8439-16.32 79.1039-15.9042L47.2733 2.39868Q46.5691 2.80304 46.1029 2.80304Q45.681 2.80304 44.9768 2.39868L13.1462-15.9042Q12.4062-16.32 12.4062-16.8747Q12.4062-17.4759 13.1462-17.8909L26.7204-25.6638L24.3912-26.9112L12.0499-19.783Q10.9604-19.1284 10.363-18.4929Q9.76562-17.8574 9.76562-16.8747Q9.76562-15.9378 10.363-15.2798Q10.9604-14.6217 12.0499-14.016L43.634 4.21906Q44.3794 4.64401 44.9467 4.87747Q45.5139 5.11093 46.1029 5.11093Q46.7361 5.11093 47.3038 4.87747Q47.8714 4.64401 48.616 4.21906L80.201-14.016Q81.2904-14.6217 81.8878-15.2798Q82.4852-15.9378 82.4852-16.8747Q82.4852-17.8574 81.8878-18.4929Q81.2904-19.1284 80.201-19.783L68.1206-26.7578ZM65.0414-44.7227L79.1039-36.6364Q79.8439-36.2206 79.8439-35.6651Q79.8439-35.1105 79.1039-34.6947L47.2733-16.3879Q46.5691-15.9874 46.1029-15.9874Q45.681-15.9874 44.9768-16.3879L13.1462-34.6947Q12.4062-35.1105 12.4062-35.6651Q12.4062-36.2206 13.1462-36.6364L27.3788-44.8586L25.2068-46.1578L12.0499-38.5696Q10.9604-37.9189 10.363-37.2833Q9.76562-36.6478 9.76562-35.6651Q9.76562-34.7282 10.363-34.0702Q10.9604-33.4122 12.0499-32.8033L43.634-14.5714Q44.3794-14.1464 44.9467-13.8905Q45.5139-13.6345 46.1029-13.6345Q46.7361-13.6345 47.3038-13.8905Q47.8714-14.1464 48.616-14.5714L80.201-32.8033Q81.2904-33.4122 81.8878-34.0702Q82.4852-34.7282 82.4852-35.6651Q82.4852-36.6478 81.8878-37.2833Q81.2904-37.9189 80.201-38.5696L67.2417-46.0365ZM46.1029-33.1078Q46.7361-33.1078 47.3038-33.3408Q47.8714-33.5739 48.616-33.9989L80.201-52.2308Q81.2904-52.8366 81.8878-53.4966Q82.4852-54.1565 82.4852-55.0934Q82.4852-56.076 81.8878-56.7112Q81.2904-57.3463 80.201-57.9979L48.616-76.2299Q47.8714-76.6579 47.3038-76.8894Q46.7361-77.121 46.1029-77.121Q45.5139-77.121 44.9467-76.8894Q44.3794-76.6579 43.634-76.2299L12.0499-57.9979Q10.9604-57.3463 10.363-56.7112Q9.76562-56.076 9.76562-55.0934Q9.76562-54.1565 10.363-53.4966Q10.9604-52.8366 12.0499-52.2308L43.634-33.9989Q44.3794-33.5739 44.9467-33.3408Q45.5139-33.1078 46.1029-33.1078Z"/>
  </g>
 </g>
</svg>
